<svg width="186" height="179" viewBox="0 0 186 179" fill="none" xmlns="http://www.w3.org/2000/svg">
<path d="M67.045 119.028C63.867 131.172 82.045 146.449 107.647 153.149C133.249 159.849 156.581 155.436 159.759 143.291C162.937 131.146 144.759 115.87 119.157 109.169C93.555 102.468 70.223 106.883 67.045 119.028V119.028Z" fill="#606063"/>
<path d="M155.924 149.273L171.346 132.988L61.9921 104.369L67.7131 126.187L155.924 149.273Z" fill="#606063"/>
<path d="M68.934 108.293L27.073 97.338C25.258 96.863 23.413 97.992 23.01 99.824L22.542 101.953C22.0928 103.997 22.4362 106.135 23.5028 107.936C24.5694 109.736 26.2797 111.065 28.288 111.653L70.1 123.892L68.934 108.293Z" fill="#606063"/>
<path d="M62.203 98.71C58.509 112.824 80.527 130.811 111.381 138.886C142.235 146.961 170.241 142.064 173.935 127.95C177.629 113.836 155.611 95.849 124.757 87.774C93.903 79.699 65.896 84.595 62.203 98.709V98.71Z" fill="url(#paint0_linear)"/>
<path fill-rule="evenodd" clip-rule="evenodd" d="M146.673 123.286C153.771 128.506 157.919 134.152 158.538 139.157L161.516 138.789C160.744 132.551 155.779 126.258 148.45 120.869C141.061 115.434 131.011 110.721 119.537 107.718C108.063 104.715 96.993 103.901 87.888 105.019C78.859 106.128 71.448 109.182 67.72 114.242L70.135 116.021C73.127 111.961 79.508 109.071 88.254 107.997C96.924 106.933 107.608 107.698 118.777 110.621C129.946 113.544 139.636 118.111 146.673 123.286V123.286Z" fill="#606063"/>
<path fill-rule="evenodd" clip-rule="evenodd" d="M75.734 118.739C67.013 111.615 63.736 104.698 65.105 99.469C66.474 94.24 72.719 89.815 83.811 87.876C94.618 85.987 108.889 86.722 123.997 90.676C139.105 94.63 151.908 100.98 160.403 107.921C169.124 115.045 172.401 121.962 171.033 127.191C169.665 132.42 163.419 136.844 152.326 138.784C141.52 140.673 127.248 139.937 112.14 135.984C97.032 132.031 84.23 125.68 75.734 118.739V118.739ZM111.381 138.886C80.527 130.811 58.509 112.824 62.203 98.71C65.897 84.596 93.903 79.7 124.757 87.775C155.611 95.85 177.629 113.837 173.935 127.951C170.241 142.065 142.235 146.961 111.381 138.887V138.886Z" fill="#979797"/>
<path fill-rule="evenodd" clip-rule="evenodd" d="M64.167 124.049L59.23 104.926L62.135 104.176L67.072 123.299L64.167 124.049Z" fill="url(#paint1_linear)"/>
<path fill-rule="evenodd" clip-rule="evenodd" d="M62.469 106.189L62.341 105.746L62.139 104.929L61.997 104.389C62.019 104.377 62.027 104.37 62.025 104.362L62.021 104.337L61.901 103.543L61.879 103.352C61.807 102.689 61.783 102.031 61.808 101.378C61.843 100.475 61.974 99.585 62.203 98.71C65.897 84.596 93.903 79.7 124.758 87.774C155.613 95.848 177.63 113.836 173.936 127.95C173.708 128.822 173.385 129.667 172.973 130.469C172.519 131.351 171.971 132.181 171.338 132.945L171.322 132.964C171.333 132.984 171.336 132.989 171.337 132.993L170.726 133.644L157.794 147.299C150.987 156.33 130.198 159.051 107.648 153.149C85.346 147.312 68.677 134.967 66.851 123.854C66.758 123.285 66.367 122.8 65.814 122.639L29.127 111.91C27.1293 111.325 25.4259 110.008 24.3576 108.222C23.2893 106.435 22.9348 104.312 23.365 102.275L23.824 100.103C24.214 98.258 26.066 97.113 27.89 97.589L62.139 106.52C62.1849 106.532 62.2331 106.532 62.279 106.52C62.3249 106.508 62.3667 106.484 62.4003 106.45C62.4338 106.417 62.458 106.375 62.4702 106.329C62.4825 106.283 62.4824 106.235 62.47 106.189H62.469ZM58.812 102.553C58.748 101.009 58.903 99.468 59.3 97.95C61.625 89.065 71.23 83.985 82.778 81.966C94.612 79.897 109.77 80.751 125.516 84.872C141.262 88.993 154.896 95.674 164.199 103.274C173.277 110.691 179.162 119.825 176.837 128.71C176.28 130.839 175.285 132.774 173.936 134.499C173.817 134.703 173.674 134.893 173.511 135.065L160.082 149.246C155.911 154.652 148.056 157.706 138.984 158.802C129.684 159.926 118.467 159.082 106.888 156.051C95.435 153.054 85.34 148.366 77.809 142.91C70.73 137.78 65.488 131.648 64.066 125.253L28.284 114.789C25.5608 113.992 23.2387 112.197 21.7823 109.762C20.326 107.326 19.8426 104.431 20.429 101.655L20.888 99.482C21.632 95.963 25.165 93.778 28.646 94.686L58.811 102.553H58.812Z" fill="url(#paint2_linear)"/>
<path d="M76 58C92.0163 58 105 45.0163 105 29C105 12.9837 92.0163 0 76 0C59.9837 0 47 12.9837 47 29C47 45.0163 59.9837 58 76 58Z" fill="#F0B90B"/>
<path d="M105.117 36.6362C101.177 52.4399 85.1683 62.0578 69.361 58.1168C53.5603 54.1769 43.9415 38.1693 47.8836 22.3668C51.8222 6.56136 67.8305 -3.0572 83.6329 0.882741C99.439 4.82268 109.058 20.8317 105.117 36.6362Z" fill="black"/>
<path d="M75.9044 8.19574V8.21762C75.9263 8.32702 75.9263 8.4583 75.9263 8.58957V24.3648C75.9044 24.4523 75.8388 24.4742 75.7731 24.518C75.3137 24.7368 74.8761 24.9337 74.4166 25.1306C73.7821 25.415 73.1257 25.7214 72.4912 26.0058L70.1938 27.056C69.5593 27.3404 68.9248 27.6249 68.3122 27.9093C67.5683 28.2594 66.8025 28.5876 66.0586 28.9377C65.4241 29.2221 64.7895 29.5284 64.1332 29.8129C63.608 30.0535 63.0829 30.2723 62.5797 30.513C62.5359 30.5349 62.4922 30.5568 62.4484 30.5568C62.4265 30.5568 62.4265 30.5568 62.4047 30.5349L62.9954 29.5503C64.1332 27.6686 65.249 25.8089 66.3868 23.9272C67.5901 21.9143 68.8154 19.9014 70.0188 17.8884C71.1347 16.0287 72.2724 14.1689 73.3883 12.3091C74.1978 10.9526 75.0292 9.59604 75.8388 8.2395C75.8607 8.19574 75.8825 8.17386 75.8825 8.1301H75.9044C75.8825 8.15198 75.9044 8.17386 75.9044 8.19574Z" fill="#39DEAE"/>
<path d="M89.3368 30.5346L89.3586 30.5565L86.1423 32.46L76.0339 38.4332C75.9902 38.4551 75.9464 38.477 75.9245 38.4988C75.8589 38.4988 75.8589 38.4332 75.8589 38.4113V38.2144V24.6928C75.8589 24.6271 75.8589 24.5396 75.8808 24.474C75.9026 24.3864 75.9683 24.4083 76.0339 24.4302C76.3184 24.5615 76.6247 24.6928 76.9091 24.824C77.7624 25.2179 78.6157 25.6117 79.469 25.9837C80.2129 26.3119 80.935 26.6619 81.6789 26.9901C82.4228 27.3183 83.1667 27.6684 83.9106 27.9966C84.5451 28.281 85.2015 28.5873 85.836 28.8718C86.4705 29.1562 87.1269 29.4625 87.7614 29.747C88.2647 29.9658 88.7679 30.2064 89.2711 30.4252C89.2711 30.4909 89.293 30.5128 89.3368 30.5346Z" fill="#3CB391"/>
<path d="M75.9027 52.0861C75.9027 52.108 75.8808 52.1299 75.8808 52.1518H75.859C75.859 52.108 75.8152 52.0861 75.7933 52.0424C74.4368 50.1388 73.0802 48.2134 71.7237 46.3099C70.3453 44.3626 68.945 42.3934 67.5666 40.4461C66.2319 38.5645 64.8754 36.6609 63.5407 34.7793C63.1906 34.2761 62.8405 33.7947 62.4905 33.2915C62.4686 33.2477 62.4467 33.2258 62.403 33.1602C62.4686 33.1602 62.5124 33.204 62.5342 33.2258C64.4378 34.3417 66.3194 35.4576 68.2229 36.5734C70.4109 37.8643 72.577 39.1552 74.765 40.4461L75.8808 41.1025C75.9246 41.1463 75.9246 41.19 75.9246 41.2338V51.7798C75.9246 51.8892 75.9246 51.9986 75.9027 52.0861Z" fill="#39DEAE"/>
<path d="M62.3811 30.5784V30.5566C63.0813 30.2502 63.7595 29.922 64.4597 29.6157C65.3567 29.2 66.2538 28.8062 67.1509 28.3905C67.8291 28.0842 68.5293 27.756 69.2076 27.4496C70.214 26.9902 71.1986 26.5526 72.2051 26.0931C72.8833 25.7868 73.5616 25.4805 74.2618 25.1523C74.7431 24.9335 75.2463 24.7147 75.7277 24.4959C75.7715 24.474 75.8371 24.4521 75.859 24.4084C75.8809 24.4084 75.8809 24.4303 75.859 24.4521V38.3457C75.859 38.4114 75.8371 38.477 75.8809 38.5208C75.8371 38.5864 75.7933 38.5208 75.7715 38.4989C75.5745 38.3895 75.3776 38.2801 75.1807 38.1488C70.9579 35.6545 66.7133 33.1384 62.4905 30.6441C62.4686 30.6222 62.4249 30.6003 62.3811 30.5784Z" fill="#46CAA2"/>
<path d="M89.2931 33.1602H89.315C89.315 33.204 89.2712 33.2477 89.2493 33.2915C85.2235 38.9583 81.1976 44.647 77.1718 50.3139C76.756 50.9046 76.3185 51.4954 75.9027 52.0861C75.8809 52.0642 75.8809 52.0424 75.8809 52.0205V51.8892V41.2776V41.0806C76.7998 40.5336 77.6969 40.0085 78.6158 39.4615C82.1603 37.3611 85.7048 35.2825 89.2275 33.1821C89.2493 33.204 89.2712 33.1821 89.2931 33.1602Z" fill="#46CAA2"/>
<path d="M75.8808 24.4522V24.4084V24.2771V8.39249C75.8808 8.32686 75.8589 8.2831 75.9027 8.21746C80.3442 15.5909 84.7858 22.9425 89.2055 30.3159C89.2493 30.3816 89.3149 30.4691 89.3368 30.5566C89.0305 30.4472 88.746 30.294 88.4616 30.1628C88.1115 30.0096 87.7396 29.8346 87.3895 29.6814C87.1707 29.572 86.93 29.4845 86.7112 29.3751C86.3393 29.2001 85.9673 29.0469 85.5954 28.8719C85.3766 28.7843 85.1578 28.6749 84.939 28.5655L83.4949 27.9092C83.2542 27.7998 83.0136 27.6904 82.751 27.581L81.7008 27.1215C81.482 27.034 81.2632 26.9246 81.0444 26.8152L79.6003 26.1588C79.3597 26.0494 79.119 25.94 78.8564 25.8306L77.8062 25.3711C77.5655 25.2617 77.3467 25.1523 77.1061 25.0429C76.6903 24.846 76.2746 24.6491 75.837 24.4741C75.9027 24.4522 75.8808 24.4522 75.8808 24.4522Z" fill="#46CAA2"/>
<path d="M101.207 35.9105C97.6671 50.1071 83.2868 58.7468 69.087 55.2066C54.8932 51.6674 46.2525 37.2876 49.7937 23.0922C53.3318 8.8941 67.7122 0.253704 81.9075 3.79297C96.1062 7.33224 104.747 21.7133 101.207 35.9105Z" fill="black"/>
<g clip-path="url(#clip0)">
<path fill-rule="evenodd" clip-rule="evenodd" d="M79.4589 33.3929C79.2657 33.4078 78.2676 33.469 76.0411 33.469C74.2701 33.469 73.0128 33.4144 72.5717 33.3929C65.7279 33.0835 60.6196 31.8591 60.6196 30.3932C60.6196 28.9272 65.7279 27.7044 72.5717 27.3901V32.1735C73.0192 32.2066 74.3007 32.2843 76.0716 32.2843C78.1967 32.2843 79.2609 32.1933 79.4525 32.1751V27.3934C86.2818 27.7061 91.3788 28.9305 91.3788 30.3932C91.3788 31.8558 86.2834 33.0802 79.4525 33.3913L79.4589 33.3929ZM79.4589 26.8987V22.6183H88.9897V16.0909H63.0409V22.6183H72.5701V26.897C64.8247 27.2627 59 28.8395 59 30.729C59 32.6186 64.8247 34.1937 72.5701 34.5611V48.2776H79.4573V34.5561C87.185 34.1904 93 32.6153 93 30.7274C93 28.8395 87.1898 27.2643 79.4573 26.897L79.4589 26.8987Z" fill="#00FFB4"/>
</g>
<path d="M125.5 116C149.524 116 169 96.5244 169 72.5C169 48.4756 149.524 29 125.5 29C101.476 29 82 48.4756 82 72.5C82 96.5244 101.476 116 125.5 116Z" fill="#0033AD"/>
<path d="M124.785 46.379C126.031 45.721 127.536 47.225 126.877 48.471C126.501 49.482 125.044 49.764 124.291 48.988C123.516 48.259 123.774 46.778 124.785 46.379ZM111.408 47.836C112.161 47.53 113.125 48.212 113.054 49.035C113.125 49.928 112.043 50.587 111.267 50.163C110.233 49.763 110.35 48.094 111.408 47.835V47.836ZM138.797 50.187C137.621 50.046 137.433 48.189 138.562 47.813C139.455 47.39 140.254 48.189 140.372 49.036C140.207 49.741 139.619 50.399 138.797 50.188V50.187ZM114.441 53.525C115.711 52.726 117.497 53.925 117.309 55.382C117.239 56.863 115.287 57.733 114.159 56.722C113.101 55.923 113.266 54.112 114.441 53.525V53.525ZM133.742 54.371C134.306 52.913 136.587 52.866 137.222 54.277C137.856 55.382 137.08 56.745 135.952 57.122C134.447 57.404 133.037 55.782 133.742 54.371V54.371ZM123.163 57.028C123.14 55.782 124.291 54.842 125.467 54.771C126.243 54.935 127.113 55.265 127.442 56.064C128.076 57.169 127.512 58.673 126.384 59.167C125.867 59.449 125.255 59.355 124.691 59.308C123.821 58.885 123.092 58.062 123.163 57.028V57.028ZM103.274 58.862C104.426 58.157 105.978 59.45 105.555 60.696C105.32 61.777 103.862 62.224 103.016 61.519C102.122 60.884 102.263 59.309 103.274 58.862ZM145.99 58.862C146.978 58.11 148.576 58.979 148.459 60.202C148.529 61.33 147.119 62.177 146.155 61.589C145.097 61.119 145.003 59.473 145.99 58.862V58.862ZM128.758 61.095C130.38 60.507 132.285 61.213 133.201 62.647C134.424 64.41 133.766 67.09 131.885 68.101C129.934 69.3 127.089 68.289 126.36 66.103C125.561 64.152 126.76 61.707 128.758 61.096V61.095ZM119.284 61.283C121.071 60.437 123.492 61.142 124.338 62.976C125.349 64.763 124.574 67.231 122.74 68.171C120.93 69.205 118.344 68.43 117.474 66.502C116.51 64.645 117.38 62.153 119.284 61.283ZM109.786 64.527C109.927 63.375 111.009 62.623 112.114 62.552C113.289 62.693 114.253 63.61 114.371 64.809C114.3 65.984 113.383 67.16 112.114 67.136C110.75 67.277 109.528 65.89 109.786 64.527ZM137.833 62.811C139.243 61.988 141.218 63.187 141.148 64.809C141.242 66.525 139.055 67.748 137.645 66.737C136.187 65.891 136.305 63.516 137.833 62.811V62.811ZM115.428 68.9C117.098 68.453 118.978 69.229 119.801 70.757C120.695 72.285 120.318 74.424 118.955 75.553C117.168 77.199 113.9 76.54 112.96 74.284C111.855 72.192 113.172 69.441 115.428 68.9ZM133.413 68.877C135.035 68.407 136.916 69.042 137.786 70.499C138.938 72.168 138.373 74.684 136.681 75.765C134.894 77.034 132.12 76.353 131.133 74.401C129.934 72.379 131.133 69.511 133.413 68.876V68.877ZM104.755 70.805C106.189 70.264 107.788 71.839 107.2 73.273C106.848 74.566 105.014 75.036 104.074 74.096C102.969 73.179 103.392 71.181 104.755 70.805V70.805ZM143.616 72.85C143.569 71.651 144.439 70.617 145.661 70.546C146.649 70.711 147.589 71.486 147.519 72.568C147.613 73.979 145.896 74.942 144.697 74.284C144.133 74.002 143.851 73.414 143.616 72.85ZM97.7021 71.486C98.5721 71.11 99.6301 71.862 99.4421 72.826C99.3951 73.907 97.7961 74.331 97.2091 73.414C96.6921 72.779 96.9971 71.815 97.7031 71.486H97.7021ZM152.079 71.463C152.691 71.04 153.654 71.345 153.89 72.051C154.289 72.827 153.56 73.885 152.667 73.767C151.468 73.885 151.068 72.004 152.079 71.463V71.463ZM120.107 76.682C122.387 76.094 124.809 77.975 124.832 80.326C124.973 82.677 122.575 84.769 120.248 84.229C118.461 83.947 117.051 82.207 117.098 80.397C117.098 78.657 118.414 77.035 120.107 76.683V76.682ZM129.087 76.682C131.391 76.047 133.907 77.975 133.86 80.349C133.977 82.676 131.65 84.698 129.369 84.228C127.23 83.946 125.655 81.595 126.243 79.526C126.572 78.139 127.724 77.01 129.087 76.681V76.682ZM111.785 78.116C113.383 77.834 114.864 79.621 114.23 81.125C113.759 82.747 111.408 83.17 110.374 81.854C109.152 80.608 110.045 78.281 111.785 78.116ZM138.115 78.187C139.525 77.599 141.289 78.822 141.171 80.373C141.218 82.066 139.079 83.241 137.692 82.254C136.117 81.337 136.399 78.728 138.115 78.187V78.187ZM145.497 85.569C144.933 84.535 145.943 83.148 147.095 83.359C147.66 83.359 148.059 83.806 148.435 84.182C148.506 84.793 148.647 85.522 148.13 85.992C147.425 86.862 145.873 86.627 145.497 85.569ZM103.274 83.641C104.356 82.936 105.907 83.994 105.649 85.24C105.531 86.345 104.121 86.98 103.204 86.369C102.216 85.805 102.24 84.159 103.274 83.642V83.641ZM124.527 85.968C125.937 85.357 127.724 86.579 127.606 88.131C127.7 89.847 125.49 91.023 124.103 90.012C122.575 89.119 122.834 86.509 124.527 85.968ZM114.676 88.272C115.875 87.637 117.497 88.742 117.38 90.082C117.427 91.187 116.345 92.127 115.24 91.963C114.347 91.94 113.759 91.14 113.454 90.364C113.501 89.518 113.83 88.577 114.676 88.272V88.272ZM134.636 88.295C135.858 87.543 137.621 88.624 137.504 90.058C137.527 91.563 135.552 92.527 134.4 91.539C133.295 90.763 133.437 88.906 134.636 88.295V88.295ZM138.115 96.852C137.574 96.029 138.209 95.018 139.102 94.83C139.808 94.971 140.583 95.512 140.419 96.335C140.301 97.487 138.656 97.816 138.115 96.852V96.852ZM110.562 96.147C110.774 95.489 111.314 94.83 112.09 94.995C113.219 95.066 113.548 96.782 112.56 97.299C111.667 97.91 110.656 97.087 110.562 96.147ZM123.845 96.899C124.056 95.935 125.326 95.441 126.149 95.959C126.689 96.194 126.854 96.805 126.995 97.323L126.783 98.146C126.454 98.546 126.008 98.945 125.443 98.945C124.409 99.063 123.445 97.887 123.845 96.9V96.899Z" fill="#FFFDFA"/>
<g style="mix-blend-mode:multiply" opacity="0.2">
<path d="M125.5 114.582C148.741 114.582 167.582 95.7412 167.582 72.5C167.582 49.2588 148.741 30.418 125.5 30.418C102.259 30.418 83.418 49.2588 83.418 72.5C83.418 95.7412 102.259 114.582 125.5 114.582Z" stroke="#191326" stroke-width="2.837"/>
</g>
<path d="M125.5 117C150.077 117 170 97.0767 170 72.5C170 47.9233 150.077 28 125.5 28C100.923 28 81 47.9233 81 72.5C81 97.0767 100.923 117 125.5 117Z" fill="url(#paint3_linear)"/>
<path fill-rule="evenodd" clip-rule="evenodd" d="M95.0795 72.2609C95.0718 72.4272 95.0681 72.5939 95.0681 72.7614C95.0681 73.3939 95.1232 74.0184 95.2306 74.6338H95.0681V75.602C95.0681 76.0748 95.0988 76.5432 95.1591 77.0064C96.3374 86.0462 108.793 93.1592 123.984 93.1592C139.176 93.1592 151.632 86.0462 152.81 77.0064C152.87 76.5432 152.901 76.0748 152.901 75.602V74.6338H152.738C152.846 74.0184 152.901 73.3939 152.901 72.7614C152.901 72.5939 152.897 72.4272 152.889 72.2609C152.453 62.7959 139.679 55.2041 123.984 55.2041C108.29 55.2041 95.5158 62.7959 95.0795 72.2609ZM92.7046 72.2609C92.9198 66.486 96.8442 61.6348 102.306 58.3185C107.968 54.8807 115.638 52.8315 123.984 52.8315C132.331 52.8315 140.001 54.8807 145.663 58.3185C151.125 61.6348 155.049 66.486 155.264 72.2609H155.274V75.602C155.274 81.5973 151.282 86.6332 145.663 90.0449C140.001 93.4827 132.331 95.5319 123.984 95.5319C115.638 95.5319 107.968 93.4827 102.306 90.0449C96.6871 86.6332 92.6954 81.5973 92.6954 75.602V72.2609H92.7046Z" fill="#606063"/>
<path d="M152.903 75.602C152.903 85.2986 139.957 93.1591 123.987 93.1591C108.016 93.1591 95.0702 85.2986 95.0702 75.602V72.8227H152.903V75.602Z" fill="#BEBEBE"/>
<path d="M152.903 72.7616C152.903 82.4581 139.957 90.3186 123.987 90.3186C108.016 90.3186 95.0702 82.4581 95.0702 72.7616C95.0702 63.065 108.016 55.2043 123.987 55.2043C139.957 55.2043 152.903 63.065 152.903 72.7616Z" fill="#FAF9FA"/>
<g style="mix-blend-mode:multiply" opacity="0.2">
<g style="mix-blend-mode:multiply" opacity="0.2">
<path fill-rule="evenodd" clip-rule="evenodd" d="M125.5 114.098C148.474 114.098 167.098 95.4739 167.098 72.5C167.098 49.5262 148.474 30.9022 125.5 30.9022C102.526 30.9022 83.9022 49.5262 83.9022 72.5C83.9022 95.4739 102.526 114.098 125.5 114.098ZM125.5 117C150.077 117 170 97.0766 170 72.5C170 47.9234 150.077 28 125.5 28C100.923 28 81 47.9234 81 72.5C81 97.0766 100.923 117 125.5 117Z" fill="#191326"/>
</g>
</g>
<g clip-path="url(#clip1)">
<path d="M143.209 76.482L148.248 64.9658C148.248 64.9658 148.338 61.8699 147.664 60.0379C147.028 58.3106 146.641 57.5568 145.101 56.0446C143.561 54.5324 142.036 53.772 139.837 52.7406C136.942 51.3818 134.711 50.7201 132.046 50.249C129.38 49.778 124.05 48.9457 119.104 49.399C113.412 49.9207 109.896 50.5071 105.172 53.571C102.889 55.0511 101.6 56.0142 99.9801 58.175C97.2864 61.7693 95.3619 65.8554 94.5486 69.4617C94.0118 71.8418 94.5736 72.9044 95.2246 75.2863C95.8756 77.6683 100.237 83.6847 103.008 85.5051C104.823 86.6976 111.634 90.7926 116.267 91.3989C118.495 91.6905 123.111 90.8918 126.607 88.6836C128.594 87.4281 131.262 84.6224 134.45 82.2712C137.745 79.8408 143.209 76.482 143.209 76.482Z" fill="#F8ECE1"/>
<path d="M131.751 75.3044C133.939 74.3283 139.689 71.6567 139.689 71.6567L139.047 72.9914C138.531 74.0624 137.285 74.7158 136.54 75.1944C134.265 76.6563 132.878 77.4907 132.139 78.0685C131.4 78.6463 127.399 82.3012 127.399 82.3012C127.399 82.3012 128.083 80.3575 128.645 78.8832C129.208 77.4089 130.283 75.9593 131.751 75.3044Z" fill="#691806"/>
<path d="M99.541 69.4636C99.541 69.4636 99.7669 71.0941 100.725 73.057C101.696 75.0461 101.967 75.136 103.718 77.1151C105.469 79.0942 107.516 79.0647 108.961 79.1107C110.406 79.1567 107.879 79.6252 106.77 79.7001C105.669 79.7745 105.35 80.2137 105.35 80.2137C105.35 80.2137 105.169 80.3704 105.334 80.8556C105.499 81.3407 105.756 81.8092 105.756 81.8092C105.756 81.8092 105.166 82.3372 103.131 80.1201C100.45 77.1985 99.5339 74.9392 99.3635 74.1876C98.7644 71.5453 99.541 69.4636 99.541 69.4636Z" fill="#691806"/>
<path fill-rule="evenodd" clip-rule="evenodd" d="M148.248 64.9658C148.167 66.1789 144.727 75.0353 143.209 76.482C142.413 77.2401 140.95 78.1264 139.264 79.1482C137.733 80.0756 136.018 81.1148 134.45 82.2712C132.892 83.4199 131.459 84.677 130.168 85.809C128.817 86.9938 127.623 88.0417 126.607 88.6836C123.111 90.8918 118.495 91.6905 116.267 91.3989C111.634 90.7926 104.823 86.6976 103.008 85.5051C100.237 83.6847 95.8756 77.6683 95.2246 75.2863C95.1157 74.8873 95.0091 74.5255 94.9099 74.188C94.4163 72.5114 94.1017 71.4431 94.5486 69.4617C95.3619 65.8554 97.2864 61.7693 99.9801 58.175C101.6 56.0142 102.889 55.0511 105.172 53.571C109.896 50.5071 113.412 49.9207 119.104 49.399C124.05 48.9457 129.38 49.778 132.046 50.249C134.711 50.7201 136.942 51.3818 139.837 52.7406C142.036 53.772 143.561 54.5324 145.101 56.0446C146.641 57.5568 147.028 58.3106 147.664 60.0379C148.338 61.8699 148.329 63.7526 148.248 64.9658ZM143.768 60.8618C144.241 61.8817 144.143 63.6966 143.119 65.8254C141.632 68.9136 137.445 70.5933 134.827 71.6436C134.051 71.9552 133.412 72.2112 133.023 72.4325C131.321 73.3993 129.353 75.0497 128.632 75.9813C128.056 76.7266 127.12 77.9928 127.12 77.9928C127.12 77.9928 129.844 75.7119 130.179 75.4675C132.495 73.7813 137.19 72.2663 137.19 72.2663L140.827 70.5873C140.827 70.5873 140.128 73.2686 139.138 74.0969C138.566 74.5751 137.544 75.2564 136.377 76.034C135.524 76.603 134.593 77.2234 133.704 77.8539C131.801 79.2037 130.159 80.7381 128.641 82.1554C126.668 83.998 124.907 85.6432 123.06 86.4289C120.279 87.6121 117.946 87.569 114.941 86.9253C111.521 86.1927 104.555 82.3332 101.983 79.5331C99.4455 76.77 98.2286 73.6819 98.723 71.1195C99.2174 68.557 99.8196 66.7831 99.8196 66.7831C99.8196 66.7831 99.94 70.2348 101.107 72.5569C102.156 74.6446 103.157 75.8145 104.624 77.0499C106.097 78.2894 109.161 78.9896 109.161 78.9896C109.161 78.9896 106.439 77.1633 105.235 75.7812C103.848 74.1903 103.526 73.6752 102.787 71.7218C101.692 68.8266 101.567 66.853 101.699 65.2727C101.854 63.4151 102.551 61.575 103.745 60.1494C105.47 58.0918 107.304 56.9131 109.811 55.8642C111.884 54.9969 115.529 54.2987 119.002 53.7935C122.599 53.2702 125.757 53.5177 127.349 53.6505C130.72 53.9317 134.92 54.8142 136.547 55.3981C138.774 56.1978 140.548 57.1771 141.243 57.6583C142.785 58.7253 143.243 59.7211 143.687 60.6863C143.714 60.7449 143.74 60.8033 143.768 60.8618Z" fill="#621706"/>
<path d="M108.305 62.1552C108.362 60.8585 109.282 58.9929 109.282 58.9929C109.282 58.9929 109.304 60.6621 109.434 61.7246C109.54 62.5878 109.824 63.9209 109.824 63.9209C109.824 63.9209 112.493 61.7725 113.802 60.0521C114.685 58.8914 115.752 56.871 115.752 56.871C115.752 56.871 115.14 59.0861 114.415 60.3469C113.493 61.9493 112.646 62.6479 111.292 63.9174C110.398 64.7561 109.811 65.1332 108.864 65.9146C107.924 66.6899 107.245 66.9766 106.461 67.9035C105.352 69.2145 104.558 71.8579 104.558 71.8579C104.558 71.8579 106.231 74.9273 107.907 76.3514C109.014 77.2912 109.789 77.627 111.068 78.3189C112.061 78.8557 113.672 79.5718 113.672 79.5718C113.672 79.5718 113.976 78.3545 114.035 77.5549C114.142 76.1038 114.125 75.214 113.603 73.8363C113.299 73.035 112.541 71.905 112.541 71.905C112.541 71.905 113.162 72.1597 113.528 72.3799C114.101 72.7243 114.231 73.2118 114.851 73.4631C115.468 73.7131 116.542 73.6072 116.542 73.6072L115.032 74.5242C115.032 74.5242 115.586 76.1421 115.687 77.2136C115.791 78.3106 115.531 80.0201 115.531 80.0201C115.531 80.0201 117.336 80.4497 118.506 80.4575C119.888 80.4664 120.71 80.3935 121.982 79.8979C124.057 79.0897 124.604 77.6638 126.199 76.1438C127.815 74.603 128.344 73.3239 130.197 72.0609C131.737 71.0104 134.546 70.0346 134.546 70.0346C134.546 70.0346 132.053 69.4164 130.972 68.3149C130.507 67.8405 129.977 66.9429 129.977 66.9429C129.977 66.9429 129.331 69.8228 128.018 71.0127C127.116 71.8312 126.391 72.0696 125.232 72.4507L125.18 72.4677C124.167 72.8013 122.484 72.976 122.484 72.976C122.484 72.976 124.242 72.5235 125.181 71.8999C126.08 71.3028 126.506 70.8284 127.124 69.9533C128.017 68.6882 128.091 67.7344 128.547 66.255C129.048 64.6332 129.519 62.0148 129.519 62.0148C129.519 62.0148 128.493 61.4189 127.886 60.9653C127.293 60.521 126.45 59.7261 126.45 59.7261C126.45 59.7261 124.918 59.9959 123.925 60.0941C122.464 60.2386 121.59 59.898 120.16 60.2099C119.184 60.423 117.759 61.0632 117.759 61.0632C117.759 61.0632 118.738 59.948 119.57 59.52C120.93 58.8203 122.01 59.4709 123.512 59.124C124.495 58.8969 125.966 58.3365 125.966 58.3365C125.966 58.3365 125.608 57.4048 125.519 56.7822C125.412 56.0276 125.574 54.84 125.574 54.84L124.531 54.7849C124.531 54.7849 119.194 54.998 115.887 55.7186C112.938 56.3613 111.125 56.5556 108.551 58.073C106.894 59.0494 105.805 59.5726 104.726 61.1432C103.845 62.4257 103.542 63.324 103.312 64.8661C103.034 66.728 103.842 69.6871 103.842 69.6871C103.842 69.6871 105.053 68.06 105.926 67.0983C106.908 66.0169 108.623 64.4997 108.623 64.4997C108.623 64.4997 108.265 63.0739 108.305 62.1552Z" fill="#B32D2D"/>
<path d="M133.533 57.8988C135.264 57.1276 138.424 57.5334 138.424 57.5334C138.424 57.5334 135.22 56.0782 133.047 55.5546C130.516 54.9449 126.431 54.8872 126.431 54.8872C126.431 54.8872 126.565 56.9763 127.235 58.0946C128.045 59.4485 130.404 60.6547 130.404 60.6547C130.404 60.6547 132.033 58.5671 133.533 57.8988Z" fill="#B32D2D"/>
<path d="M139.117 64.8474C140.497 64.7676 142.479 63.8273 142.479 63.8273C142.479 63.8273 141.506 66.3535 140.239 67.4369C138.905 68.5775 137.833 69.1778 136.04 69.1502C134.479 69.1262 133.451 68.7779 132.274 67.7437C131.227 66.8234 130.583 66.0392 130.501 64.6784C130.423 63.3977 130.919 62.6446 131.725 61.6554C132.297 60.9531 132.749 60.6539 133.539 60.1946C135.083 59.2958 136.216 59.0611 138.033 59.1307C139.499 59.1869 141.25 59.6313 141.685 60.0767L141.706 60.0977C142.127 60.5279 142.306 60.7113 142.234 61.3756C142.162 62.0375 140.689 62.8 139.476 63.4273L139.405 63.4642C138.308 64.0326 136.405 64.5164 136.405 64.5164C136.405 64.5164 138.056 64.9087 139.117 64.8474Z" fill="#B32D2D"/>
<path d="M115.001 65.2838C115.66 64.291 116.189 63.7805 117.242 63.1966C118.214 62.6573 120.39 62.5778 121.001 62.5706C121.612 62.5633 123.939 63.7815 124.404 64.2084C125.002 64.757 125.079 65.8722 124.909 66.643C124.768 67.2852 124.076 68.7787 123.672 69.2134C123.079 69.8515 122.651 70.1446 121.863 70.5343C120.548 71.1846 119.607 71.4068 118.13 71.1932C116.978 71.0267 116.215 70.8558 115.362 70.0641C114.529 69.2917 114.064 68.6009 114.064 67.4914C114.064 66.5495 114.482 66.0645 115.001 65.2838Z" fill="#F8ECE1"/>
<path fill-rule="evenodd" clip-rule="evenodd" d="M117.242 63.1966C116.189 63.7805 115.66 64.291 115.001 65.2838C114.938 65.3788 114.876 65.4694 114.817 65.5569C114.387 66.1892 114.064 66.664 114.064 67.4915C114.064 68.6009 114.529 69.2917 115.362 70.0641C116.215 70.8558 116.978 71.0267 118.13 71.1932C119.607 71.4068 120.548 71.1846 121.863 70.5343C122.651 70.1446 123.079 69.8515 123.672 69.2134C124.076 68.7787 124.768 67.2852 124.909 66.643C125.079 65.8722 125.002 64.757 124.404 64.2084C123.939 63.7815 121.612 62.5633 121.001 62.5706C120.39 62.5778 118.214 62.6573 117.242 63.1966ZM117.649 63.2546C116.779 63.6331 116.355 63.9885 115.85 64.7029C115.801 64.7712 115.754 64.8363 115.708 64.8993C115.378 65.3536 115.13 65.6948 115.181 66.3247C115.251 67.1693 115.695 67.7243 116.461 68.3645C117.246 69.0207 117.913 69.1986 118.916 69.3977C120.202 69.6529 120.998 69.5428 122.09 69.1303C122.745 68.8831 123.095 68.6867 123.566 68.2382C123.887 67.9327 124.389 66.8391 124.47 66.3591C124.568 65.783 124.432 64.9292 123.882 64.4741C123.455 64.12 121.374 63.0466 120.848 63.0138C120.322 62.981 118.452 62.905 117.649 63.2546Z" fill="#621706"/>
<path d="M118.123 65.4726C118.343 65.1623 118.528 65.0081 118.907 64.8443C119.258 64.6931 120.074 64.7281 120.304 64.743C120.534 64.7578 121.444 65.2269 121.631 65.3814C121.871 65.58 121.932 65.9516 121.889 66.2021C121.854 66.4109 121.636 66.8861 121.496 67.0187C121.291 67.2134 121.138 67.2984 120.853 67.4052C120.376 67.5836 120.029 67.6307 119.467 67.5183C119.029 67.4306 118.737 67.3525 118.393 67.0663C118.058 66.7869 117.864 66.545 117.833 66.1775C117.806 65.8654 117.95 65.7166 118.123 65.4726Z" fill="#621706"/>
</g>
<defs>
<linearGradient id="paint0_linear" x1="124.757" y1="87.774" x2="111.381" y2="138.886" gradientUnits="userSpaceOnUse">
<stop stop-color="#404042"/>
<stop offset="1" stop-color="#48484B"/>
</linearGradient>
<linearGradient id="paint1_linear" x1="65.567" y1="105.096" x2="60.735" y2="123.129" gradientUnits="userSpaceOnUse">
<stop stop-color="#404042"/>
<stop offset="1" stop-color="#48484B"/>
</linearGradient>
<linearGradient id="paint2_linear" x1="92.495" y1="80.169" x2="108.09" y2="164.62" gradientUnits="userSpaceOnUse">
<stop stop-color="#404042"/>
<stop offset="1" stop-color="#48484B"/>
</linearGradient>
<linearGradient id="paint3_linear" x1="125.5" y1="28" x2="125.5" y2="117" gradientUnits="userSpaceOnUse">
<stop stop-color="#54DADE"/>
<stop offset="0.762157" stop-color="#24C7D6"/>
</linearGradient>
<clipPath id="clip0">
<rect width="34" height="34" fill="white" transform="translate(59 13)"/>
</clipPath>
<clipPath id="clip1">
<rect width="53.1423" height="51.0166" fill="white" transform="translate(107.704 34.4707) rotate(25.6982)"/>
</clipPath>
</defs>
</svg>
