<svg width="186" height="179" viewBox="0 0 186 179" fill="none" xmlns="http://www.w3.org/2000/svg">
<path d="M67.045 119.028C63.867 131.172 82.045 146.449 107.647 153.149C133.249 159.849 156.581 155.436 159.759 143.291C162.937 131.146 144.759 115.87 119.157 109.169C93.555 102.468 70.223 106.883 67.045 119.028V119.028Z" fill="#606063"/>
<path d="M155.924 149.273L171.346 132.988L61.992 104.369L67.713 126.187L155.924 149.273Z" fill="#606063"/>
<path d="M68.934 108.293L27.073 97.338C25.258 96.863 23.413 97.992 23.01 99.824L22.542 101.953C22.0928 103.997 22.4362 106.135 23.5028 107.936C24.5694 109.736 26.2797 111.065 28.288 111.653L70.1 123.892L68.934 108.293Z" fill="#606063"/>
<path d="M62.203 98.71C58.509 112.824 80.527 130.811 111.381 138.886C142.235 146.961 170.241 142.064 173.935 127.95C177.629 113.836 155.611 95.849 124.757 87.774C93.903 79.699 65.896 84.595 62.203 98.709V98.71Z" fill="url(#paint0_linear)"/>
<path fill-rule="evenodd" clip-rule="evenodd" d="M146.673 123.286C153.771 128.506 157.919 134.152 158.538 139.157L161.516 138.789C160.744 132.551 155.779 126.258 148.45 120.869C141.061 115.434 131.011 110.721 119.537 107.718C108.063 104.715 96.993 103.901 87.888 105.019C78.859 106.128 71.448 109.182 67.72 114.242L70.135 116.021C73.127 111.961 79.508 109.071 88.254 107.997C96.924 106.933 107.608 107.698 118.777 110.621C129.946 113.544 139.636 118.111 146.673 123.286V123.286Z" fill="#606063"/>
<path fill-rule="evenodd" clip-rule="evenodd" d="M75.734 118.739C67.013 111.615 63.736 104.698 65.105 99.469C66.474 94.24 72.719 89.815 83.811 87.876C94.618 85.987 108.889 86.722 123.997 90.676C139.105 94.63 151.908 100.98 160.403 107.921C169.124 115.045 172.401 121.962 171.033 127.191C169.665 132.42 163.419 136.844 152.326 138.784C141.52 140.673 127.248 139.937 112.14 135.984C97.032 132.031 84.23 125.68 75.734 118.739V118.739ZM111.381 138.886C80.527 130.811 58.509 112.824 62.203 98.71C65.897 84.596 93.903 79.7 124.757 87.775C155.611 95.85 177.629 113.837 173.935 127.951C170.241 142.065 142.235 146.961 111.381 138.887V138.886Z" fill="#979797"/>
<path fill-rule="evenodd" clip-rule="evenodd" d="M64.167 124.049L59.23 104.926L62.135 104.176L67.072 123.299L64.167 124.049Z" fill="url(#paint1_linear)"/>
<path fill-rule="evenodd" clip-rule="evenodd" d="M62.469 106.189L62.341 105.746L62.139 104.929L61.997 104.389C62.019 104.377 62.027 104.37 62.025 104.362L62.021 104.337L61.901 103.543L61.879 103.352C61.807 102.689 61.783 102.031 61.808 101.378C61.843 100.475 61.974 99.585 62.203 98.71C65.897 84.596 93.903 79.7 124.758 87.774C155.613 95.848 177.63 113.836 173.936 127.95C173.708 128.822 173.385 129.667 172.973 130.469C172.519 131.351 171.971 132.181 171.338 132.945L171.322 132.964C171.333 132.984 171.336 132.989 171.337 132.993L170.726 133.644L157.794 147.299C150.987 156.33 130.198 159.051 107.648 153.149C85.346 147.312 68.677 134.967 66.851 123.854C66.758 123.285 66.367 122.8 65.814 122.639L29.127 111.91C27.1293 111.325 25.4259 110.008 24.3576 108.222C23.2893 106.435 22.9348 104.312 23.365 102.275L23.824 100.103C24.214 98.258 26.066 97.113 27.89 97.589L62.139 106.52C62.1849 106.532 62.2331 106.532 62.279 106.52C62.3249 106.508 62.3667 106.484 62.4003 106.45C62.4338 106.417 62.458 106.375 62.4702 106.329C62.4825 106.283 62.4824 106.235 62.47 106.189H62.469ZM58.812 102.553C58.748 101.009 58.903 99.468 59.3 97.95C61.625 89.065 71.23 83.985 82.778 81.966C94.612 79.897 109.77 80.751 125.516 84.872C141.262 88.993 154.896 95.674 164.199 103.274C173.277 110.691 179.162 119.825 176.837 128.71C176.28 130.839 175.285 132.774 173.936 134.499C173.817 134.703 173.674 134.893 173.511 135.065L160.082 149.246C155.911 154.652 148.056 157.706 138.984 158.802C129.684 159.926 118.467 159.082 106.888 156.051C95.435 153.054 85.34 148.366 77.809 142.91C70.73 137.78 65.488 131.648 64.066 125.253L28.284 114.789C25.5608 113.992 23.2387 112.197 21.7823 109.762C20.326 107.326 19.8426 104.431 20.429 101.655L20.888 99.482C21.632 95.963 25.165 93.778 28.646 94.686L58.811 102.553H58.812Z" fill="url(#paint2_linear)"/>
<path d="M76 58C92.0163 58 105 45.0163 105 29C105 12.9837 92.0163 0 76 0C59.9837 0 47 12.9837 47 29C47 45.0163 59.9837 58 76 58Z" fill="#F0B90B"/>
<path d="M105.102 36.0152C101.095 51.5511 84.8152 61.0059 68.74 57.1318C52.6715 53.2586 42.8897 37.5223 46.8986 21.9877C50.9039 6.45015 67.1836 -3.00538 83.2538 0.867779C99.3278 4.74094 109.11 20.4787 105.102 36.0152Z" fill="#0434C3"/>
<g clip-path="url(#clip0)">
<path d="M84.4374 27.7433L76.0007 43.6265L67.5626 27.7433H84.4374ZM92.8755 22.4489H59.1244L76.0007 54.2154L92.8755 22.4489ZM53.5 11.8601L56.3138 17.1545H95.6878L98.5 11.8601H53.5Z" fill="white"/>
</g>
<path d="M125.5 116C149.524 116 169 96.5244 169 72.5C169 48.4756 149.524 29 125.5 29C101.476 29 82 48.4756 82 72.5C82 96.5244 101.476 116 125.5 116Z" fill="#0033AD"/>
<path d="M124.785 46.379C126.031 45.721 127.536 47.225 126.877 48.471C126.501 49.482 125.044 49.764 124.291 48.988C123.516 48.259 123.774 46.778 124.785 46.379ZM111.408 47.836C112.161 47.53 113.125 48.212 113.054 49.035C113.125 49.928 112.043 50.587 111.267 50.163C110.233 49.763 110.35 48.094 111.408 47.835V47.836ZM138.797 50.187C137.621 50.046 137.433 48.189 138.562 47.813C139.455 47.39 140.254 48.189 140.372 49.036C140.207 49.741 139.619 50.399 138.797 50.188V50.187ZM114.441 53.525C115.711 52.726 117.497 53.925 117.309 55.382C117.239 56.863 115.287 57.733 114.159 56.722C113.101 55.923 113.266 54.112 114.441 53.525V53.525ZM133.742 54.371C134.306 52.913 136.587 52.866 137.222 54.277C137.856 55.382 137.08 56.745 135.952 57.122C134.447 57.404 133.037 55.782 133.742 54.371V54.371ZM123.163 57.028C123.14 55.782 124.291 54.842 125.467 54.771C126.243 54.935 127.113 55.265 127.442 56.064C128.076 57.169 127.512 58.673 126.384 59.167C125.867 59.449 125.255 59.355 124.691 59.308C123.821 58.885 123.092 58.062 123.163 57.028V57.028ZM103.274 58.862C104.426 58.157 105.978 59.45 105.555 60.696C105.32 61.777 103.862 62.224 103.016 61.519C102.122 60.884 102.263 59.309 103.274 58.862ZM145.99 58.862C146.978 58.11 148.576 58.979 148.459 60.202C148.529 61.33 147.119 62.177 146.155 61.589C145.097 61.119 145.003 59.473 145.99 58.862V58.862ZM128.758 61.095C130.38 60.507 132.285 61.213 133.201 62.647C134.424 64.41 133.766 67.09 131.885 68.101C129.934 69.3 127.089 68.289 126.36 66.103C125.561 64.152 126.76 61.707 128.758 61.096V61.095ZM119.284 61.283C121.071 60.437 123.492 61.142 124.338 62.976C125.349 64.763 124.574 67.231 122.74 68.171C120.93 69.205 118.344 68.43 117.474 66.502C116.51 64.645 117.38 62.153 119.284 61.283ZM109.786 64.527C109.927 63.375 111.009 62.623 112.114 62.552C113.289 62.693 114.253 63.61 114.371 64.809C114.3 65.984 113.383 67.16 112.114 67.136C110.75 67.277 109.528 65.89 109.786 64.527ZM137.833 62.811C139.243 61.988 141.218 63.187 141.148 64.809C141.242 66.525 139.055 67.748 137.645 66.737C136.187 65.891 136.305 63.516 137.833 62.811V62.811ZM115.428 68.9C117.098 68.453 118.978 69.229 119.801 70.757C120.695 72.285 120.318 74.424 118.955 75.553C117.168 77.199 113.9 76.54 112.96 74.284C111.855 72.192 113.172 69.441 115.428 68.9ZM133.413 68.877C135.035 68.407 136.916 69.042 137.786 70.499C138.938 72.168 138.373 74.684 136.681 75.765C134.894 77.034 132.12 76.353 131.133 74.401C129.934 72.379 131.133 69.511 133.413 68.876V68.877ZM104.755 70.805C106.189 70.264 107.788 71.839 107.2 73.273C106.848 74.566 105.014 75.036 104.074 74.096C102.969 73.179 103.392 71.181 104.755 70.805V70.805ZM143.616 72.85C143.569 71.651 144.439 70.617 145.661 70.546C146.649 70.711 147.589 71.486 147.519 72.568C147.613 73.979 145.896 74.942 144.697 74.284C144.133 74.002 143.851 73.414 143.616 72.85ZM97.702 71.486C98.572 71.11 99.63 71.862 99.442 72.826C99.395 73.907 97.796 74.331 97.209 73.414C96.692 72.779 96.997 71.815 97.703 71.486H97.702ZM152.079 71.463C152.691 71.04 153.654 71.345 153.89 72.051C154.289 72.827 153.56 73.885 152.667 73.767C151.468 73.885 151.068 72.004 152.079 71.463V71.463ZM120.107 76.682C122.387 76.094 124.809 77.975 124.832 80.326C124.973 82.677 122.575 84.769 120.248 84.229C118.461 83.947 117.051 82.207 117.098 80.397C117.098 78.657 118.414 77.035 120.107 76.683V76.682ZM129.087 76.682C131.391 76.047 133.907 77.975 133.86 80.349C133.977 82.676 131.65 84.698 129.369 84.228C127.23 83.946 125.655 81.595 126.243 79.526C126.572 78.139 127.724 77.01 129.087 76.681V76.682ZM111.785 78.116C113.383 77.834 114.864 79.621 114.23 81.125C113.759 82.747 111.408 83.17 110.374 81.854C109.152 80.608 110.045 78.281 111.785 78.116ZM138.115 78.187C139.525 77.599 141.289 78.822 141.171 80.373C141.218 82.066 139.079 83.241 137.692 82.254C136.117 81.337 136.399 78.728 138.115 78.187V78.187ZM145.497 85.569C144.933 84.535 145.943 83.148 147.095 83.359C147.66 83.359 148.059 83.806 148.435 84.182C148.506 84.793 148.647 85.522 148.13 85.992C147.425 86.862 145.873 86.627 145.497 85.569ZM103.274 83.641C104.356 82.936 105.907 83.994 105.649 85.24C105.531 86.345 104.121 86.98 103.204 86.369C102.216 85.805 102.24 84.159 103.274 83.642V83.641ZM124.527 85.968C125.937 85.357 127.724 86.579 127.606 88.131C127.7 89.847 125.49 91.023 124.103 90.012C122.575 89.119 122.834 86.509 124.527 85.968ZM114.676 88.272C115.875 87.637 117.497 88.742 117.38 90.082C117.427 91.187 116.345 92.127 115.24 91.963C114.347 91.94 113.759 91.14 113.454 90.364C113.501 89.518 113.83 88.577 114.676 88.272V88.272ZM134.636 88.295C135.858 87.543 137.621 88.624 137.504 90.058C137.527 91.563 135.552 92.527 134.4 91.539C133.295 90.763 133.437 88.906 134.636 88.295V88.295ZM138.115 96.852C137.574 96.029 138.209 95.018 139.102 94.83C139.808 94.971 140.583 95.512 140.419 96.335C140.301 97.487 138.656 97.816 138.115 96.852V96.852ZM110.562 96.147C110.774 95.489 111.314 94.83 112.09 94.995C113.219 95.066 113.548 96.782 112.56 97.299C111.667 97.91 110.656 97.087 110.562 96.147ZM123.845 96.899C124.056 95.935 125.326 95.441 126.149 95.959C126.689 96.194 126.854 96.805 126.995 97.323L126.783 98.146C126.454 98.546 126.008 98.945 125.443 98.945C124.409 99.063 123.445 97.887 123.845 96.9V96.899Z" fill="#FFFDFA"/>
<g style="mix-blend-mode:multiply" opacity="0.2">
<path d="M125.5 114.582C148.741 114.582 167.582 95.7412 167.582 72.5C167.582 49.2588 148.741 30.418 125.5 30.418C102.259 30.418 83.418 49.2588 83.418 72.5C83.418 95.7412 102.259 114.582 125.5 114.582Z" stroke="#191326" stroke-width="2.837"/>
</g>
<path d="M167.698 83.0229C161.888 106.327 138.282 120.509 114.973 114.698C91.6737 108.888 77.49 85.2835 83.3029 61.9816C89.1107 38.6752 112.716 24.4919 136.018 30.3017C159.325 36.1114 173.509 59.718 167.698 83.0229Z" fill="black"/>
<g clip-path="url(#clip1)">
<path fill-rule="evenodd" clip-rule="evenodd" d="M132.29 78.1892C131.995 78.2119 130.468 78.3056 127.063 78.3056C124.354 78.3056 122.431 78.2221 121.757 78.1892C111.29 77.716 103.477 75.8434 103.477 73.6013C103.477 71.3592 111.29 69.4892 121.757 69.0084V76.3242C122.441 76.3748 124.401 76.4937 127.11 76.4937C130.36 76.4937 131.987 76.3545 132.28 76.3267V69.0134C142.725 69.4917 150.521 71.3643 150.521 73.6013C150.521 75.8383 142.728 77.7109 132.28 78.1866L132.29 78.1892ZM132.29 68.2568V61.7103H146.867V51.7273H107.18V61.7103H121.754V68.2543C109.908 68.8135 101 71.2251 101 74.115C101 77.0049 109.908 79.4139 121.754 79.9757V100.954H132.288V79.9681C144.106 79.4089 153 76.9998 153 74.1125C153 71.2251 144.114 68.816 132.288 68.2543L132.29 68.2568Z" fill="#00FFB4"/>
</g>
<defs>
<linearGradient id="paint0_linear" x1="124.757" y1="87.774" x2="111.381" y2="138.886" gradientUnits="userSpaceOnUse">
<stop stop-color="#404042"/>
<stop offset="1" stop-color="#48484B"/>
</linearGradient>
<linearGradient id="paint1_linear" x1="65.567" y1="105.096" x2="60.735" y2="123.129" gradientUnits="userSpaceOnUse">
<stop stop-color="#404042"/>
<stop offset="1" stop-color="#48484B"/>
</linearGradient>
<linearGradient id="paint2_linear" x1="92.495" y1="80.169" x2="108.09" y2="164.62" gradientUnits="userSpaceOnUse">
<stop stop-color="#404042"/>
<stop offset="1" stop-color="#48484B"/>
</linearGradient>
<clipPath id="clip0">
<rect width="45" height="43.5" fill="white" transform="translate(53.5 10.875)"/>
</clipPath>
<clipPath id="clip1">
<rect width="52" height="52" fill="white" transform="translate(101 47)"/>
</clipPath>
</defs>
</svg>
