<svg width="186" height="179" viewBox="0 0 186 179" fill="none" xmlns="http://www.w3.org/2000/svg">
<path d="M67.045 119.028C63.867 131.172 82.045 146.449 107.647 153.149C133.249 159.849 156.581 155.436 159.759 143.291C162.937 131.146 144.759 115.87 119.157 109.169C93.555 102.468 70.223 106.883 67.045 119.028V119.028Z" fill="#606063"/>
<path d="M155.924 149.273L171.346 132.988L61.9921 104.369L67.7131 126.187L155.924 149.273Z" fill="#606063"/>
<path d="M68.934 108.293L27.073 97.338C25.258 96.863 23.413 97.992 23.01 99.824L22.542 101.953C22.0928 103.997 22.4362 106.135 23.5028 107.936C24.5694 109.736 26.2797 111.065 28.288 111.653L70.1 123.892L68.934 108.293Z" fill="#606063"/>
<path d="M62.203 98.71C58.509 112.824 80.527 130.811 111.381 138.886C142.235 146.961 170.241 142.064 173.935 127.95C177.629 113.836 155.611 95.849 124.757 87.774C93.903 79.699 65.896 84.595 62.203 98.709V98.71Z" fill="url(#paint0_linear)"/>
<path fill-rule="evenodd" clip-rule="evenodd" d="M146.673 123.286C153.771 128.506 157.919 134.152 158.538 139.157L161.516 138.789C160.744 132.551 155.779 126.258 148.45 120.869C141.061 115.434 131.011 110.721 119.537 107.718C108.063 104.715 96.993 103.901 87.888 105.019C78.859 106.128 71.448 109.182 67.72 114.242L70.135 116.021C73.127 111.961 79.508 109.071 88.254 107.997C96.924 106.933 107.608 107.698 118.777 110.621C129.946 113.544 139.636 118.111 146.673 123.286V123.286Z" fill="#606063"/>
<path fill-rule="evenodd" clip-rule="evenodd" d="M75.734 118.739C67.013 111.615 63.736 104.698 65.105 99.4691C66.474 94.2401 72.719 89.8151 83.811 87.8761C94.618 85.9871 108.889 86.7221 123.997 90.6761C139.105 94.6301 151.908 100.98 160.403 107.921C169.124 115.045 172.401 121.962 171.033 127.191C169.665 132.42 163.419 136.844 152.326 138.784C141.52 140.673 127.248 139.937 112.14 135.984C97.032 132.031 84.23 125.68 75.734 118.739V118.739ZM111.381 138.886C80.527 130.811 58.509 112.824 62.203 98.7101C65.897 84.5961 93.903 79.7001 124.757 87.7751C155.611 95.8501 177.629 113.837 173.935 127.951C170.241 142.065 142.235 146.961 111.381 138.887V138.886Z" fill="#979797"/>
<path fill-rule="evenodd" clip-rule="evenodd" d="M64.167 124.049L59.23 104.926L62.135 104.176L67.072 123.299L64.167 124.049Z" fill="url(#paint1_linear)"/>
<path fill-rule="evenodd" clip-rule="evenodd" d="M62.469 106.189L62.341 105.746L62.139 104.929L61.997 104.389C62.019 104.377 62.027 104.37 62.025 104.362L62.021 104.337L61.901 103.543L61.879 103.352C61.807 102.689 61.783 102.031 61.808 101.378C61.843 100.475 61.974 99.585 62.203 98.71C65.897 84.596 93.903 79.7 124.758 87.774C155.613 95.848 177.63 113.836 173.936 127.95C173.708 128.822 173.385 129.667 172.973 130.469C172.519 131.351 171.971 132.181 171.338 132.945L171.322 132.964C171.333 132.984 171.336 132.989 171.337 132.993L170.726 133.644L157.794 147.299C150.987 156.33 130.198 159.051 107.648 153.149C85.346 147.312 68.677 134.967 66.851 123.854C66.758 123.285 66.367 122.8 65.814 122.639L29.127 111.91C27.1293 111.326 25.4259 110.008 24.3576 108.222C23.2893 106.435 22.9348 104.312 23.365 102.275L23.824 100.103C24.214 98.258 26.066 97.113 27.89 97.589L62.139 106.52C62.1849 106.532 62.2331 106.532 62.279 106.52C62.3249 106.508 62.3667 106.484 62.4003 106.45C62.4338 106.417 62.458 106.375 62.4702 106.329C62.4825 106.283 62.4824 106.235 62.47 106.189H62.469ZM58.812 102.553C58.748 101.009 58.903 99.468 59.3 97.95C61.625 89.065 71.23 83.985 82.778 81.966C94.612 79.897 109.77 80.751 125.516 84.872C141.262 88.993 154.896 95.674 164.199 103.274C173.277 110.691 179.162 119.825 176.837 128.71C176.28 130.839 175.285 132.774 173.936 134.499C173.817 134.703 173.674 134.893 173.511 135.065L160.082 149.246C155.911 154.652 148.056 157.706 138.984 158.802C129.684 159.926 118.467 159.082 106.888 156.051C95.435 153.054 85.34 148.366 77.809 142.91C70.73 137.78 65.488 131.648 64.066 125.253L28.284 114.789C25.5608 113.992 23.2387 112.197 21.7823 109.762C20.326 107.326 19.8426 104.431 20.429 101.655L20.888 99.482C21.632 95.963 25.165 93.778 28.646 94.686L58.811 102.553H58.812Z" fill="url(#paint2_linear)"/>
<g style="mix-blend-mode:multiply" opacity="0.1">
<path d="M76 56.5C91.1878 56.5 103.5 44.1878 103.5 29C103.5 13.8122 91.1878 1.5 76 1.5C60.8122 1.5 48.5 13.8122 48.5 29C48.5 44.1878 60.8122 56.5 76 56.5Z" stroke="#191326" stroke-width="3"/>
</g>
<path d="M105.087 37.8781C101.013 54.2176 84.4621 64.1614 68.119 60.0869C51.7827 56.0134 41.8378 39.4631 45.9135 23.125C49.9857 6.78378 66.5366 -3.16083 82.8747 0.912664C99.2166 4.98616 109.161 21.5379 105.087 37.8781Z" fill="black"/>
<g clip-path="url(#clip0)">
<g clip-path="url(#clip1)">
<path d="M66.7937 26.8819L75.7368 18.0549L84.6841 26.8857L89.8877 21.7497L75.7368 7.78302L61.5905 21.7456L66.7939 26.8815L66.7937 26.8819ZM52.7123 30.5085L57.916 25.3716L63.1194 30.5074L57.9156 35.6436L52.7123 30.5085ZM66.7937 34.1357L75.7368 42.9621L84.6839 34.1315L89.8902 39.2647L89.8877 39.2675L75.7368 53.234L61.5905 39.2715L61.5832 39.2642L66.7943 34.1351L66.7937 34.1357ZM88.3542 30.5107L93.5579 25.3746L98.7613 30.5103L93.5578 35.6465L88.3542 30.5107Z" fill="#00FFB4"/>
<path d="M81.0136 30.5042H81.0158L75.7359 25.2927L71.8333 29.1434L71.3849 29.5861L70.4602 30.4989L70.4529 30.506L70.4602 30.5134L75.7359 35.7211L81.0161 30.5096L81.0187 30.5067L81.0139 30.5042" fill="#00FFB4"/>
</g>
</g>
<path d="M75.5 61C92.3447 61 106 47.3447 106 30.5C106 13.6553 92.3447 0 75.5 0C58.6553 0 45 13.6553 45 30.5C45 47.3447 58.6553 61 75.5 61Z" fill="url(#paint3_linear)"/>
<path fill-rule="evenodd" clip-rule="evenodd" d="M54.6499 30.3362C54.6446 30.4501 54.6421 30.5644 54.6421 30.6791C54.6421 31.1127 54.6798 31.5407 54.7534 31.9625H54.6421V32.6261C54.6421 32.9502 54.6631 33.2712 54.7045 33.5887C55.5121 39.7845 64.0489 44.6597 74.4611 44.6597C84.8734 44.6597 93.4103 39.7845 94.2179 33.5887C94.2592 33.2712 94.2803 32.9502 94.2803 32.6261V31.9625H94.1689C94.2425 31.5407 94.2803 31.1127 94.2803 30.6791C94.2803 30.5644 94.2777 30.4501 94.2724 30.3362C93.9734 23.8489 85.218 18.6455 74.4611 18.6455C63.7043 18.6455 54.9489 23.8489 54.6499 30.3362ZM53.0222 30.3362C53.1697 26.3781 55.8594 23.0531 59.6029 20.7801C63.4837 18.4239 68.7408 17.0193 74.4611 17.0193C80.1816 17.0193 85.4387 18.4239 89.3194 20.7801C93.063 23.0531 95.7527 26.3781 95.9002 30.3362H95.9065V32.6261C95.9065 36.7352 93.1706 40.1868 89.3194 42.5252C85.4387 44.8814 80.1816 46.2859 74.4611 46.2859C68.7408 46.2859 63.4837 44.8814 59.6029 42.5252C55.7518 40.1868 53.0159 36.7352 53.0159 32.6261V30.3362H53.0222Z" fill="#606063"/>
<path d="M94.2819 32.626C94.2819 39.272 85.4086 44.6595 74.4628 44.6595C63.517 44.6595 54.6437 39.272 54.6437 32.626V30.7211H94.2819V32.626Z" fill="#BEBEBE"/>
<path d="M94.2819 30.6792C94.2819 37.3252 85.4086 42.7127 74.4628 42.7127C63.517 42.7127 54.6437 37.3252 54.6437 30.6792C54.6437 24.0333 63.517 18.6456 74.4628 18.6456C85.4086 18.6456 94.2819 24.0333 94.2819 30.6792Z" fill="#FAF9FA"/>
<g style="mix-blend-mode:multiply" opacity="0.2">
<g style="mix-blend-mode:multiply" opacity="0.2">
<path fill-rule="evenodd" clip-rule="evenodd" d="M75.5 59.0108C91.2462 59.0108 104.011 46.2462 104.011 30.5C104.011 14.7539 91.2462 1.98916 75.5 1.98916C59.7539 1.98916 46.9892 14.7539 46.9892 30.5C46.9892 46.2462 59.7539 59.0108 75.5 59.0108ZM75.5 61C92.3448 61 106 47.3447 106 30.5C106 13.6554 92.3448 0 75.5 0C58.6554 0 45 13.6554 45 30.5C45 47.3447 58.6554 61 75.5 61Z" fill="#191326"/>
</g>
</g>
<g clip-path="url(#clip2)">
<path d="M87.6374 33.2292L91.0911 25.3361C91.0911 25.3361 91.1532 23.2142 90.6911 21.9585C90.2553 20.7746 89.9897 20.258 88.9342 19.2215C87.8788 18.1851 86.8333 17.6639 85.3268 16.957C83.3421 16.0257 81.8132 15.5721 79.9862 15.2493C78.1593 14.9265 74.5059 14.356 71.1165 14.6667C67.215 15.0243 64.8053 15.4262 61.5671 17.5261C60.0028 18.5406 59.1188 19.2007 58.0088 20.6817C56.1625 23.1452 54.8435 25.9458 54.2861 28.4175C53.9182 30.0489 54.3032 30.7771 54.7494 32.4097C55.1956 34.0422 58.1848 38.1659 60.0838 39.4136C61.328 40.2309 65.996 43.0376 69.1717 43.4531C70.6987 43.653 73.8623 43.1056 76.2584 41.5921C77.6205 40.7316 79.4489 38.8086 81.6341 37.1971C83.8926 35.5313 87.6374 33.2292 87.6374 33.2292Z" fill="#F8ECE1"/>
<path d="M79.7842 32.4221C81.2841 31.753 85.2248 29.922 85.2248 29.922L84.7846 30.8367C84.4314 31.5708 83.5775 32.0186 83.0668 32.3467C81.5073 33.3487 80.557 33.9206 80.0504 34.3166C79.5438 34.7126 76.8013 37.2176 76.8013 37.2176C76.8013 37.2176 77.27 35.8854 77.6558 34.8749C78.0415 33.8644 78.7779 32.8709 79.7842 32.4221Z" fill="#691806"/>
<path d="M57.7079 28.4188C57.7079 28.4188 57.8627 29.5363 58.5193 30.8817C59.1848 32.245 59.3706 32.3066 60.5708 33.6631C61.7711 35.0196 63.1741 34.9993 64.1645 35.0309C65.1548 35.0624 63.4227 35.3835 62.6629 35.4348C61.9082 35.4858 61.6891 35.7868 61.6891 35.7868C61.6891 35.7868 61.5656 35.8943 61.6785 36.2268C61.7914 36.5593 61.9673 36.8804 61.9673 36.8804C61.9673 36.8804 61.5633 37.2423 60.1686 35.7227C58.3306 33.7202 57.703 32.1718 57.5862 31.6566C57.1756 29.8456 57.7079 28.4188 57.7079 28.4188Z" fill="#691806"/>
<path fill-rule="evenodd" clip-rule="evenodd" d="M91.0911 25.3361C91.0357 26.1676 88.6783 32.2377 87.6374 33.2292C87.0918 33.7488 86.0893 34.3563 84.9335 35.0566C83.8841 35.6922 82.7088 36.4045 81.6341 37.1971C80.5666 37.9844 79.584 38.846 78.6996 39.6218C77.7736 40.4339 76.9551 41.1521 76.2584 41.5921C73.8623 43.1056 70.6987 43.653 69.1717 43.4531C65.996 43.0376 61.328 40.2309 60.0838 39.4136C58.1848 38.1659 55.1956 34.0422 54.7494 32.4097C54.6747 32.1362 54.6017 31.8882 54.5337 31.6569C54.1954 30.5077 53.9798 29.7756 54.2861 28.4175C54.8435 25.9458 56.1625 23.1452 58.0088 20.6817C59.1188 19.2007 60.0028 18.5406 61.5671 17.5261C64.8053 15.4262 67.215 15.0243 71.1165 14.6667C74.5059 14.356 78.1593 14.9265 79.9862 15.2493C81.8132 15.5721 83.3421 16.0257 85.3268 16.957C86.8333 17.6639 87.8788 18.1851 88.9342 19.2215C89.9897 20.258 90.2553 20.7746 90.6911 21.9585C91.1532 23.2142 91.1465 24.5046 91.0911 25.3361ZM88.0205 22.5232C88.3448 23.2223 88.2777 24.4661 87.5756 25.9253C86.557 28.0419 83.6872 29.1931 81.8925 29.913C81.3605 30.1266 80.9227 30.302 80.6561 30.4537C79.4897 31.1163 78.1409 32.2475 77.6469 32.886C77.2517 33.3968 76.61 34.2647 76.61 34.2647C76.61 34.2647 78.477 32.7014 78.707 32.5339C80.2939 31.3782 83.512 30.3398 83.512 30.3398L86.005 29.189C86.005 29.189 85.5262 31.0268 84.8474 31.5944C84.4552 31.9222 83.7548 32.3892 82.955 32.9221C82.3703 33.3121 81.7322 33.7374 81.1232 34.1695C79.8187 35.0946 78.6929 36.1463 77.6526 37.1177C76.3005 38.3806 75.0933 39.5082 73.8274 40.0468C71.9212 40.8577 70.3223 40.8282 68.2627 40.387C65.9187 39.8849 61.1443 37.2396 59.3817 35.3204C57.6423 33.4266 56.8083 31.31 57.1472 29.5538C57.4861 27.7975 57.8988 26.5816 57.8988 26.5816C57.8988 26.5816 57.9813 28.9474 58.7811 30.539C59.5002 31.9699 60.1861 32.7717 61.1919 33.6185C62.2011 34.4679 64.3013 34.9479 64.3013 34.9479C64.3013 34.9479 62.436 33.6961 61.6104 32.7489C60.6601 31.6585 60.4391 31.3054 59.9328 29.9666C59.1822 27.9822 59.0967 26.6296 59.187 25.5464C59.2931 24.2732 59.7705 23.012 60.5895 22.0349C61.7716 20.6247 63.0284 19.8168 64.7465 19.0979C66.1674 18.5034 68.666 18.0249 71.046 17.6787C73.512 17.32 75.6761 17.4896 76.7671 17.5806C79.0777 17.7733 81.9567 18.3782 83.0712 18.7784C84.5978 19.3265 85.8139 19.9978 86.2904 20.3276C87.3468 21.0589 87.6607 21.7414 87.9649 22.4029C87.9835 22.4431 88.0018 22.4831 88.0205 22.5232Z" fill="#621706"/>
<path d="M63.7146 23.4096C63.7536 22.5209 64.3841 21.2422 64.3841 21.2422C64.3841 21.2422 64.3994 22.3863 64.4886 23.1145C64.5611 23.7062 64.7554 24.6198 64.7554 24.6198C64.7554 24.6198 66.5849 23.1473 67.4822 21.9682C68.0876 21.1727 68.8187 19.7879 68.8187 19.7879C68.8187 19.7879 68.3991 21.3061 67.9021 22.1702C67.2705 23.2685 66.6898 23.7473 65.762 24.6175C65.1491 25.1923 64.7469 25.4508 64.0978 25.9863C63.4537 26.5177 62.988 26.7142 62.4507 27.3495C61.6905 28.248 61.1464 30.0598 61.1464 30.0598C61.1464 30.0598 62.2931 32.1636 63.4421 33.1396C64.2003 33.7838 64.7317 34.0139 65.6086 34.4882C66.2888 34.8561 67.3931 35.3469 67.3931 35.3469C67.3931 35.3469 67.6015 34.5125 67.6418 33.9645C67.715 32.97 67.7032 32.3601 67.3456 31.4158C67.1377 30.8666 66.618 30.0921 66.618 30.0921C66.618 30.0921 67.0433 30.2667 67.2945 30.4176C67.6874 30.6537 67.7765 30.9878 68.2013 31.16C68.6241 31.3314 69.3604 31.2588 69.3604 31.2588L68.3254 31.8873C68.3254 31.8873 68.705 32.9962 68.7742 33.7306C68.8451 34.4824 68.6673 35.6541 68.6673 35.6541C68.6673 35.6541 69.9041 35.9486 70.7064 35.9539C71.6532 35.96 72.2166 35.9101 73.0887 35.5704C74.5112 35.0164 74.8858 34.0392 75.9789 32.9973C77.0867 31.9413 77.4493 31.0646 78.7189 30.199C79.7749 29.479 81.6999 28.8101 81.6999 28.8101C81.6999 28.8101 79.991 28.3864 79.2506 27.6314C78.9318 27.3063 78.5683 26.6911 78.5683 26.6911C78.5683 26.6911 78.1256 28.665 77.226 29.4805C76.6072 30.0416 76.1104 30.2049 75.3163 30.4662L75.2809 30.4778C74.5861 30.7064 73.4326 30.8262 73.4326 30.8262C73.4326 30.8262 74.638 30.516 75.2814 30.0886C75.8976 29.6794 76.1895 29.3542 76.613 28.7544C77.2251 27.8874 77.2754 27.2336 77.5886 26.2197C77.9319 25.1081 78.2546 23.3134 78.2546 23.3134C78.2546 23.3134 77.5513 22.905 77.1356 22.5941C76.7285 22.2896 76.1509 21.7447 76.1509 21.7447C76.1509 21.7447 75.1012 21.9297 74.4208 21.997C73.4192 22.096 72.8198 21.8626 71.8401 22.0764C71.1708 22.2224 70.194 22.6612 70.194 22.6612C70.194 22.6612 70.8656 21.8969 71.4356 21.6035C72.3674 21.1239 73.1082 21.5699 74.1374 21.3321C74.8113 21.1764 75.8192 20.7923 75.8192 20.7923C75.8192 20.7923 75.5739 20.1537 75.5131 19.7271C75.4395 19.2099 75.5504 18.3959 75.5504 18.3959L74.836 18.3581C74.836 18.3581 71.1779 18.5042 68.9115 18.9981C66.8903 19.4385 65.6475 19.5718 63.8832 20.6117C62.7478 21.2809 62.0013 21.6396 61.2617 22.716C60.6577 23.595 60.4503 24.2108 60.2923 25.2677C60.1016 26.5438 60.6558 28.572 60.6558 28.572C60.6558 28.572 61.4856 27.4568 62.0842 26.7976C62.7572 26.0565 63.9324 25.0166 63.9324 25.0166C63.9324 25.0166 63.687 24.0394 63.7146 23.4096Z" fill="#B32D2D"/>
<path d="M81.0055 20.4924C82.1919 19.9638 84.358 20.242 84.358 20.242C84.358 20.242 82.1618 19.2445 80.6726 18.8857C78.9382 18.4678 76.1382 18.4282 76.1382 18.4282C76.1382 18.4282 76.2301 19.8601 76.6891 20.6266C77.2446 21.5545 78.8612 22.3812 78.8612 22.3812C78.8612 22.3812 79.9775 20.9504 81.0055 20.4924Z" fill="#B32D2D"/>
<path d="M84.833 25.2549C85.7786 25.2002 87.1373 24.5557 87.1373 24.5557C87.1373 24.5557 86.4702 26.2872 85.602 27.0297C84.688 27.8115 83.9528 28.2229 82.7243 28.204C81.6543 28.1876 80.9495 27.9488 80.1429 27.24C79.4251 26.6092 78.9838 26.0717 78.9275 25.1391C78.8744 24.2613 79.2144 23.7451 79.7665 23.0671C80.1586 22.5858 80.4687 22.3807 81.0096 22.0659C82.0681 21.4499 82.845 21.289 84.0898 21.3367C85.0949 21.3752 86.2948 21.6798 86.5932 21.9851L86.6073 21.9995C86.8957 22.2943 87.0185 22.42 86.9692 22.8754C86.9198 23.329 85.9102 23.8516 85.0793 24.2816L85.0306 24.3069C84.2783 24.6965 82.9742 25.028 82.9742 25.028C82.9742 25.028 84.106 25.2969 84.833 25.2549Z" fill="#B32D2D"/>
<path d="M68.3038 25.554C68.7555 24.8735 69.1184 24.5237 69.8397 24.1235C70.506 23.7538 71.9974 23.6994 72.4163 23.6944C72.8353 23.6894 74.4301 24.5244 74.749 24.8169C75.1589 25.193 75.2114 25.9573 75.0951 26.4856C74.9982 26.9258 74.5243 27.9494 74.2473 28.2474C73.8408 28.6847 73.5474 28.8856 73.0072 29.1527C72.1059 29.5984 71.4611 29.7507 70.4485 29.6043C69.6589 29.4901 69.1364 29.373 68.5514 28.8304C67.9806 28.301 67.6616 27.8275 67.6618 27.0671C67.662 26.4215 67.9486 26.0891 68.3038 25.554Z" fill="#F8ECE1"/>
<path fill-rule="evenodd" clip-rule="evenodd" d="M69.8397 24.1235C69.1184 24.5237 68.7555 24.8735 68.3038 25.5541C68.2606 25.6191 68.2184 25.6812 68.1776 25.7412C67.8831 26.1746 67.662 26.5 67.6618 27.0671C67.6616 27.8275 67.9806 28.301 68.5514 28.8304C69.1364 29.373 69.6589 29.4901 70.4485 29.6043C71.4611 29.7507 72.1059 29.5984 73.0072 29.1527C73.5474 28.8856 73.8408 28.6847 74.2473 28.2474C74.5243 27.9494 74.9982 26.9258 75.0951 26.4856C75.2114 25.9573 75.1589 25.193 74.749 24.8169C74.4301 24.5244 72.8353 23.6894 72.4163 23.6944C71.9974 23.6994 70.506 23.7538 69.8397 24.1235ZM70.119 24.1632C69.5227 24.4226 69.2321 24.6662 68.8856 25.1559C68.8525 25.2027 68.8201 25.2473 68.7887 25.2905C68.5622 25.6019 68.3921 25.8357 68.4276 26.2674C68.4751 26.8463 68.7795 27.2267 69.3044 27.6655C69.8424 28.1153 70.2998 28.2372 70.9872 28.3736C71.8686 28.5486 72.4144 28.4731 73.1629 28.1904C73.6115 28.0209 73.8516 27.8864 74.1743 27.579C74.3942 27.3695 74.7383 26.62 74.7941 26.291C74.8612 25.8962 74.768 25.311 74.3913 24.9991C74.0983 24.7564 72.6721 24.0207 72.3115 23.9982C71.9509 23.9757 70.6697 23.9236 70.119 24.1632Z" fill="#621706"/>
<path d="M70.4438 25.6834C70.5946 25.4707 70.7212 25.365 70.9814 25.2528C71.2216 25.1491 71.7813 25.1731 71.9388 25.1833C72.0963 25.1935 72.7199 25.515 72.8481 25.6209C73.0129 25.757 73.0543 26.0117 73.0254 26.1834C73.0013 26.3265 72.8519 26.6522 72.7561 26.7431C72.6154 26.8765 72.5107 26.9348 72.315 27.008C71.9884 27.1303 71.7501 27.1625 71.365 27.0855C71.0646 27.0254 70.8647 26.9719 70.6293 26.7757C70.3996 26.5842 70.2663 26.4184 70.2449 26.1665C70.2268 25.9526 70.3252 25.8506 70.4438 25.6834Z" fill="#621706"/>
</g>
<path d="M125.5 116C149.524 116 169 96.5244 169 72.5C169 48.4756 149.524 29 125.5 29C101.476 29 82 48.4756 82 72.5C82 96.5244 101.476 116 125.5 116Z" fill="#0033AD"/>
<path d="M124.785 46.379C126.031 45.721 127.536 47.225 126.877 48.471C126.501 49.482 125.044 49.764 124.291 48.988C123.516 48.259 123.774 46.778 124.785 46.379ZM111.408 47.836C112.161 47.53 113.125 48.212 113.054 49.035C113.125 49.928 112.043 50.587 111.267 50.163C110.233 49.763 110.35 48.094 111.408 47.835V47.836ZM138.797 50.187C137.621 50.046 137.433 48.189 138.562 47.813C139.455 47.39 140.254 48.189 140.372 49.036C140.207 49.741 139.619 50.399 138.797 50.188V50.187ZM114.441 53.525C115.711 52.726 117.497 53.925 117.309 55.382C117.239 56.863 115.287 57.733 114.159 56.722C113.101 55.923 113.266 54.112 114.441 53.525V53.525ZM133.742 54.371C134.306 52.913 136.587 52.866 137.222 54.277C137.856 55.382 137.08 56.745 135.952 57.122C134.447 57.404 133.037 55.782 133.742 54.371V54.371ZM123.163 57.028C123.14 55.782 124.291 54.842 125.467 54.771C126.243 54.935 127.113 55.265 127.442 56.064C128.076 57.169 127.512 58.673 126.384 59.167C125.867 59.449 125.255 59.355 124.691 59.308C123.821 58.885 123.092 58.062 123.163 57.028V57.028ZM103.274 58.862C104.426 58.157 105.978 59.45 105.555 60.696C105.32 61.777 103.862 62.224 103.016 61.519C102.122 60.884 102.263 59.309 103.274 58.862ZM145.99 58.862C146.978 58.11 148.576 58.979 148.459 60.202C148.529 61.33 147.119 62.177 146.155 61.589C145.097 61.119 145.003 59.473 145.99 58.862V58.862ZM128.758 61.095C130.38 60.507 132.285 61.213 133.201 62.647C134.424 64.41 133.766 67.09 131.885 68.101C129.934 69.3 127.089 68.289 126.36 66.103C125.561 64.152 126.76 61.707 128.758 61.096V61.095ZM119.284 61.283C121.071 60.437 123.492 61.142 124.338 62.976C125.349 64.763 124.574 67.231 122.74 68.171C120.93 69.205 118.344 68.43 117.474 66.502C116.51 64.645 117.38 62.153 119.284 61.283ZM109.786 64.527C109.927 63.375 111.009 62.623 112.114 62.552C113.289 62.693 114.253 63.61 114.371 64.809C114.3 65.984 113.383 67.16 112.114 67.136C110.75 67.277 109.528 65.89 109.786 64.527ZM137.833 62.811C139.243 61.988 141.218 63.187 141.148 64.809C141.242 66.525 139.055 67.748 137.645 66.737C136.187 65.891 136.305 63.516 137.833 62.811V62.811ZM115.428 68.9C117.098 68.453 118.978 69.229 119.801 70.757C120.695 72.285 120.318 74.424 118.955 75.553C117.168 77.199 113.9 76.54 112.96 74.284C111.855 72.192 113.172 69.441 115.428 68.9ZM133.413 68.877C135.035 68.407 136.916 69.042 137.786 70.499C138.938 72.168 138.373 74.684 136.681 75.765C134.894 77.034 132.12 76.353 131.133 74.401C129.934 72.379 131.133 69.511 133.413 68.876V68.877ZM104.755 70.805C106.189 70.264 107.788 71.839 107.2 73.273C106.848 74.566 105.014 75.036 104.074 74.096C102.969 73.179 103.392 71.181 104.755 70.805V70.805ZM143.616 72.85C143.569 71.651 144.439 70.617 145.661 70.546C146.649 70.711 147.589 71.486 147.519 72.568C147.613 73.979 145.896 74.942 144.697 74.284C144.133 74.002 143.851 73.414 143.616 72.85ZM97.7021 71.486C98.5721 71.11 99.6301 71.862 99.4421 72.826C99.3951 73.907 97.7961 74.331 97.2091 73.414C96.6921 72.779 96.9971 71.815 97.7031 71.486H97.7021ZM152.079 71.463C152.691 71.04 153.654 71.345 153.89 72.051C154.289 72.827 153.56 73.885 152.667 73.767C151.468 73.885 151.068 72.004 152.079 71.463V71.463ZM120.107 76.682C122.387 76.094 124.809 77.975 124.832 80.326C124.973 82.677 122.575 84.769 120.248 84.229C118.461 83.947 117.051 82.207 117.098 80.397C117.098 78.657 118.414 77.035 120.107 76.683V76.682ZM129.087 76.682C131.391 76.047 133.907 77.975 133.86 80.349C133.977 82.676 131.65 84.698 129.369 84.228C127.23 83.946 125.655 81.595 126.243 79.526C126.572 78.139 127.724 77.01 129.087 76.681V76.682ZM111.785 78.116C113.383 77.834 114.864 79.621 114.23 81.125C113.759 82.747 111.408 83.17 110.374 81.854C109.152 80.608 110.045 78.281 111.785 78.116ZM138.115 78.187C139.525 77.599 141.289 78.822 141.171 80.373C141.218 82.066 139.079 83.241 137.692 82.254C136.117 81.337 136.399 78.728 138.115 78.187V78.187ZM145.497 85.569C144.933 84.535 145.943 83.148 147.095 83.359C147.66 83.359 148.059 83.806 148.435 84.182C148.506 84.793 148.647 85.522 148.13 85.992C147.425 86.862 145.873 86.627 145.497 85.569ZM103.274 83.641C104.356 82.936 105.907 83.994 105.649 85.24C105.531 86.345 104.121 86.98 103.204 86.369C102.216 85.805 102.24 84.159 103.274 83.642V83.641ZM124.527 85.968C125.937 85.357 127.724 86.579 127.606 88.131C127.7 89.847 125.49 91.023 124.103 90.012C122.575 89.119 122.834 86.509 124.527 85.968ZM114.676 88.272C115.875 87.637 117.497 88.742 117.38 90.082C117.427 91.187 116.345 92.127 115.24 91.963C114.347 91.94 113.759 91.14 113.454 90.364C113.501 89.518 113.83 88.577 114.676 88.272V88.272ZM134.636 88.295C135.858 87.543 137.621 88.624 137.504 90.058C137.527 91.563 135.552 92.527 134.4 91.539C133.295 90.763 133.437 88.906 134.636 88.295V88.295ZM138.115 96.852C137.574 96.029 138.209 95.018 139.102 94.83C139.808 94.971 140.583 95.512 140.419 96.335C140.301 97.487 138.656 97.816 138.115 96.852V96.852ZM110.562 96.147C110.774 95.489 111.314 94.83 112.09 94.995C113.219 95.066 113.548 96.782 112.56 97.299C111.667 97.91 110.656 97.087 110.562 96.147ZM123.845 96.899C124.056 95.935 125.326 95.441 126.149 95.959C126.689 96.194 126.854 96.805 126.995 97.323L126.783 98.146C126.454 98.546 126.008 98.945 125.443 98.945C124.409 99.063 123.445 97.887 123.845 96.9V96.899Z" fill="#FFFDFA"/>
<g style="mix-blend-mode:multiply" opacity="0.2">
<path d="M125.5 114.582C148.741 114.582 167.582 95.7412 167.582 72.5C167.582 49.2587 148.741 30.418 125.5 30.418C102.259 30.418 83.418 49.2587 83.418 72.5C83.418 95.7412 102.259 114.582 125.5 114.582Z" stroke="#191326" stroke-width="2.837"/>
</g>
<path d="M167.683 83.6438C161.806 107.215 137.929 121.561 114.352 115.683C90.7849 109.806 76.4382 85.9304 82.3179 62.3607C88.1924 38.7864 112.069 24.4401 135.639 30.3166C159.214 36.1931 173.561 60.0711 167.683 83.6438Z" fill="black"/>
<g clip-path="url(#clip3)">
<path fill-rule="evenodd" clip-rule="evenodd" d="M133.369 80.4857C132.979 80.5158 130.96 80.6396 126.458 80.6396C122.877 80.6396 120.335 80.5292 119.443 80.4857C105.604 79.86 95.2749 77.3842 95.2749 74.42C95.2749 71.4557 105.604 68.9833 119.443 68.3476V78.0199C120.348 78.0868 122.939 78.2441 126.52 78.2441C130.817 78.2441 132.969 78.0601 133.356 78.0233V68.3543C147.165 68.9866 157.472 71.4624 157.472 74.42C157.472 77.3775 147.169 79.8533 133.356 80.4823L133.369 80.4857ZM133.369 67.3539V58.6987H152.641V45.5H100.171V58.6987H119.439V67.3506C103.778 68.09 92 71.2784 92 75.0991C92 78.9199 103.778 82.105 119.439 82.8477V110.583H133.366V82.8377C148.992 82.0983 160.75 78.9132 160.75 75.0958C160.75 71.2784 149.001 68.0933 133.366 67.3506L133.369 67.3539Z" fill="#00FFB4"/>
</g>
<defs>
<linearGradient id="paint0_linear" x1="124.757" y1="87.774" x2="111.381" y2="138.886" gradientUnits="userSpaceOnUse">
<stop stop-color="#404042"/>
<stop offset="1" stop-color="#48484B"/>
</linearGradient>
<linearGradient id="paint1_linear" x1="65.567" y1="105.096" x2="60.735" y2="123.129" gradientUnits="userSpaceOnUse">
<stop stop-color="#404042"/>
<stop offset="1" stop-color="#48484B"/>
</linearGradient>
<linearGradient id="paint2_linear" x1="92.495" y1="80.169" x2="108.09" y2="164.62" gradientUnits="userSpaceOnUse">
<stop stop-color="#404042"/>
<stop offset="1" stop-color="#48484B"/>
</linearGradient>
<linearGradient id="paint3_linear" x1="75.5" y1="0" x2="75.5" y2="61" gradientUnits="userSpaceOnUse">
<stop stop-color="#54DADE"/>
<stop offset="0.762157" stop-color="#24C7D6"/>
</linearGradient>
<clipPath id="clip0">
<rect width="47.6562" height="47.6562" fill="white" transform="translate(52.625 7.625)"/>
</clipPath>
<clipPath id="clip1">
<rect width="48.9271" height="48.2917" fill="white" transform="translate(52.625 5.08331)"/>
</clipPath>
<clipPath id="clip2">
<rect width="36.4233" height="34.9664" fill="white" transform="translate(63.3027 4.43488) rotate(25.6982)"/>
</clipPath>
<clipPath id="clip3">
<rect width="68.75" height="68.75" fill="white" transform="translate(92 40)"/>
</clipPath>
</defs>
</svg>
