<svg width="209" height="221" viewBox="0 0 209 221" fill="none" xmlns="http://www.w3.org/2000/svg">
<path d="M214.414 58.0225C216.27 59.9281 216.526 62.9272 215.021 65.1352C187.478 105.535 153.419 140.811 114.312 169.443L111.224 171.704C108.959 173.363 105.859 173.098 103.892 171.079L89.9893 156.806C98.1963 148.082 98.1063 134.178 89.7189 125.568C81.3313 116.957 67.7888 116.865 59.2907 125.29L46.5025 112.162C44.0706 109.665 44.4061 105.524 47.2062 103.474L50.2964 101.211C88.4577 73.2709 121.693 38.8477 148.57 -0.575312C150.453 -3.33651 154.308 -3.68331 156.629 -1.29981L169.645 12.0619C161.469 20.7883 161.569 34.6675 169.946 43.2673C178.323 51.8671 191.842 51.9703 200.342 43.5763L214.414 58.0225Z" fill="#112A46" fill-opacity="0.2"/>
<path d="M220.575 61.9775L170.871 126.59L106.584 176.548L94.2212 163.764L89.7607 158.213L94.2212 151.587L95.7843 144.961L94.9236 137.894L92.3422 131.268L88.0395 125.967L82.8762 122.433L77.2828 120.666H70.3986L63.084 123.317L58.7813 127.292L48.4551 114.483L65.2532 111.911C117.355 103.933 166.584 82.3361 208.211 49.1936L220.575 61.9775Z" fill="#A28BD4" fill-opacity="0.2"/>
<path fill-rule="evenodd" clip-rule="evenodd" d="M83.7155 157.438C83.7176 155.561 84.4467 153.762 85.7421 152.437L85.7652 152.414C91.5553 146.47 91.5553 136.832 85.7652 130.888C79.9751 124.944 70.5875 124.944 64.7974 130.888L64.7746 130.912C63.4844 132.241 61.732 132.99 59.9038 132.992C58.0754 132.994 56.3215 132.249 55.0287 130.922L41.6344 117.172C36.1929 111.585 36.9433 102.319 43.2086 97.7319L46.2988 95.4693L50.2961 101.224L47.2059 103.486C44.4058 105.536 44.0704 109.677 46.5022 112.174L59.8965 125.925L59.9295 125.89C59.9401 125.88 59.9506 125.869 59.9614 125.858C68.4423 117.186 82.165 117.197 90.633 125.89C99.1005 134.583 99.1116 148.67 90.6666 157.377C90.6555 157.388 90.6441 157.4 90.633 157.411L90.5997 157.445L103.892 171.091C105.859 173.11 108.959 173.375 111.224 171.717L114.312 169.456C153.419 140.823 187.477 105.547 215.02 65.1474C216.526 62.9394 216.27 59.9403 214.413 58.0347L200.451 43.701C200.401 43.7541 200.35 43.8069 200.298 43.8597C200.247 43.9122 200.195 43.9647 200.144 44.0169C191.653 52.5633 178.022 52.5111 169.595 43.8597C161.168 35.208 161.117 21.2136 169.442 12.4974C169.493 12.4443 169.544 12.3915 169.595 12.339C169.646 12.2862 169.698 12.234 169.75 12.1818L156.629 -1.2876C154.308 -3.6711 150.453 -3.3243 148.57 -0.563097C121.693 38.8599 88.4574 73.2831 50.2961 101.224L46.2988 95.4693C83.8222 67.9962 116.502 34.1484 142.93 -4.6155C147.267 -10.9776 156.149 -11.7762 161.497 -6.2853L174.617 7.1844C175.917 8.5182 176.643 10.3299 176.634 12.2163C176.625 14.1027 175.882 15.9072 174.569 17.2281C174.534 17.2638 174.498 17.3001 174.463 17.3364C168.673 23.2806 168.673 32.9178 174.463 38.862C180.253 44.8062 189.641 44.8062 195.431 38.862C195.466 38.826 195.501 38.7894 195.536 38.7525C196.822 37.4058 198.58 36.6426 200.418 36.6336C202.255 36.6243 204.02 37.3695 205.319 38.7033L219.281 53.037C223.5 57.3678 224.081 64.1823 220.66 69.2001C192.668 110.259 158.054 146.11 118.309 175.21L115.221 177.471C110.218 181.134 103.369 180.549 99.0239 176.088L85.7319 162.443C84.4391 161.115 83.7138 159.315 83.7155 157.438Z" fill="#633001" fill-opacity="0.2"/>
<path fill-rule="evenodd" clip-rule="evenodd" d="M130.47 23.3851L133.512 26.5084C134.856 27.8884 134.856 30.1258 133.512 31.5058C132.168 32.8861 129.988 32.8861 128.644 31.5058L125.602 28.3825C124.258 27.0025 124.258 24.7651 125.602 23.3851C126.946 22.0051 129.126 22.0051 130.47 23.3851Z" fill="#633001" fill-opacity="0.2"/>
<path fill-rule="evenodd" clip-rule="evenodd" d="M143.247 36.5169L146.29 39.6402C147.634 41.0202 147.634 43.2576 146.29 44.6379C144.945 46.0179 142.766 46.0179 141.422 44.6379L138.379 41.5143C137.035 40.1343 137.035 37.8969 138.379 36.5169C139.723 35.1369 141.903 35.1369 143.247 36.5169Z" fill="#633001" fill-opacity="0.2"/>
<path fill-rule="evenodd" clip-rule="evenodd" d="M159.068 57.7516C157.724 59.1316 155.544 59.1316 154.2 57.7516L150.549 54.0034C149.205 52.6234 149.205 50.3859 150.549 49.0059C151.893 47.6259 154.073 47.6259 155.417 49.0059L159.068 52.7539C160.412 54.1339 160.412 56.3716 159.068 57.7516Z" fill="#633001" fill-opacity="0.2"/>
<path fill-rule="evenodd" clip-rule="evenodd" d="M171.847 70.8702C170.503 72.2502 168.324 72.2502 166.979 70.8702L163.329 67.122C161.984 65.742 161.984 63.5046 163.329 62.1246C164.673 60.7446 166.852 60.7446 168.196 62.1246L171.847 65.8725C173.192 67.2525 173.192 69.4902 171.847 70.8702Z" fill="#633001" fill-opacity="0.2"/>
<path fill-rule="evenodd" clip-rule="evenodd" d="M180.974 75.255L184.016 78.3786C185.36 79.7586 185.36 81.996 184.016 83.376C182.672 84.756 180.493 84.756 179.148 83.376L176.106 80.2527C174.762 78.8727 174.762 76.635 176.106 75.255C177.45 73.875 179.63 73.875 180.974 75.255Z" fill="#633001" fill-opacity="0.2"/>
<path fill-rule="evenodd" clip-rule="evenodd" d="M193.753 88.3668L196.795 91.4904C198.14 92.8704 198.14 95.1078 196.795 96.4878C195.451 97.8678 193.272 97.8678 191.927 96.4878L188.885 93.3645C187.541 91.9845 187.541 89.7468 188.885 88.3668C190.229 86.9868 192.409 86.9868 193.753 88.3668Z" fill="#633001" fill-opacity="0.2"/>
<path d="M91.7671 92.5745L92.401 74.7112C92.401 74.7112 94.1643 70.6884 96.1252 68.7567C97.9741 66.9355 98.9197 66.2086 101.778 65.2205C104.635 64.2324 107.019 64.1987 110.415 64.2324C114.888 64.2769 118.101 64.8045 121.746 65.8445C125.391 66.8846 132.613 69.1049 138.571 72.735C145.429 76.9137 149.504 79.8329 153.6 86.6721C155.579 89.9759 156.62 92.0054 157.351 95.7728C158.566 102.039 158.513 108.462 157.351 113.584C156.584 116.965 155.231 117.98 152.966 120.631C150.701 123.281 141.556 128.301 136.96 128.925C133.949 129.334 122.882 130.381 116.675 128.301C113.69 127.301 108.357 123.432 105.291 118.446C103.547 115.612 101.887 110.372 99.2948 105.393C96.616 100.247 91.7671 92.5745 91.7671 92.5745Z" fill="#F8ECE1" fill-opacity="0.2"/>
<path d="M106.922 98.1307C104.756 95.5305 99.13 88.562 99.13 88.562V90.6682C99.13 92.3583 100.304 93.9638 100.953 95.0365C102.933 98.3127 104.175 100.237 104.756 101.433C105.337 102.629 108.163 109.78 108.163 109.78C108.163 109.78 108.48 106.867 108.665 104.631C108.85 102.395 108.375 99.8752 106.922 98.1307Z" fill="#691806" fill-opacity="0.2"/>
<path d="M151.057 110.508C151.057 110.508 149.783 112.457 147.385 114.382C144.955 116.332 144.559 116.28 141.152 117.736C137.745 119.192 135.182 117.892 133.334 117.06C131.485 116.228 134.386 118.387 135.737 119.166C137.08 119.941 137.216 120.7 137.216 120.7C137.216 120.7 137.348 121.012 136.846 121.532C136.345 122.052 135.737 122.494 135.737 122.494C135.737 122.494 136.16 123.535 140.069 121.948C145.221 119.858 147.745 117.528 148.415 116.67C150.773 113.654 151.057 110.508 151.057 110.508Z" fill="#691806" fill-opacity="0.2"/>
<path fill-rule="evenodd" clip-rule="evenodd" d="M92.401 74.7112C91.7671 76.3155 90.7307 89.7845 91.7671 92.5745C92.3107 94.037 93.6165 96.0745 95.1221 98.4236C96.4892 100.556 98.0201 102.945 99.2948 105.393C100.561 107.826 101.605 110.321 102.545 112.567C103.529 114.918 104.399 116.997 105.291 118.446C108.357 123.432 113.69 127.301 116.675 128.301C122.882 130.381 133.949 129.334 136.96 128.925C141.556 128.301 150.701 123.281 152.966 120.631C153.345 120.187 153.699 119.789 154.029 119.417C155.668 117.573 156.712 116.399 157.351 113.584C158.513 108.462 158.566 102.039 157.351 95.7728C156.62 92.0054 155.579 89.9759 153.6 86.6721C149.504 79.8329 145.429 76.9137 138.571 72.735C132.613 69.1049 125.391 66.8846 121.746 65.8445C118.101 64.8045 114.888 64.2769 110.415 64.2324C107.019 64.1987 104.635 64.2324 101.778 65.2205C98.9197 66.2086 97.9741 66.9355 96.1252 68.7567C94.1643 70.6884 93.0349 73.1069 92.401 74.7112ZM100.536 72.215C99.3212 73.2302 98.3439 75.616 98.3439 78.9755C98.3439 83.8488 102.602 88.583 105.265 91.5434C106.054 92.4213 106.704 93.1432 107.06 93.6666C108.619 95.9548 110.098 99.283 110.441 100.921C110.716 102.232 111.128 104.431 111.128 104.431C111.128 104.431 109.078 99.8291 108.803 99.309C106.908 95.7208 101.91 90.8844 101.91 90.8844L98.3439 86.4901C98.3439 86.4901 97.598 90.3566 98.3439 92.0285C98.775 92.994 99.6498 94.4972 100.649 96.2131C101.379 97.4683 102.176 98.8374 102.913 100.193C104.493 103.096 105.633 106.075 106.686 108.827C108.055 112.405 109.277 115.599 111.128 117.744C113.916 120.975 116.882 122.359 121.059 123.387C125.814 124.557 136.933 123.907 141.873 121.905C146.747 119.929 150.153 116.723 151.084 113.134C152.015 109.546 152.332 106.902 152.332 106.902C152.332 106.902 150.087 111.25 147.208 113.506C144.62 115.534 142.649 116.416 140.05 117.094C137.443 117.775 133.156 116.782 133.156 116.782C133.156 116.782 137.694 116.12 140.05 115.092C142.762 113.909 143.481 113.447 145.597 111.4C148.733 108.365 150.087 105.914 150.879 103.807C151.811 101.332 152.049 98.5443 151.408 95.9808C150.482 92.2808 148.886 89.6398 146.363 86.7501C144.276 84.3604 140.105 81.2179 136.035 78.4295C131.818 75.5403 127.689 73.9104 125.602 73.0991C121.183 71.3807 115.354 69.9214 112.95 69.6668C109.658 69.3181 106.828 69.4789 105.66 69.6668C103.071 70.0836 101.89 71.0772 100.745 72.0402C100.675 72.0986 100.606 72.1569 100.536 72.215Z" fill="#621706" fill-opacity="0.2"/>
<path d="M144.444 95.739C145.159 94.0424 145.131 91.0847 145.131 91.0847C145.131 91.0847 144.091 93.2098 143.282 94.4909C142.625 95.5318 141.46 97.0651 141.46 97.0651C141.46 97.0651 139.399 92.6663 138.792 89.6546C138.383 87.6228 138.264 84.3762 138.264 84.3762C138.264 84.3762 137.692 87.592 137.841 89.6546C138.031 92.2761 138.675 93.6937 139.611 96.1551C140.229 97.7811 140.74 98.6262 141.46 100.211C142.174 101.784 142.856 102.571 143.282 104.242C143.885 106.605 143.282 110.482 143.282 110.482C143.282 110.482 139.312 113.383 136.336 114.174C134.371 114.697 133.191 114.649 131.159 114.746C129.582 114.822 127.117 114.746 127.117 114.746C127.117 114.746 127.473 112.999 127.883 111.938C128.629 110.013 129.19 108.884 130.683 107.44C131.552 106.6 133.192 105.62 133.192 105.62C133.192 105.62 132.256 105.564 131.66 105.62C130.729 105.708 130.27 106.252 129.336 106.192C128.407 106.132 127.117 105.334 127.117 105.334L128.464 107.44C128.464 107.44 126.785 109.171 126.008 110.482C125.212 111.824 124.502 114.174 124.502 114.174C124.502 114.174 121.968 113.612 120.488 112.9C118.741 112.06 117.75 111.46 116.447 110.04C114.321 107.725 114.497 105.561 113.409 102.63C112.306 99.6587 112.416 97.6934 110.847 94.933C109.542 92.6368 106.594 89.6546 106.594 89.6546C106.594 89.6546 110.112 90.3999 112.141 89.6546C113.015 89.3336 114.228 88.5105 114.228 88.5105C114.228 88.5105 113.295 92.5989 114.228 94.933C114.869 96.5385 115.638 97.2908 116.867 98.4936L116.922 98.5472C117.997 99.5997 120.012 100.861 120.012 100.861C120.012 100.861 118.07 99.1971 117.265 97.8192C116.495 96.4997 116.245 95.6293 115.998 94.1269C115.639 91.9552 116.125 90.6877 116.447 88.5105C116.799 86.1235 117.794 82.478 117.794 82.478C117.794 82.478 119.448 82.3473 120.488 82.14C121.506 81.937 123.05 81.438 123.05 81.438C123.05 81.438 124.816 82.7282 126.008 83.4661C127.762 84.5523 129.071 84.6552 130.683 85.9363C131.784 86.8114 133.192 88.5105 133.192 88.5105C133.192 88.5105 132.634 86.4774 131.845 85.4163C130.556 83.6813 128.8 83.8485 127.117 82.478C126.016 81.5807 124.502 79.9558 124.502 79.9558C124.502 79.9558 125.519 78.9827 126.008 78.2397C126.601 77.3391 127.117 75.7175 127.117 75.7175L128.464 76.2896C128.464 76.2896 135.062 79.8538 138.792 82.8161C142.119 85.458 144.286 86.8251 146.61 90.3566C148.106 92.6292 149.161 93.9712 149.568 96.6491C149.901 98.8358 149.738 100.174 149.093 102.292C148.314 104.849 145.501 108.142 145.501 108.142C145.501 108.142 144.962 105.31 144.444 103.54C143.863 101.549 142.622 98.5472 142.622 98.5472C142.622 98.5472 143.938 96.9411 144.444 95.739Z" fill="#B32D2D" fill-opacity="0.2"/>
<path d="M115.231 74.7291C113.518 72.6736 109.288 71.2449 109.288 71.2449C109.288 71.2449 114.209 71.356 117.265 72.0249C120.824 72.804 126.008 75.2492 126.008 75.2492C126.008 75.2492 124.572 77.8434 123.05 78.8634C121.207 80.0984 117.503 80.1895 117.503 80.1895C117.503 80.1895 116.716 76.5103 115.231 74.7291Z" fill="#B32D2D" fill-opacity="0.2"/>
<path d="M103.981 80.1896C102.29 79.2366 100.362 76.8094 100.362 76.8094C100.362 76.8094 100.057 80.6465 100.996 82.8158C101.985 85.0996 102.973 86.5303 105.249 87.6002C107.231 88.532 108.738 88.7197 110.848 88.1202C112.726 87.5868 114.013 86.979 114.942 85.286C115.817 83.6927 115.648 82.4218 115.233 80.6577C114.938 79.405 114.549 78.7427 113.833 77.6674C112.432 75.5636 111.146 74.5638 108.814 73.5331C106.932 72.7009 104.456 72.1909 103.637 72.4931L103.599 72.5073C102.808 72.799 102.471 72.9235 102.158 73.8192C101.848 74.7117 103.242 76.597 104.389 78.1484L104.456 78.2395C105.495 79.6446 107.599 81.4377 107.599 81.4377C107.599 81.4377 105.28 80.9222 103.981 80.1896Z" fill="#B32D2D" fill-opacity="0.2"/>
<path d="M134.108 95.6194C133.879 93.9408 133.522 92.9602 132.549 91.5631C131.651 90.2726 128.957 88.8291 128.191 88.4429C127.425 88.0566 123.754 88.1828 122.909 88.4429C121.822 88.7771 121.049 90.1587 120.796 91.2511C120.584 92.1611 120.55 94.5013 120.796 95.3074C121.156 96.4906 121.518 97.1303 122.275 98.1156C123.538 99.7597 124.589 100.625 126.58 101.262C128.133 101.759 129.197 102.01 130.753 101.522C132.271 101.046 133.277 100.447 133.949 99.0257C134.52 97.8185 134.287 96.9392 134.108 95.6194Z" fill="#F8ECE1" fill-opacity="0.2"/>
<path fill-rule="evenodd" clip-rule="evenodd" d="M132.549 91.5631C133.522 92.9602 133.879 93.9408 134.108 95.6194C134.129 95.7799 134.152 95.9339 134.174 96.0828C134.332 97.1579 134.451 97.9653 133.949 99.0257C133.277 100.447 132.271 101.046 130.753 101.522C129.197 102.01 128.133 101.759 126.58 101.262C124.589 100.625 123.538 99.7597 122.275 98.1156C121.518 97.1303 121.156 96.4906 120.796 95.3074C120.55 94.5013 120.584 92.1611 120.796 91.2511C121.049 90.1587 121.822 88.7771 122.909 88.4429C123.754 88.1828 127.425 88.0566 128.191 88.4429C128.957 88.8291 131.651 90.2726 132.549 91.5631ZM132.001 91.3862C132.868 92.4076 133.186 93.1244 133.39 94.3515C133.41 94.4689 133.43 94.5815 133.449 94.6904C133.59 95.4763 133.696 96.0665 133.249 96.8417C132.649 97.8812 131.753 98.3185 130.399 98.6666C129.012 99.0234 128.063 98.8398 126.678 98.4765C124.903 98.0106 123.966 97.3784 122.84 96.1764C122.165 95.4561 121.843 94.9885 121.521 94.1235C121.302 93.5342 121.333 91.8234 121.521 91.158C121.747 90.3595 122.437 89.3495 123.405 89.1051C124.159 88.915 127.432 88.8228 128.115 89.1051C128.798 89.3875 131.2 90.4428 132.001 91.3862Z" fill="#621706" fill-opacity="0.2"/>
<path d="M130.06 93.9362C129.971 93.4029 129.831 93.0914 129.452 92.6475C129.102 92.2376 128.052 91.779 127.753 91.6563C127.455 91.5336 126.023 91.5737 125.694 91.6563C125.27 91.7625 124.969 92.2014 124.87 92.5484C124.788 92.8376 124.774 93.581 124.87 93.837C125.011 94.213 125.152 94.4161 125.447 94.7292C125.939 95.2515 126.349 95.5262 127.125 95.7287C127.73 95.8866 128.145 95.9663 128.752 95.8113C129.344 95.66 129.736 95.47 129.998 95.0183C130.22 94.6348 130.13 94.3555 130.06 93.9362Z" fill="#621706" fill-opacity="0.2"/>
</svg>
