<svg width="193" height="230" viewBox="0 0 597 500" fill="none" xmlns="http://www.w3.org/2000/svg">
<mask id="mask0" mask-type="alpha" maskUnits="userSpaceOnUse" x="0" y="92" width="597" height="408">
<path d="M597 92.0142H0V499.445H597V92.0142Z" fill="white"/>
<path fill-rule="evenodd" clip-rule="evenodd" d="M578.194 295.476C578.755 291.019 579.047 286.515 579.047 281.97C579.047 187.005 453.453 110.019 298.502 110.019C143.551 110.019 17.957 187.005 17.957 281.97C17.957 286.515 18.2488 291.019 18.8099 295.476H17.957V307.481C17.957 402.448 143.551 479.432 298.502 479.432C453.453 479.432 579.047 402.448 579.047 307.481V295.476H578.194Z" fill="black"/>
</mask>
<g mask="url(#mask0)">
<path d="M578.192 295.48L560.372 293.208L557.814 313.488H578.192V295.48ZM18.8078 295.48V313.488H39.1865L36.6278 293.208L18.8078 295.48ZM17.9549 295.48V277.472H0V295.48H17.9549ZM579.045 295.48H597V277.472H579.045V295.48ZM561.09 281.974C561.09 285.755 560.843 289.501 560.372 293.208L596.013 297.751C596.664 292.547 597 287.284 597 281.974H561.09ZM298.5 128.03C373.215 128.03 440.007 146.63 487.52 175.751C535.325 205.064 561.09 243.137 561.09 281.974H597C597 225.843 559.946 177.944 506.238 145.021C452.216 111.908 378.713 92.0142 298.5 92.0142V128.03ZM35.9098 281.974C35.9098 243.137 61.6751 205.064 109.48 175.751C156.993 146.63 223.785 128.03 298.5 128.03V92.0142C218.287 92.0142 144.784 111.908 90.7618 145.021C37.0543 177.944 0 225.843 0 281.974H35.9098ZM36.6278 293.208C36.1565 289.501 35.9098 285.755 35.9098 281.974H0C0 287.284 0.336523 292.547 0.987387 297.751L36.6278 293.208ZM17.9549 313.488H18.8078V277.472H17.9549V313.488ZM35.9098 307.484V295.48H0V307.484H35.9098ZM298.5 461.428C223.785 461.428 156.993 442.83 109.48 413.706C61.6751 384.396 35.9098 346.321 35.9098 307.484H0C0 363.615 37.0543 411.516 90.7618 444.439C144.784 477.551 218.287 497.444 298.5 497.444V461.428ZM561.09 307.484C561.09 346.321 535.325 384.396 487.52 413.706C440.007 442.83 373.215 461.428 298.5 461.428V497.444C378.713 497.444 452.216 477.551 506.238 444.439C559.946 411.516 597 363.615 597 307.484H561.09ZM561.09 295.48V307.484H597V295.48H561.09ZM578.192 313.488H579.045V277.472H578.192V313.488Z" fill="#200033"/>
<path d="M579.047 307.488C579.047 402.455 453.453 479.439 298.502 479.439C143.551 479.439 17.957 402.455 17.957 307.488V279.726H579.047V307.488Z" fill="#FF6B2A"/>
<path d="M579.047 281.723C579.047 376.688 453.453 453.674 298.502 453.674C143.551 453.674 17.957 376.688 17.957 281.723C17.957 186.756 143.551 109.771 298.502 109.771C453.453 109.771 579.047 186.756 579.047 281.723Z" fill="#EB0405"/>
</g>
<path d="M82.787 205.663L86.8315 90.6341C86.8315 90.6341 98.0822 64.7297 110.593 52.2911C122.39 40.5635 128.423 35.8823 146.658 29.5197C164.892 23.1572 180.099 22.9398 201.766 23.1572C230.308 23.4435 250.806 26.8408 274.062 33.5382C297.319 40.2357 343.401 54.5328 381.412 77.9089C425.166 104.817 451.167 123.615 477.302 167.655C489.928 188.93 496.572 201.998 501.232 226.258C508.985 266.61 508.648 307.967 501.233 340.952C496.339 362.722 487.71 369.259 473.258 386.327C458.806 403.396 400.456 435.721 371.132 439.739C351.921 442.372 281.309 449.116 241.706 435.721C222.663 429.281 188.637 404.363 169.071 372.262C157.949 354.012 147.355 320.269 130.816 288.209C113.725 255.072 82.787 205.663 82.787 205.663Z" fill="#F8ECE1"/>
<path d="M179.479 241.442C165.66 224.699 129.765 179.826 129.765 179.826V193.388C129.765 204.271 137.254 214.61 141.393 221.517C154.032 242.614 161.953 255.005 165.66 262.707C169.368 270.409 187.4 316.454 187.4 316.454C187.4 316.454 189.422 297.701 190.602 283.301C191.781 268.902 188.751 252.676 179.479 241.442Z" fill="#33468E"/>
<path d="M461.081 321.144C461.081 321.144 452.955 333.7 437.656 346.092C422.152 358.649 419.624 358.314 397.884 367.691C376.145 377.067 359.798 368.696 348.001 363.338C336.204 357.98 354.713 371.88 363.337 376.9C371.904 381.886 372.774 386.779 372.774 386.779C372.774 386.779 373.617 388.788 370.415 392.137C367.213 395.485 363.337 398.332 363.337 398.332C363.337 398.332 366.033 405.029 390.975 394.816C423.844 381.357 439.949 366.351 444.228 360.826C459.27 341.403 461.081 321.144 461.081 321.144Z" fill="#33468E"/>
<path fill-rule="evenodd" clip-rule="evenodd" d="M86.8316 90.6341C82.787 100.965 76.1741 187.697 82.787 205.663C86.2552 215.08 94.5871 228.201 104.193 243.328C112.916 257.058 122.683 272.442 130.816 288.209C138.895 303.872 145.559 319.937 151.555 334.401C157.834 349.541 163.382 362.93 169.071 372.262C188.637 404.363 222.663 429.281 241.706 435.721C281.309 449.116 351.921 442.372 371.132 439.739C400.456 435.721 458.806 403.396 473.258 386.327C475.678 383.467 477.935 380.906 480.039 378.515C490.495 366.64 497.159 359.075 501.233 340.952C508.648 307.967 508.985 266.61 501.232 226.258C496.572 201.998 489.928 188.93 477.302 167.655C451.167 123.615 425.166 104.817 381.412 77.9089C343.401 54.5328 297.319 40.2357 274.062 33.5382C250.806 26.8408 230.308 23.4435 201.766 23.1572C180.099 22.9398 164.892 23.1572 146.658 29.5197C128.423 35.8823 122.39 40.5635 110.593 52.2911C98.0822 64.7297 90.8762 80.3033 86.8316 90.6341ZM138.737 74.5602C130.985 81.0973 124.749 96.4602 124.749 118.094C124.749 149.475 151.919 179.96 168.909 199.024C173.945 204.677 178.091 209.325 180.362 212.695C190.305 227.43 199.744 248.862 201.934 259.41C203.687 267.849 206.316 282.014 206.316 282.014C206.316 282.014 193.238 252.378 191.485 249.029C179.392 225.923 147.5 194.78 147.5 194.78L124.749 166.483C124.749 166.483 119.99 191.381 124.749 202.147C127.5 208.364 133.081 218.044 139.455 229.093C144.113 237.176 149.199 245.992 153.904 254.722C163.985 273.416 171.255 292.599 177.976 310.32C186.709 333.357 194.505 353.925 206.316 367.742C224.102 388.547 243.027 397.455 269.681 404.075C300.015 411.61 370.964 407.424 402.478 394.532C433.577 381.81 455.311 361.161 461.251 338.055C467.191 314.949 469.213 297.921 469.213 297.921C469.213 297.921 454.888 325.923 436.52 340.45C420.004 353.51 407.431 359.189 390.85 363.556C374.214 367.936 346.865 361.547 346.865 361.547C346.865 361.547 375.815 357.284 390.85 350.663C408.155 343.041 412.74 340.071 426.24 326.887C446.249 307.347 454.889 291.558 459.944 277.996C465.888 262.053 467.407 244.105 463.315 227.597C457.408 203.772 447.226 186.765 431.127 168.157C417.813 152.769 391.202 132.533 365.234 114.578C338.328 95.973 311.98 85.4777 298.667 80.253C270.471 69.1875 233.28 59.7906 217.944 58.1514C196.94 55.9057 178.883 56.9412 171.431 58.1514C154.909 60.8351 147.372 67.2332 140.068 73.4343C139.623 73.8107 139.182 74.1861 138.737 74.5602Z" fill="#1A0032"/>
<path d="M418.896 226.04C423.455 215.115 423.277 196.069 423.277 196.069C423.277 196.069 416.638 209.753 411.48 218.003C407.29 224.706 399.852 234.579 399.852 234.579C399.852 234.579 386.702 206.254 382.831 186.86C380.221 173.776 379.461 152.87 379.461 152.87C379.461 152.87 375.813 173.578 376.765 186.86C377.974 203.741 382.084 212.869 388.056 228.719C392.001 239.19 395.261 244.632 399.852 254.839C404.409 264.968 408.763 270.031 411.48 280.792C415.325 296.013 411.48 320.977 411.48 320.977C411.48 320.977 386.149 339.659 367.159 344.753C354.627 348.115 347.093 347.807 334.128 348.436C324.071 348.925 308.344 348.436 308.344 348.436C308.344 348.436 310.61 337.184 313.231 330.353C317.987 317.956 321.568 310.683 331.095 301.386C336.635 295.98 347.104 289.666 347.104 289.666C347.104 289.666 341.13 289.305 337.33 289.666C331.387 290.231 328.457 293.738 322.5 293.35C316.573 292.963 308.344 287.824 308.344 287.824L316.939 301.386C316.939 301.386 306.225 312.536 301.266 320.977C296.189 329.617 291.66 344.753 291.66 344.753C291.66 344.753 275.487 341.133 266.044 336.548C254.903 331.137 248.575 327.272 240.26 318.13C226.699 303.221 227.822 289.286 220.88 270.411C213.844 251.28 214.541 238.625 204.533 220.849C196.209 206.064 177.401 186.86 177.401 186.86C177.401 186.86 199.842 191.66 212.791 186.86C218.367 184.793 226.104 179.493 226.104 179.493C226.104 179.493 220.155 205.819 226.104 220.849C230.197 231.188 235.102 236.033 242.944 243.778L243.294 244.123C250.155 250.9 263.011 259.025 263.011 259.025C263.011 259.025 250.62 248.308 245.484 239.435C240.567 230.939 238.977 225.333 237.395 215.659C235.109 201.675 238.21 193.513 240.26 179.493C242.508 164.122 248.855 140.647 248.855 140.647C248.855 140.647 259.412 139.806 266.044 138.471C272.539 137.163 282.391 133.95 282.391 133.95C282.391 133.95 293.663 142.258 301.266 147.01C312.457 154.004 320.807 154.667 331.095 162.916C338.121 168.551 347.104 179.493 347.104 179.493C347.104 179.493 343.54 166.401 338.51 159.568C330.285 148.396 319.076 149.473 308.344 140.647C301.317 134.869 291.66 124.406 291.66 124.406C291.66 124.406 298.144 118.14 301.266 113.355C305.05 107.555 308.344 97.1138 308.344 97.1138L316.939 100.797C316.939 100.797 359.031 123.749 382.831 142.824C404.058 159.836 417.886 168.64 432.714 191.381C442.256 206.015 448.989 214.656 451.589 231.9C453.712 245.981 452.67 254.595 448.556 268.234C443.588 284.701 425.636 305.907 425.636 305.907C425.636 305.907 422.196 287.674 418.896 276.271C415.184 263.45 407.267 244.123 407.267 244.123C407.267 244.123 415.665 233.781 418.896 226.04Z" fill="#33468E"/>
<path d="M232.501 90.7505C221.566 77.5143 194.583 68.314 194.583 68.314C194.583 68.314 225.98 69.0296 245.477 73.3371C268.185 78.3538 301.259 94.0992 301.259 94.0992C301.259 94.0992 292.095 110.804 282.384 117.373C270.628 125.325 246.994 125.912 246.994 125.912C246.994 125.912 241.976 102.22 232.501 90.7505Z" fill="#33468E"/>
<path d="M160.71 125.913C149.925 119.776 137.622 104.146 137.622 104.146C137.622 104.146 135.674 128.854 141.667 142.824C147.977 157.53 154.279 166.742 168.799 173.632C181.445 179.633 191.061 180.841 204.527 176.981C216.509 173.546 224.721 169.632 230.648 158.73C236.226 148.47 235.152 140.287 232.502 128.926C230.62 120.86 228.139 116.595 223.57 109.671C214.63 96.1236 206.424 89.686 191.55 83.0488C179.541 77.6899 163.744 74.4054 158.519 76.3514L158.273 76.4431C153.224 78.3218 151.074 79.1234 149.082 84.8906C147.1 90.6381 155.995 102.779 163.316 112.768L163.744 113.355C170.37 122.403 183.798 133.95 183.798 133.95C183.798 133.95 169.002 130.63 160.71 125.913Z" fill="#33468E"/>
<path d="M352.939 225.27C351.481 214.461 349.2 208.147 342.996 199.15C337.266 190.84 320.077 181.544 315.19 179.058C310.303 176.571 286.878 177.383 281.485 179.058C274.553 181.21 269.621 190.107 268.003 197.141C266.655 203.001 266.436 218.07 268.003 223.261C270.303 230.88 272.611 234.999 277.44 241.344C285.499 251.931 292.204 257.5 304.91 261.604C314.818 264.804 321.609 266.421 331.537 263.278C341.222 260.212 347.637 256.36 351.928 247.204C355.571 239.431 354.085 233.769 352.939 225.27Z" fill="#F8ECE1"/>
<path fill-rule="evenodd" clip-rule="evenodd" d="M342.996 199.15C349.2 208.147 351.481 214.461 352.939 225.27C353.078 226.304 353.223 227.295 353.362 228.254C354.371 235.177 355.128 240.376 351.928 247.204C347.637 256.36 341.222 260.212 331.537 263.278C321.609 266.421 314.818 264.804 304.91 261.604C292.204 257.5 285.499 251.931 277.44 241.344C272.611 234.999 270.303 230.88 268.003 223.261C266.436 218.07 266.655 203.001 268.003 197.141C269.621 190.107 274.553 181.21 281.485 179.058C286.878 177.383 310.303 176.571 315.19 179.058C320.077 181.544 337.266 190.84 342.996 199.15ZM339.496 198.011C345.027 204.588 347.061 209.204 348.361 217.106C348.485 217.862 348.614 218.587 348.738 219.288C349.637 224.349 350.312 228.149 347.459 233.141C343.634 239.834 337.914 242.65 329.278 244.892C320.427 247.19 314.373 246.008 305.538 243.668C294.21 240.668 288.232 236.597 281.047 228.857C276.741 224.219 274.684 221.207 272.633 215.637C271.236 211.842 271.431 200.826 272.633 196.542C274.076 191.4 278.473 184.896 284.653 183.322C289.461 182.098 310.347 181.504 314.704 183.322C319.061 185.14 334.387 191.936 339.496 198.011Z" fill="#1A0032"/>
<path d="M327.103 214.431C326.535 210.997 325.646 208.991 323.227 206.133C320.994 203.493 314.292 200.54 312.387 199.75C310.482 198.96 301.351 199.219 299.248 199.75C296.546 200.434 294.624 203.26 293.993 205.495C293.467 207.357 293.382 212.144 293.993 213.793C294.889 216.214 295.789 217.522 297.672 219.538C300.813 222.901 303.427 224.67 308.38 225.974C312.243 226.991 314.89 227.504 318.76 226.506C322.536 225.532 325.036 224.308 326.709 221.399C328.129 218.93 327.55 217.131 327.103 214.431Z" fill="#1A0032"/>
</svg>
