<svg width="193" height="230" viewBox="0 0 611 633" fill="none" xmlns="http://www.w3.org/2000/svg">
<path d="M498.12 255.107C502.433 259.525 503.028 266.479 499.53 271.599C435.543 365.273 356.417 447.066 265.564 513.456L258.39 518.699C253.129 522.544 245.926 521.93 241.357 517.248L209.058 484.154C228.124 463.925 227.915 431.688 208.43 411.723C188.944 391.758 157.482 391.543 137.739 411.079L108.03 380.638C102.38 374.849 103.159 365.247 109.664 360.494L116.844 355.248C205.5 290.463 282.712 210.647 345.153 119.237C349.527 112.835 358.483 112.031 363.876 117.557L394.113 148.539C375.118 168.773 375.351 200.954 394.813 220.894C414.274 240.834 445.682 241.074 465.429 221.611L498.12 255.107Z" fill="#48AF99"/>
<path d="M512.438 264.278L396.966 414.093L247.615 529.93L218.893 500.289L208.53 487.416L218.893 472.053L222.524 456.69L220.525 440.303L214.528 424.94L204.532 412.649L192.536 404.456L179.542 400.359H163.548L146.555 406.504L136.559 415.722L112.569 386.02L151.595 380.057C272.638 361.559 387.007 311.483 483.714 234.636L512.438 264.278Z" fill="#279191"/>
<path fill-rule="evenodd" clip-rule="evenodd" d="M194.486 485.619C194.491 481.267 196.185 477.095 199.194 474.024L199.248 473.97C212.699 460.187 212.699 437.841 199.248 424.059C185.796 410.276 163.987 410.276 150.536 424.059L150.483 424.113C147.485 427.197 143.414 428.932 139.167 428.937C134.919 428.942 130.844 427.215 127.841 424.138L96.7235 392.255C84.082 379.302 85.8253 357.817 100.381 347.18L107.56 341.934L116.846 355.276L109.667 360.523C103.162 365.276 102.383 374.878 108.032 380.667L139.15 412.55L139.227 412.471C139.251 412.446 139.276 412.421 139.301 412.396C159.003 392.289 190.884 392.314 210.557 412.471C230.228 432.627 230.254 465.289 210.635 485.477C210.609 485.504 210.583 485.531 210.557 485.557L210.479 485.636L241.359 517.276C245.929 521.958 253.131 522.572 258.393 518.727L265.567 513.485C356.42 447.095 435.545 365.301 499.533 271.627C503.03 266.507 502.436 259.554 498.123 255.135L465.686 221.9C465.569 222.023 465.45 222.145 465.331 222.268C465.211 222.389 465.091 222.511 464.971 222.632C445.247 242.449 413.579 242.328 394.001 222.268C374.422 202.207 374.304 169.759 393.646 149.549C393.763 149.425 393.882 149.303 394.001 149.181C394.12 149.059 394.24 148.938 394.36 148.817L363.879 117.586C358.485 112.059 349.529 112.863 345.156 119.265C282.715 210.675 205.503 290.491 116.846 355.276L107.56 341.934C194.734 278.233 270.655 199.75 332.053 109.869C342.13 95.1176 362.762 93.2659 375.188 105.998L405.669 137.229C408.687 140.322 410.374 144.523 410.353 148.897C410.332 153.271 408.606 157.455 405.557 160.518C405.475 160.6 405.392 160.685 405.31 160.769C391.859 174.551 391.859 196.897 405.31 210.68C418.761 224.462 440.57 224.462 454.022 210.68C454.103 210.596 454.185 210.511 454.267 210.426C457.255 207.303 461.339 205.534 465.608 205.513C469.877 205.491 473.977 207.219 476.996 210.312L509.432 243.547C519.232 253.589 520.583 269.389 512.636 281.024C447.604 376.226 367.189 459.354 274.854 526.826L267.679 532.069C256.056 540.562 240.145 539.207 230.05 528.864L199.171 497.224C196.167 494.146 194.482 489.971 194.486 485.619Z" fill="#125978"/>
<path fill-rule="evenodd" clip-rule="evenodd" d="M303.104 174.794L310.172 182.036C313.295 185.236 313.295 190.423 310.172 193.623C307.049 196.824 301.986 196.824 298.863 193.623L291.795 186.381C288.672 183.181 288.672 177.994 291.795 174.794C294.918 171.594 299.981 171.594 303.104 174.794Z" fill="#125978"/>
<path fill-rule="evenodd" clip-rule="evenodd" d="M332.797 205.242L339.865 212.484C342.988 215.684 342.988 220.872 339.865 224.072C336.743 227.272 331.679 227.272 328.556 224.072L321.488 216.83C318.365 213.63 318.365 208.442 321.488 205.242C324.611 202.042 329.674 202.042 332.797 205.242Z" fill="#125978"/>
<path fill-rule="evenodd" clip-rule="evenodd" d="M369.542 254.479C366.419 257.679 361.356 257.679 358.233 254.479L349.751 245.788C346.628 242.588 346.628 237.4 349.751 234.201C352.874 231.001 357.937 231.001 361.06 234.201L369.542 242.891C372.665 246.091 372.665 251.279 369.542 254.479Z" fill="#125978"/>
<path fill-rule="evenodd" clip-rule="evenodd" d="M399.234 284.897C396.111 288.097 391.048 288.097 387.925 284.897L379.443 276.206C376.32 273.007 376.321 267.819 379.443 264.619C382.566 261.419 387.63 261.419 390.752 264.619L399.234 273.309C402.357 276.509 402.357 281.698 399.234 284.897Z" fill="#125978"/>
<path fill-rule="evenodd" clip-rule="evenodd" d="M420.434 295.063L427.501 302.306C430.624 305.506 430.624 310.694 427.501 313.893C424.379 317.093 419.315 317.093 416.192 313.893L409.124 306.651C406.001 303.452 406.001 298.263 409.124 295.063C412.247 291.864 417.311 291.864 420.434 295.063Z" fill="#125978"/>
<path fill-rule="evenodd" clip-rule="evenodd" d="M450.126 325.466L457.194 332.709C460.316 335.909 460.317 341.096 457.194 344.296C454.071 347.496 449.008 347.496 445.885 344.296L438.817 337.054C435.694 333.855 435.694 328.666 438.817 325.466C441.94 322.266 447.003 322.266 450.126 325.466Z" fill="#125978"/>
<path d="M213.191 335.223L214.663 293.803C214.663 293.803 218.76 284.476 223.315 279.997C227.611 275.774 229.808 274.088 236.447 271.797C243.086 269.506 248.624 269.428 256.513 269.506C266.906 269.609 274.369 270.833 282.837 273.244C291.305 275.656 308.085 280.804 321.925 289.221C337.857 298.91 347.324 305.679 356.84 321.537C361.438 329.197 363.857 333.903 365.554 342.638C368.377 357.168 368.254 372.06 365.554 383.937C363.772 391.776 360.63 394.13 355.368 400.276C350.106 406.422 328.859 418.062 318.182 419.508C311.187 420.456 285.476 422.885 271.056 418.062C264.122 415.743 251.732 406.77 244.608 395.212C240.558 388.64 236.701 376.49 230.679 364.946C224.456 353.014 213.191 335.223 213.191 335.223Z" fill="#F8ECE1"/>
<path d="M248.404 348.105C243.372 342.076 230.302 325.918 230.302 325.918V330.802C230.302 334.721 233.029 338.443 234.536 340.931C239.138 348.527 242.022 352.989 243.372 355.762C244.722 358.535 251.288 375.115 251.288 375.115C251.288 375.115 252.024 368.363 252.454 363.178C252.883 357.993 251.78 352.15 248.404 348.105Z" fill="#0D5074"/>
<path d="M350.945 376.803C350.945 376.803 347.986 381.324 342.415 385.786C336.77 390.308 335.849 390.187 327.934 393.563C320.018 396.94 314.066 393.925 309.77 391.996C305.475 390.067 312.214 395.072 315.354 396.879C318.474 398.675 318.791 400.437 318.791 400.437C318.791 400.437 319.097 401.16 317.932 402.366C316.766 403.572 315.354 404.597 315.354 404.597C315.354 404.597 316.336 407.008 325.418 403.33C337.386 398.484 343.25 393.081 344.808 391.092C350.285 384.098 350.945 376.803 350.945 376.803Z" fill="#0D5074"/>
<path fill-rule="evenodd" clip-rule="evenodd" d="M214.663 293.803C213.191 297.523 210.783 328.754 213.191 335.223C214.453 338.614 217.487 343.338 220.985 348.785C224.161 353.729 227.718 359.268 230.679 364.946C233.621 370.586 236.047 376.37 238.23 381.578C240.517 387.03 242.537 391.851 244.608 395.212C251.732 406.77 264.122 415.743 271.056 418.062C285.476 422.885 311.187 420.456 318.182 419.508C328.859 418.062 350.106 406.422 355.368 400.276C356.249 399.246 357.071 398.324 357.837 397.463C361.644 393.187 364.071 390.463 365.554 383.937C368.254 372.06 368.377 357.168 365.554 342.638C363.857 333.903 361.438 329.197 356.84 321.537C347.324 305.679 337.857 298.91 321.925 289.221C308.085 280.804 291.305 275.656 282.837 273.244C274.369 270.833 266.906 269.609 256.513 269.506C248.624 269.428 243.086 269.506 236.447 271.797C229.808 274.088 227.611 275.774 223.315 279.997C218.76 284.476 216.136 290.083 214.663 293.803ZM233.563 288.015C230.74 290.369 228.47 295.901 228.47 303.691C228.47 314.991 238.363 325.968 244.549 332.832C246.383 334.867 247.892 336.541 248.72 337.755C252.34 343.06 255.777 350.778 256.574 354.576C257.212 357.615 258.17 362.715 258.17 362.715C258.17 362.715 253.408 352.044 252.769 350.838C248.366 342.518 236.754 331.304 236.754 331.304L228.47 321.115C228.47 321.115 226.737 330.08 228.47 333.957C229.471 336.195 231.504 339.681 233.824 343.659C235.52 346.57 237.372 349.744 239.086 352.888C242.756 359.619 245.404 366.526 247.851 372.907C251.03 381.203 253.869 388.609 258.17 393.584C264.646 401.075 271.537 404.283 281.242 406.667C292.287 409.38 318.121 407.872 329.596 403.23C340.919 398.649 348.833 391.214 350.996 382.894C353.159 374.574 353.895 368.443 353.895 368.443C353.895 368.443 348.679 378.526 341.991 383.756C335.977 388.459 331.399 390.504 325.362 392.076C319.304 393.654 309.346 391.353 309.346 391.353C309.346 391.353 319.887 389.818 325.362 387.434C331.663 384.69 333.332 383.62 338.248 378.873C345.533 371.837 348.679 366.152 350.52 361.268C352.684 355.528 353.237 349.065 351.747 343.121C349.597 334.542 345.889 328.418 340.027 321.718C335.18 316.177 325.49 308.89 316.035 302.425C306.238 295.726 296.644 291.947 291.796 290.065C281.53 286.081 267.988 282.697 262.404 282.107C254.756 281.298 248.181 281.671 245.467 282.107C239.451 283.073 236.707 285.377 234.048 287.61C233.886 287.746 233.725 287.881 233.563 288.015Z" fill="#0D4E73"/>
<path d="M335.576 342.559C337.237 338.625 337.172 331.767 337.172 331.767C337.172 331.767 334.755 336.695 332.876 339.665C331.351 342.079 328.642 345.634 328.642 345.634C328.642 345.634 323.854 335.435 322.445 328.451C321.494 323.74 321.218 316.212 321.218 316.212C321.218 316.212 319.889 323.669 320.236 328.451C320.676 334.53 322.173 337.817 324.347 343.524C325.784 347.294 326.971 349.254 328.642 352.929C330.301 356.576 331.887 358.4 332.876 362.274C334.276 367.755 332.876 376.744 332.876 376.744C332.876 376.744 323.653 383.471 316.738 385.305C312.175 386.516 309.432 386.405 304.711 386.631C301.049 386.807 295.323 386.631 295.323 386.631C295.323 386.631 296.148 382.58 297.102 380.12C298.834 375.656 300.138 373.037 303.607 369.69C305.624 367.743 309.436 365.47 309.436 365.47C309.436 365.47 307.261 365.339 305.877 365.47C303.713 365.673 302.646 366.936 300.477 366.796C298.319 366.657 295.323 364.806 295.323 364.806L298.452 369.69C298.452 369.69 294.551 373.705 292.745 376.744C290.897 379.855 289.248 385.305 289.248 385.305C289.248 385.305 283.359 384.002 279.921 382.351C275.864 380.402 273.56 379.011 270.532 375.719C265.594 370.35 266.003 365.333 263.476 358.536C260.914 351.648 261.167 347.091 257.523 340.69C254.492 335.366 247.644 328.451 247.644 328.451C247.644 328.451 255.815 330.18 260.53 328.451C262.56 327.707 265.378 325.799 265.378 325.799C265.378 325.799 263.211 335.278 265.378 340.69C266.868 344.413 268.654 346.157 271.509 348.946L271.637 349.071C274.135 351.511 278.816 354.436 278.816 354.436C278.816 354.436 274.305 350.577 272.434 347.382C270.644 344.323 270.065 342.305 269.489 338.821C268.656 333.786 269.786 330.847 270.532 325.799C271.351 320.264 273.662 311.811 273.662 311.811C273.662 311.811 277.506 311.508 279.921 311.027C282.285 310.557 285.873 309.4 285.873 309.4C285.873 309.4 289.977 312.391 292.745 314.102C296.82 316.621 299.861 316.859 303.607 319.83C306.165 321.859 309.436 325.799 309.436 325.799C309.436 325.799 308.138 321.084 306.307 318.624C303.312 314.601 299.231 314.989 295.323 311.811C292.764 309.731 289.248 305.963 289.248 305.963C289.248 305.963 291.609 303.707 292.745 301.984C294.123 299.896 295.323 296.136 295.323 296.136L298.452 297.462C298.452 297.462 313.779 305.726 322.445 312.595C330.174 318.721 335.209 321.891 340.608 330.079C344.082 335.349 346.534 338.46 347.481 344.669C348.254 349.74 347.874 352.841 346.376 357.752C344.567 363.682 338.031 371.318 338.031 371.318C338.031 371.318 336.778 364.752 335.576 360.646C334.225 356.03 331.342 349.071 331.342 349.071C331.342 349.071 334.4 345.347 335.576 342.559Z" fill="#2F888A"/>
<path d="M267.715 293.845C263.733 289.078 253.908 285.766 253.908 285.766C253.908 285.766 265.34 286.023 272.44 287.574C280.708 289.381 292.751 295.05 292.751 295.05C292.751 295.05 289.414 301.065 285.878 303.431C281.597 306.294 272.992 306.505 272.992 306.505C272.992 306.505 271.165 297.975 267.715 293.845Z" fill="#2F888A"/>
<path d="M241.563 306.506C237.636 304.296 233.157 298.668 233.157 298.668C233.157 298.668 232.447 307.565 234.629 312.595C236.927 317.89 239.222 321.207 244.509 323.688C249.113 325.849 252.615 326.284 257.518 324.894C261.881 323.657 264.871 322.248 267.029 318.322C269.06 314.628 268.669 311.681 267.704 307.591C267.019 304.686 266.115 303.151 264.452 300.657C261.196 295.779 258.209 293.461 252.793 291.071C248.42 289.142 242.668 287.959 240.766 288.66L240.676 288.693C238.838 289.369 238.055 289.658 237.329 291.734C236.608 293.804 239.846 298.175 242.512 301.772L242.668 301.984C245.081 305.242 249.97 309.399 249.97 309.399C249.97 309.399 244.582 308.204 241.563 306.506Z" fill="#2F888A"/>
<path d="M311.57 342.283C311.039 338.39 310.208 336.117 307.949 332.877C305.863 329.885 299.604 326.538 297.824 325.642C296.045 324.747 287.516 325.039 285.552 325.642C283.028 326.417 281.232 329.621 280.643 332.154C280.152 334.264 280.072 339.69 280.643 341.559C281.48 344.303 282.321 345.786 284.079 348.07C287.014 351.883 289.455 353.888 294.081 355.365C297.689 356.518 300.162 357.1 303.777 355.968C307.303 354.864 309.639 353.477 311.201 350.181C312.528 347.381 311.987 345.343 311.57 342.283Z" fill="#F8ECE1"/>
<path fill-rule="evenodd" clip-rule="evenodd" d="M307.949 332.877C310.208 336.117 311.039 338.39 311.57 342.283C311.62 342.655 311.673 343.012 311.724 343.357C312.091 345.85 312.367 347.722 311.201 350.181C309.639 353.477 307.303 354.864 303.777 355.968C300.162 357.1 297.689 356.518 294.081 355.365C289.455 353.888 287.014 351.883 284.079 348.07C282.321 345.786 281.48 344.303 280.643 341.559C280.072 339.69 280.152 334.264 280.643 332.154C281.232 329.621 283.028 326.417 285.552 325.642C287.516 325.039 296.045 324.747 297.824 325.642C299.604 326.538 305.863 329.885 307.949 332.877ZM306.675 332.467C308.689 334.835 309.429 336.497 309.903 339.343C309.948 339.615 309.995 339.876 310.04 340.128C310.367 341.951 310.613 343.319 309.574 345.117C308.181 347.527 306.099 348.541 302.954 349.348C299.732 350.175 297.527 349.75 294.31 348.907C290.185 347.827 288.009 346.361 285.393 343.574C283.825 341.904 283.076 340.82 282.329 338.814C281.82 337.447 281.891 333.481 282.329 331.938C282.854 330.087 284.455 327.744 286.706 327.178C288.456 326.737 296.061 326.523 297.648 327.178C299.234 327.833 304.815 330.28 306.675 332.467Z" fill="#0D4E73"/>
<path d="M302.157 338.38C301.95 337.143 301.626 336.421 300.746 335.392C299.932 334.441 297.492 333.378 296.799 333.093C296.105 332.809 292.78 332.902 292.014 333.093C291.03 333.339 290.33 334.357 290.101 335.162C289.909 335.832 289.878 337.556 290.101 338.15C290.427 339.021 290.755 339.492 291.44 340.218C292.584 341.429 293.536 342.066 295.339 342.536C296.746 342.902 297.71 343.087 299.119 342.727C300.494 342.377 301.404 341.936 302.013 340.889C302.53 339.999 302.319 339.352 302.157 338.38Z" fill="#0D4E73"/>
</svg>
