<svg width="85" height="71" viewBox="0 0 85 71" fill="none" xmlns="http://www.w3.org/2000/svg">
<mask id="mask0" mask-type="alpha" maskUnits="userSpaceOnUse" x="0" y="13" width="85" height="58">
<path d="M84.3458 13H0V70.5629H84.3458V13Z" fill="white"/>
<path fill-rule="evenodd" clip-rule="evenodd" d="M81.6885 41.7459C81.7677 41.1162 81.809 40.4798 81.809 39.8377C81.809 26.4208 64.0646 15.5439 42.1728 15.5439C20.2809 15.5439 2.53662 26.4208 2.53662 39.8377C2.53662 40.4798 2.57784 41.1162 2.65712 41.7459H2.53662V43.4419C2.53662 56.8592 20.2809 67.7357 42.1728 67.7357C64.0646 67.7357 81.809 56.8592 81.809 43.4419V41.7459H81.6885Z" fill="black"/>
</mask>
<g mask="url(#mask0)">
<path d="M81.6886 41.7462L79.1709 41.4253L78.8094 44.2904H81.6886V41.7462ZM2.65721 41.7462V44.2904H5.53637L5.17488 41.4253L2.65721 41.7462ZM2.53672 41.7462V39.2019H0V41.7462H2.53672ZM81.8091 41.7462H84.3458V39.2019H81.8091V41.7462ZM79.2724 39.838C79.2724 40.3723 79.2375 40.9015 79.1709 41.4253L84.2063 42.0671C84.2983 41.3318 84.3458 40.5882 84.3458 39.838H79.2724ZM42.1729 18.0884C52.7288 18.0884 62.1654 20.7163 68.8782 24.8306C75.6322 28.972 79.2724 34.3511 79.2724 39.838H84.3458C84.3458 31.9077 79.1107 25.1404 71.5227 20.4889C63.8904 15.8107 53.5057 13 42.1729 13V18.0884ZM5.07343 39.838C5.07343 34.3511 8.71363 28.972 15.4676 24.8306C22.1804 20.7163 31.617 18.0884 42.1729 18.0884V13C30.8401 13 20.4554 15.8107 12.8231 20.4889C5.23513 25.1404 0 31.9077 0 39.838H5.07343ZM5.17488 41.4253C5.1083 40.9015 5.07343 40.3723 5.07343 39.838H0C0 40.5882 0.0475449 41.3318 0.139501 42.0671L5.17488 41.4253ZM2.53672 44.2904H2.65721V39.2019H2.53672V44.2904ZM5.07343 43.4422V41.7462H0V43.4422H5.07343ZM42.1729 65.1918C31.617 65.1918 22.1804 62.5642 15.4676 58.4496C8.71363 54.3086 5.07343 48.9291 5.07343 43.4422H0C0 51.3725 5.23513 58.1401 12.8231 62.7916C20.4554 67.4698 30.8401 70.2802 42.1729 70.2802V65.1918ZM79.2724 43.4422C79.2724 48.9291 75.6322 54.3086 68.8782 58.4496C62.1654 62.5642 52.7288 65.1918 42.1729 65.1918V70.2802C53.5057 70.2802 63.8904 67.4698 71.5227 62.7916C79.1107 58.1401 84.3458 51.3725 84.3458 43.4422H79.2724ZM79.2724 41.7462V43.4422H84.3458V41.7462H79.2724ZM81.6886 44.2904H81.8091V39.2019H81.6886V44.2904Z" fill="#200033"/>
<path d="M81.809 43.4427C81.809 56.86 64.0646 67.7365 42.1728 67.7365C20.2809 67.7365 2.53662 56.86 2.53662 43.4427V39.5205H81.809V43.4427Z" fill="#FF6B2A"/>
<path d="M81.809 39.8026C81.809 53.2195 64.0646 64.0964 42.1728 64.0964C20.2809 64.0964 2.53662 53.2195 2.53662 39.8026C2.53662 26.3853 20.2809 15.5088 42.1728 15.5088C64.0646 15.5088 81.809 26.3853 81.809 39.8026Z" fill="#EB0405"/>
</g>
<path d="M11.6963 29.0567L12.2677 12.8051C12.2677 12.8051 13.8572 9.14522 15.6248 7.38787C17.2915 5.73097 18.1439 5.06959 20.7201 4.17067C23.2963 3.27174 25.4448 3.24103 28.5059 3.27174C32.5384 3.3122 35.4345 3.79217 38.7202 4.73841C42.0059 5.68465 48.5166 7.70458 53.8869 11.0072C60.0685 14.8088 63.742 17.4647 67.4345 23.6868C69.2182 26.6926 70.157 28.5389 70.8154 31.9664C71.9107 37.6674 71.8631 43.5105 70.8155 48.1707C70.124 51.2464 68.9049 52.1699 66.8631 54.5814C64.8213 56.9929 56.5774 61.5599 52.4345 62.1277C49.7202 62.4995 39.744 63.4524 34.1488 61.5599C31.4583 60.6501 26.651 57.1296 23.8867 52.5943C22.3153 50.0158 20.8187 45.2485 18.482 40.7191C16.0672 36.0374 11.6963 29.0567 11.6963 29.0567Z" fill="#F8ECE1"/>
<path d="M25.3572 34.1116C23.4048 31.746 18.3334 25.4062 18.3334 25.4062V27.3224C18.3334 28.86 19.3915 30.3206 19.9762 31.2966C21.762 34.2772 22.881 36.0278 23.4048 37.1159C23.9286 38.2041 26.4762 44.7095 26.4762 44.7095C26.4762 44.7095 26.7619 42.06 26.9286 40.0256C27.0953 37.9912 26.6672 35.6987 25.3572 34.1116Z" fill="#33468E"/>
<path d="M65.1428 45.3721C65.1428 45.3721 63.9949 47.146 61.8333 48.8968C59.6428 50.671 59.2857 50.6237 56.2143 51.9484C53.1428 53.2731 50.8333 52.0903 49.1666 51.3334C47.5 50.5764 50.115 52.5403 51.3333 53.2495C52.5437 53.954 52.6666 54.6452 52.6666 54.6452C52.6666 54.6452 52.7857 54.9291 52.3333 55.4022C51.8809 55.8753 51.3333 56.2774 51.3333 56.2774C51.3333 56.2774 51.7143 57.2237 55.2381 55.7807C59.882 53.8792 62.1573 51.7592 62.7619 50.9785C64.8871 48.2344 65.1428 45.3721 65.1428 45.3721Z" fill="#33468E"/>
<path fill-rule="evenodd" clip-rule="evenodd" d="M12.2677 12.8051C11.6963 14.2646 10.762 26.5184 11.6963 29.0567C12.1863 30.3872 13.3634 32.2409 14.7206 34.378C15.953 36.318 17.333 38.4914 18.482 40.7191C19.6234 42.932 20.5649 45.2017 21.412 47.2451C22.2991 49.3842 23.083 51.2757 23.8868 52.5943C26.651 57.1296 31.4583 60.6501 34.1488 61.5599C39.744 63.4524 49.7202 62.4995 52.4345 62.1277C56.5774 61.5599 64.8213 56.9929 66.8631 54.5814C67.205 54.1774 67.524 53.8154 67.8211 53.4776C69.2985 51.8 70.2399 50.7312 70.8155 48.1707C71.8631 43.5105 71.9107 37.6674 70.8154 31.9664C70.157 28.5389 69.2182 26.6926 67.4345 23.6868C63.742 17.4647 60.0685 14.8088 53.8869 11.0072C48.5166 7.70458 42.0059 5.68465 38.7202 4.73841C35.4345 3.79217 32.5384 3.3122 28.5059 3.27174C25.4449 3.24103 23.2963 3.27174 20.7201 4.17067C18.1439 5.06959 17.2915 5.73097 15.6249 7.38787C13.8572 9.14522 12.8391 11.3455 12.2677 12.8051ZM19.601 10.5341C18.5058 11.4577 17.6249 13.6282 17.6249 16.6846C17.6249 21.1183 21.4634 25.4253 23.8639 28.1186C24.5753 28.9173 25.161 29.5741 25.482 30.0502C26.8868 32.132 28.2202 35.1599 28.5298 36.6502C28.7774 37.8425 29.1488 39.8438 29.1488 39.8438C29.1488 39.8438 27.301 35.6567 27.0534 35.1836C25.3449 31.9191 20.8391 27.5191 20.8391 27.5191L17.6249 23.5212C17.6249 23.5212 16.9525 27.0388 17.6249 28.5599C18.0134 29.4384 18.802 30.8059 19.7025 32.367C20.3606 33.5089 21.0791 34.7545 21.7439 35.9879C23.1682 38.6291 24.1953 41.3392 25.1449 43.843C26.3787 47.0977 27.4801 50.0035 29.1488 51.9556C31.6616 54.8951 34.3354 56.1536 38.1012 57.0889C42.3869 58.1535 52.4107 57.5621 56.8631 55.7406C61.2568 53.9432 64.3276 51.0259 65.1668 47.7614C66.006 44.4969 66.2917 42.0911 66.2917 42.0911C66.2917 42.0911 64.2678 46.0474 61.6726 48.0997C59.3393 49.9449 57.5629 50.7473 55.2202 51.3642C52.8699 51.9831 49.006 51.0803 49.006 51.0803C49.006 51.0803 53.0961 50.4781 55.2202 49.5427C57.6651 48.4659 58.313 48.0462 60.2202 46.1836C63.0472 43.4228 64.2679 41.1922 64.9821 39.276C65.8218 37.0236 66.0365 34.4879 65.4583 32.1556C64.6239 28.7895 63.1852 26.3867 60.9107 23.7578C59.0298 21.5837 55.27 18.7247 51.6012 16.1879C47.7999 13.5594 44.0774 12.0766 42.1964 11.3384C38.2129 9.77504 32.9583 8.44742 30.7917 8.21583C27.8241 7.89856 25.273 8.04484 24.2201 8.21583C21.8858 8.59499 20.821 9.49893 19.7891 10.375C19.7263 10.4282 19.6639 10.4813 19.601 10.5341Z" fill="#1A0032"/>
<path d="M59.182 31.9358C59.8262 30.3922 59.801 27.7014 59.801 27.7014C59.801 27.7014 58.8631 29.6347 58.1343 30.8003C57.5423 31.7473 56.4915 33.1422 56.4915 33.1422C56.4915 33.1422 54.6335 29.1403 54.0867 26.4003C53.7179 24.5518 53.6105 21.5981 53.6105 21.5981C53.6105 21.5981 53.0951 24.5238 53.2296 26.4003C53.4005 28.7853 53.9811 30.0749 54.8248 32.3143C55.3822 33.7936 55.8428 34.5625 56.4915 36.0046C57.1352 37.4356 57.7503 38.151 58.1343 39.6712C58.6775 41.8217 58.1343 45.3487 58.1343 45.3487C58.1343 45.3487 54.5555 47.9882 51.8724 48.7078C50.1019 49.1828 49.0375 49.1393 47.2058 49.2282C45.7849 49.2973 43.5629 49.2282 43.5629 49.2282C43.5629 49.2282 43.8831 47.6386 44.2534 46.6734C44.9253 44.922 45.4313 43.8943 46.7772 42.5809C47.56 41.817 49.0391 40.925 49.0391 40.925C49.0391 40.925 48.195 40.874 47.6582 40.925C46.8186 41.0049 46.4045 41.5003 45.5629 41.4454C44.7255 41.3909 43.5629 40.6648 43.5629 40.6648L44.7772 42.5809C44.7772 42.5809 43.2635 44.1562 42.5629 45.3487C41.8457 46.5695 41.2058 48.7078 41.2058 48.7078C41.2058 48.7078 38.9208 48.1964 37.5867 47.5487C36.0126 46.7842 35.1186 46.2381 33.9439 44.9465C32.0279 42.84 32.1865 40.8713 31.2058 38.2046C30.2118 35.5017 30.3102 33.7138 28.8963 31.2024C27.7202 29.1135 25.0629 26.4003 25.0629 26.4003C25.0629 26.4003 28.2335 27.0784 30.0629 26.4003C30.8507 26.1083 31.9439 25.3594 31.9439 25.3594C31.9439 25.3594 31.1033 29.0789 31.9439 31.2024C32.5221 32.6631 33.2151 33.3475 34.3231 34.4418L34.3724 34.4906C35.3418 35.4481 37.1582 36.596 37.1582 36.596C37.1582 36.596 35.4076 35.0819 34.682 33.8282C33.9872 32.6278 33.7626 31.8359 33.5391 30.4691C33.2161 28.4934 33.6542 27.3402 33.9439 25.3594C34.2614 23.1878 35.1582 19.8712 35.1582 19.8712C35.1582 19.8712 36.6497 19.7523 37.5867 19.5637C38.5043 19.379 39.8963 18.925 39.8963 18.925C39.8963 18.925 41.4887 20.0988 42.5629 20.7702C44.144 21.7583 45.3237 21.852 46.7772 23.0175C47.77 23.8136 49.0391 25.3594 49.0391 25.3594C49.0391 25.3594 48.5355 23.5098 47.8248 22.5444C46.6628 20.9659 45.0793 21.1181 43.5629 19.8712C42.5701 19.0549 41.2058 17.5766 41.2058 17.5766C41.2058 17.5766 42.1218 16.6913 42.5629 16.0153C43.0975 15.1959 43.5629 13.7207 43.5629 13.7207L44.7772 14.2411C44.7772 14.2411 50.7242 17.4838 54.0867 20.1788C57.0857 22.5823 59.0394 23.8261 61.1343 27.039C62.4824 29.1065 63.4337 30.3274 63.801 32.7637C64.101 34.7531 63.9537 35.9701 63.3724 37.8971C62.6706 40.2236 60.1343 43.2196 60.1343 43.2196C60.1343 43.2196 59.6483 40.6436 59.182 39.0325C58.6576 37.2212 57.5391 34.4906 57.5391 34.4906C57.5391 34.4906 58.7255 33.0294 59.182 31.9358Z" fill="#33468E"/>
<path d="M32.8487 12.8217C31.3038 10.9517 27.4915 9.65186 27.4915 9.65186C27.4915 9.65186 31.9274 9.75296 34.682 10.3615C37.8903 11.0703 42.563 13.2949 42.563 13.2949C42.563 13.2949 41.2684 15.655 39.8963 16.583C38.2353 17.7065 34.8963 17.7895 34.8963 17.7895C34.8963 17.7895 34.1874 14.4422 32.8487 12.8217Z" fill="#33468E"/>
<path d="M22.7057 17.789C21.1818 16.922 19.4437 14.7138 19.4437 14.7138C19.4437 14.7138 19.1685 18.2047 20.0152 20.1783C20.9066 22.256 21.7971 23.5576 23.8485 24.531C25.6352 25.3788 26.9937 25.5495 28.8962 25.0041C30.589 24.5188 31.7493 23.9658 32.5867 22.4256C33.3747 20.976 33.223 19.8199 32.8486 18.2148C32.5827 17.0752 32.2322 16.4727 31.5867 15.4944C30.3236 13.5804 29.1643 12.6708 27.0628 11.7331C25.3661 10.976 23.1342 10.512 22.3961 10.7869L22.3614 10.7999C21.648 11.0653 21.3442 11.1785 21.0628 11.9933C20.7828 12.8054 22.0395 14.5206 23.0738 15.932L23.1342 16.0148C24.0704 17.2932 25.9676 18.9245 25.9676 18.9245C25.9676 18.9245 23.8771 18.4555 22.7057 17.789Z" fill="#33468E"/>
<path d="M49.8647 31.8268C49.6588 30.2996 49.3364 29.4075 48.4599 28.1365C47.6504 26.9624 45.2219 25.6491 44.5314 25.2978C43.8409 24.9464 40.5314 25.0611 39.7695 25.2978C38.7901 25.6018 38.0933 26.8588 37.8647 27.8526C37.6742 28.6805 37.6433 30.8095 37.8647 31.5429C38.1897 32.6194 38.5157 33.2013 39.198 34.0977C40.3366 35.5935 41.2839 36.3803 43.079 36.9601C44.4789 37.4123 45.4383 37.6407 46.8409 37.1967C48.2093 36.7634 49.1156 36.2192 49.7219 34.9257C50.2365 33.8275 50.0266 33.0275 49.8647 31.8268Z" fill="#F8ECE1"/>
<path fill-rule="evenodd" clip-rule="evenodd" d="M48.4599 28.1365C49.3364 29.4075 49.6588 30.2996 49.8647 31.8268C49.8844 31.9728 49.9048 32.1129 49.9245 32.2484C50.0669 33.2265 50.1739 33.961 49.7218 34.9257C49.1156 36.2192 48.2093 36.7634 46.8409 37.1967C45.4383 37.6407 44.4789 37.4123 43.079 36.9601C41.2839 36.3803 40.3366 35.5935 39.198 34.0977C38.5157 33.2013 38.1897 32.6194 37.8647 31.5429C37.6433 30.8095 37.6742 28.6805 37.8647 27.8526C38.0933 26.8588 38.7901 25.6018 39.7695 25.2978C40.5314 25.0611 43.8409 24.9464 44.5314 25.2978C45.2219 25.6491 47.6504 26.9624 48.4599 28.1365ZM47.9654 27.9755C48.7469 28.9048 49.0342 29.5569 49.2179 30.6733C49.2354 30.7801 49.2536 30.8825 49.2712 30.9816C49.3982 31.6966 49.4936 32.2336 49.0905 32.9388C48.55 33.8845 47.7419 34.2823 46.5219 34.599C45.2714 34.9236 44.416 34.7566 43.1678 34.4261C41.5673 34.0022 40.7228 33.4271 39.7076 32.3335C39.0993 31.6782 38.8086 31.2528 38.5189 30.4658C38.3215 29.9297 38.349 28.3733 38.5189 27.7679C38.7227 27.0415 39.344 26.1225 40.2171 25.9003C40.8964 25.7273 43.8471 25.6434 44.4628 25.9003C45.0784 26.1571 47.2437 27.1172 47.9654 27.9755Z" fill="#1A0032"/>
<path d="M46.2144 30.2953C46.1341 29.8101 46.0084 29.5267 45.6667 29.1229C45.3512 28.7499 44.4044 28.3327 44.1353 28.2211C43.8661 28.1095 42.5759 28.1459 42.2789 28.2211C41.8972 28.3177 41.6255 28.717 41.5364 29.0327C41.4622 29.2958 41.4501 29.9721 41.5364 30.205C41.6631 30.5471 41.7902 30.7319 42.0562 31.0167C42.5 31.4919 42.8693 31.7418 43.5691 31.926C44.1148 32.0696 44.4888 32.1422 45.0355 32.0012C45.569 31.8636 45.9223 31.6907 46.1586 31.2797C46.3593 30.9308 46.2774 30.6767 46.2144 30.2953Z" fill="#1A0032"/>
</svg>
