<svg width="187" height="171" viewBox="0 0 187 171" fill="none" xmlns="http://www.w3.org/2000/svg">
<mask id="mask0" mask-type="alpha" maskUnits="userSpaceOnUse" x="0" y="29" width="207" height="142">
<path d="M206.792 29.8723H0V171H206.792V29.8723Z" fill="white"/>
<path fill-rule="evenodd" clip-rule="evenodd" d="M200.276 100.348C200.471 98.8045 200.572 97.2443 200.572 95.67C200.572 62.7756 157.068 36.1086 103.395 36.1086C49.7227 36.1086 6.21875 62.7756 6.21875 95.67C6.21875 97.2443 6.31982 98.8045 6.51417 100.348H6.21875V104.507C6.21875 137.402 49.7227 164.068 103.395 164.068C157.068 164.068 200.572 137.402 200.572 104.507V100.348H200.276Z" fill="black"/>
</mask>
<g mask="url(#mask0)">
<path d="M200.277 100.35L194.104 99.5629L193.218 106.587H200.277V100.35ZM6.51472 100.35V106.587H13.5736L12.6873 99.5629L6.51472 100.35ZM6.2193 100.35V94.1119H0V100.35H6.2193ZM200.572 100.35H206.792V94.1119H200.572V100.35ZM194.353 95.6714C194.353 96.9813 194.268 98.2787 194.104 99.5629L206.45 101.136C206.675 99.3337 206.792 97.5107 206.792 95.6714H194.353ZM103.396 42.3477C129.276 42.3477 152.412 48.7905 168.869 58.8776C185.428 69.031 194.353 82.219 194.353 95.6714H206.792C206.792 76.2285 193.957 59.637 175.353 48.233C156.641 36.7634 131.181 29.8723 103.396 29.8723V42.3477ZM12.4386 95.6714C12.4386 82.219 21.3633 69.031 37.9222 58.8776C54.38 48.7905 77.5158 42.3477 103.396 42.3477V29.8723C75.6111 29.8723 50.1508 36.7634 31.4385 48.233C12.835 59.637 0 76.2285 0 95.6714H12.4386ZM12.6873 99.5629C12.5241 98.2787 12.4386 96.9813 12.4386 95.6714H0C0 97.5107 0.116566 99.3337 0.342016 101.136L12.6873 99.5629ZM6.2193 106.587H6.51472V94.1119H6.2193V106.587ZM12.4386 104.508V100.35H0V104.508H12.4386ZM103.396 157.831C77.5158 157.831 54.38 151.39 37.9222 141.302C21.3633 131.149 12.4386 117.96 12.4386 104.508H0C0 123.951 12.835 140.543 31.4385 151.947C50.1508 163.417 75.6111 170.307 103.396 170.307V157.831ZM194.353 104.508C194.353 117.96 185.428 131.149 168.869 141.302C152.412 151.39 129.276 157.831 103.396 157.831V170.307C131.181 170.307 156.641 163.417 175.353 151.947C193.957 140.543 206.792 123.951 206.792 104.508H194.353ZM194.353 100.35V104.508H206.792V100.35H194.353ZM200.277 106.587H200.572V94.1119H200.277V106.587Z" fill="#979797" fill-opacity="0.1"/>
<path d="M200.572 104.509C200.572 137.404 157.068 164.07 103.395 164.07C49.7227 164.07 6.21875 137.404 6.21875 104.509V94.8928H200.572V104.509Z" fill="#F5F3F3" fill-opacity="0.1"/>
<path d="M200.572 95.5846C200.572 128.479 157.068 155.146 103.395 155.146C49.7227 155.146 6.21875 128.479 6.21875 95.5846C6.21875 62.6893 49.7227 36.0232 103.395 36.0232C157.068 36.0232 200.572 62.6893 200.572 95.5846Z" fill="#FFFDFA" fill-opacity="0.1"/>
</g>
<path d="M28.6762 69.2386L30.0772 29.3943C30.0772 29.3943 33.9742 20.4214 38.3079 16.1129C42.3941 12.0506 44.4839 10.4291 50.8 8.22521C57.1161 6.0213 62.3838 5.94601 69.8886 6.0213C79.7752 6.12048 86.8754 7.29725 94.9311 9.61715C102.987 11.937 118.949 16.8893 132.115 24.9865C147.271 34.3069 156.277 40.8183 165.33 56.0731C169.704 63.4424 172.005 67.9691 173.619 76.3723C176.305 90.3497 176.188 104.675 173.619 116.101C171.924 123.641 168.935 125.906 163.929 131.818C158.923 137.73 138.712 148.927 128.555 150.319C121.9 151.231 97.4413 153.567 83.7232 148.927C77.1271 146.697 65.341 138.065 58.5638 126.946C54.7111 120.624 51.0417 108.936 45.3128 97.8313C39.3925 86.3532 28.6762 69.2386 28.6762 69.2386Z" fill="#F8ECE1" fill-opacity="0.1"/>
<path d="M62.1687 81.6319C57.3821 75.8321 44.9484 60.2888 44.9484 60.2888V64.9866C44.9484 68.7564 47.5426 72.3374 48.9762 74.7302C53.3543 82.0379 56.0979 86.3297 57.3821 88.9976C58.6663 91.6654 64.9123 107.615 64.9123 107.615C64.9123 107.615 65.6128 101.119 66.0214 96.1312C66.4301 91.1435 65.3805 85.5229 62.1687 81.6319Z" fill="#691806" fill-opacity="0.1"/>
<path d="M159.713 109.239C159.713 109.239 156.898 113.588 151.599 117.881C146.228 122.231 145.353 122.115 137.823 125.363C130.292 128.61 124.63 125.711 120.544 123.855C116.458 121.999 122.869 126.814 125.856 128.552C128.823 130.28 129.125 131.974 129.125 131.974C129.125 131.974 129.417 132.67 128.308 133.83C127.199 134.99 125.856 135.976 125.856 135.976C125.856 135.976 126.79 138.296 135.429 134.758C146.815 130.096 152.393 124.899 153.875 122.985C159.086 116.257 159.713 109.239 159.713 109.239Z" fill="#691806" fill-opacity="0.1"/>
<path fill-rule="evenodd" clip-rule="evenodd" d="M30.0772 29.3943C28.6763 32.9727 26.3857 63.0154 28.6763 69.2386C29.8776 72.5006 32.7636 77.0454 36.0909 82.285C39.1124 87.0411 42.4957 92.3698 45.3129 97.8313C48.1113 103.257 50.4194 108.821 52.4964 113.831C54.6714 119.076 56.5931 123.713 58.5638 126.946C65.341 138.065 77.1271 146.697 83.7233 148.927C97.4413 153.567 121.9 151.231 128.555 150.319C138.712 148.927 158.923 137.73 163.929 131.818C164.768 130.827 165.55 129.94 166.278 129.112C169.9 124.999 172.208 122.378 173.619 116.101C176.188 104.675 176.305 90.3497 173.619 76.3723C172.005 67.9691 169.704 63.4424 165.33 56.0731C156.277 40.8183 147.271 34.3069 132.115 24.9865C118.949 16.8893 102.987 11.937 94.9311 9.61715C86.8755 7.29725 79.7752 6.12048 69.8886 6.0213C62.3838 5.94601 57.1161 6.0213 50.8 8.22521C44.484 10.4291 42.3942 12.0506 38.308 16.1129C33.9743 20.4214 31.4782 25.8158 30.0772 29.3943ZM48.0565 23.8265C45.3712 26.0909 43.2114 31.4124 43.2114 38.9059C43.2114 49.7759 52.6225 60.3355 58.5078 66.9387C60.252 68.8969 61.688 70.5071 62.4749 71.6745C65.9189 76.7782 69.1882 84.2019 69.9471 87.8558C70.5542 90.7788 71.4648 95.6854 71.4648 95.6854C71.4648 95.6854 66.9346 85.4199 66.3276 84.2599C62.1386 76.2563 51.0919 65.4687 51.0919 65.4687L43.2114 55.6672C43.2114 55.6672 41.5629 64.2914 43.2114 68.0206C44.1641 70.1743 46.0974 73.5271 48.3051 77.3544C49.9186 80.1542 51.6803 83.2078 53.3101 86.2318C56.8021 92.7073 59.3203 99.3518 61.6483 105.49C64.6732 113.47 67.3736 120.594 71.4648 125.38C77.6255 132.587 84.1809 135.672 93.4135 137.966C103.921 140.575 128.496 139.126 139.412 134.66C150.184 130.253 157.713 123.101 159.77 115.097C161.828 107.094 162.528 101.195 162.528 101.195C162.528 101.195 157.566 110.895 151.204 115.927C145.483 120.45 141.128 122.418 135.384 123.93C129.622 125.447 120.149 123.234 120.149 123.234C120.149 123.234 130.177 121.758 135.384 119.464C141.379 116.824 142.967 115.795 147.643 111.229C154.574 104.46 157.567 98.9913 159.318 94.2935C161.376 88.7712 161.903 82.5542 160.485 76.8362C158.439 68.5834 154.912 62.6926 149.336 56.2471C144.724 50.9169 135.506 43.9076 126.512 37.6879C117.192 31.2436 108.065 27.6082 103.454 25.7984C93.6873 21.9655 80.8047 18.7106 75.4926 18.1428C68.217 17.3649 61.9623 17.7236 59.381 18.1428C53.658 19.0724 51.0475 21.2886 48.5176 23.4366C48.3635 23.5669 48.2106 23.697 48.0565 23.8265Z" fill="#621706" fill-opacity="0.1"/>
<path d="M145.097 76.2967C146.677 72.5124 146.615 65.9152 146.615 65.9152C146.615 65.9152 144.315 70.6552 142.529 73.5129C141.077 75.8346 138.501 79.2546 138.501 79.2546C138.501 79.2546 133.946 69.4431 132.605 62.7253C131.701 58.1934 131.438 50.9518 131.438 50.9518C131.438 50.9518 130.174 58.1249 130.504 62.7253C130.923 68.5728 132.346 71.7346 134.415 77.2247C135.781 80.8516 136.911 82.7367 138.501 86.2723C140.079 89.7807 141.587 91.5347 142.529 95.2619C143.861 100.534 142.529 109.181 142.529 109.181C142.529 109.181 133.754 115.653 127.176 117.417C122.836 118.582 120.226 118.475 115.735 118.693C112.251 118.862 106.804 118.693 106.804 118.693C106.804 118.693 107.589 114.795 108.497 112.429C110.144 108.135 111.384 105.616 114.684 102.396C116.604 100.523 120.23 98.3358 120.23 98.3358C120.23 98.3358 118.16 98.2106 116.844 98.3358C114.786 98.5316 113.771 99.7462 111.707 99.6117C109.654 99.478 106.804 97.6978 106.804 97.6978L109.781 102.396C109.781 102.396 106.07 106.258 104.352 109.181C102.594 112.174 101.025 117.417 101.025 117.417C101.025 117.417 95.4228 116.163 92.152 114.575C88.2926 112.701 86.1009 111.362 83.2207 108.195C78.5234 103.031 78.9122 98.204 76.5077 91.6661C74.0707 85.0395 74.312 80.6561 70.8454 74.4988C67.962 69.3773 61.4471 62.7253 61.4471 62.7253C61.4471 62.7253 69.2205 64.3879 73.7057 62.7253C75.6371 62.0094 78.3173 60.1734 78.3173 60.1734C78.3173 60.1734 76.2565 69.2926 78.3173 74.4988C79.7349 78.0799 81.434 79.758 84.1504 82.4409L84.2715 82.5605C86.648 84.908 91.1012 87.7223 91.1012 87.7223C91.1012 87.7223 86.8093 84.0101 85.0303 80.9366C83.3268 77.9935 82.7763 76.052 82.2284 72.7009C81.4363 67.857 82.5105 65.0298 83.2207 60.1734C83.9993 54.8493 86.1978 46.718 86.1978 46.718C86.1978 46.718 89.8546 46.4265 92.152 45.9641C94.4016 45.5112 97.8142 44.3981 97.8142 44.3981C97.8142 44.3981 101.719 47.276 104.352 48.9219C108.228 51.3446 111.121 51.5742 114.684 54.4317C117.118 56.3835 120.23 60.1734 120.23 60.1734C120.23 60.1734 118.995 55.6386 117.253 53.2717C114.404 49.4019 110.521 49.775 106.804 46.718C104.37 44.7165 101.025 41.0923 101.025 41.0923C101.025 41.0923 103.271 38.9218 104.352 37.2644C105.663 35.2555 106.804 31.6387 106.804 31.6387L109.781 32.9146C109.781 32.9146 124.361 40.8647 132.605 47.472C139.958 53.3648 144.748 56.4142 149.884 64.2913C153.189 69.3602 155.521 72.3536 156.422 78.3267C157.157 83.204 156.796 86.1879 155.371 90.9121C153.65 96.6162 147.432 103.962 147.432 103.962C147.432 103.962 146.241 97.646 145.097 93.696C143.812 89.255 141.069 82.5605 141.069 82.5605C141.069 82.5605 143.978 78.9781 145.097 76.2967Z" fill="#B32D2D" fill-opacity="0.1"/>
<path d="M80.5349 29.4347C76.7474 24.8499 67.4007 21.6631 67.4007 21.6631C67.4007 21.6631 78.2762 21.911 85.0297 23.403C92.8954 25.1407 104.352 30.5947 104.352 30.5947C104.352 30.5947 101.178 36.3811 97.8137 38.6563C93.7414 41.4109 85.5551 41.6142 85.5551 41.6142C85.5551 41.6142 83.8169 33.4077 80.5349 29.4347Z" fill="#B32D2D" fill-opacity="0.1"/>
<path d="M55.6694 41.614C51.9335 39.4883 47.6722 34.0744 47.6722 34.0744C47.6722 34.0744 46.9974 42.633 49.0732 47.4718C51.2587 52.5658 53.4419 55.7568 58.4714 58.1433C62.8518 60.2218 66.1826 60.6403 70.8468 59.3033C74.9972 58.1134 77.8419 56.7578 79.8948 52.9815C81.827 49.4276 81.4549 46.593 80.5369 42.658C79.8851 39.864 79.0259 38.3867 77.4431 35.9883C74.3464 31.2956 71.5041 29.0657 66.3519 26.7667C62.1922 24.9104 56.7202 23.7727 54.9106 24.4468L54.8254 24.4785C53.0765 25.1293 52.3316 25.407 51.6416 27.4046C50.9552 29.3955 54.0361 33.6007 56.5719 37.061L56.7202 37.2642C59.0154 40.3984 63.6667 44.3979 63.6667 44.3979C63.6667 44.3979 58.5414 43.2479 55.6694 41.614Z" fill="#B32D2D" fill-opacity="0.1"/>
<path d="M122.255 76.0302C121.75 72.286 120.959 70.099 118.811 66.9826C116.826 64.1042 110.872 60.8843 109.179 60.0229C107.486 59.1615 99.3721 59.4429 97.5041 60.0229C95.1031 60.7684 93.3947 63.8502 92.8342 66.2867C92.3672 68.3166 92.2914 73.5362 92.8342 75.3343C93.6309 77.9735 94.4302 79.4002 96.1031 81.598C98.8945 85.2652 101.217 87.1942 105.618 88.6157C109.05 89.7243 111.403 90.2843 114.841 89.1957C118.196 88.1335 120.418 86.7992 121.904 83.6279C123.166 80.9353 122.652 78.9741 122.255 76.0302Z" fill="#F8ECE1" fill-opacity="0.1"/>
<path fill-rule="evenodd" clip-rule="evenodd" d="M118.811 66.9826C120.959 70.099 121.75 72.286 122.255 76.0302C122.303 76.3882 122.353 76.7318 122.401 77.0639C122.751 79.462 123.013 81.2628 121.904 83.6279C120.418 86.7992 118.196 88.1335 114.841 89.1957C111.403 90.2843 109.05 89.7243 105.618 88.6157C101.217 87.1942 98.8945 85.2652 96.1031 81.598C94.4302 79.4002 93.6309 77.9735 92.8342 75.3343C92.2914 73.5362 92.3672 68.3166 92.8342 66.2867C93.3947 63.8502 95.1031 60.7684 97.5041 60.0229C99.3721 59.4429 107.486 59.1615 109.179 60.0229C110.872 60.8843 116.826 64.1042 118.811 66.9826ZM117.598 66.588C119.514 68.8663 120.219 70.4652 120.669 73.2023C120.712 73.4641 120.756 73.7152 120.8 73.958C121.111 75.7111 121.345 77.0276 120.356 78.7566C119.031 81.0751 117.05 82.0505 114.059 82.827C110.993 83.6228 108.896 83.2133 105.836 82.403C101.912 81.3638 99.8413 79.9537 97.3525 77.2727C95.861 75.666 95.1482 74.623 94.438 72.6935C93.954 71.3791 94.0215 67.5632 94.438 66.0792C94.9376 64.2981 96.4608 62.0451 98.6015 61.5001C100.267 61.0761 107.501 60.8703 109.011 61.5001C110.52 62.1299 115.829 64.4838 117.598 66.588Z" fill="#621706" fill-opacity="0.1"/>
<path d="M113.306 72.2757C113.109 71.0862 112.801 70.3914 111.963 69.4014C111.189 68.487 108.868 67.464 108.208 67.1904C107.548 66.9168 104.385 67.0062 103.657 67.1904C102.721 67.4272 102.055 68.4062 101.837 69.1803C101.655 69.8252 101.625 71.4834 101.837 72.0545C102.147 72.893 102.459 73.3462 103.111 74.0444C104.199 75.2095 105.105 75.8223 106.82 76.2738C108.158 76.626 109.075 76.8039 110.416 76.4581C111.724 76.1207 112.59 75.6969 113.169 74.6893C113.661 73.8339 113.46 73.2109 113.306 72.2757Z" fill="#621706" fill-opacity="0.1"/>
</svg>
