<svg width="154" height="140" viewBox="0 0 154 140" fill="none" xmlns="http://www.w3.org/2000/svg">
<g opacity="0.32">
<mask id="mask0" mask-type="alpha" maskUnits="userSpaceOnUse" x="0" y="19" width="177" height="122">
<path d="M176.908 19.2666H0V140H176.908V19.2666Z" fill="white"/>
<path fill-rule="evenodd" clip-rule="evenodd" d="M171.331 79.558C171.497 78.2373 171.584 76.9026 171.584 75.5558C171.584 47.4149 134.366 24.6016 88.45 24.6016C42.5337 24.6016 5.31641 47.4149 5.31641 75.5558C5.31641 76.9026 5.40287 78.2373 5.56914 79.558H5.31641V83.1153C5.31641 111.257 42.5337 134.07 88.45 134.07C134.366 134.07 171.584 111.257 171.584 83.1153V79.558H171.331Z" fill="black"/>
</mask>
<g mask="url(#mask0)">
<path d="M171.335 79.5593L166.055 78.8863L165.296 84.8956H171.335V79.5593ZM5.57329 79.5593V84.8956H11.6121L10.8539 78.8863L5.57329 79.5593ZM5.32056 79.5593V74.223H0V79.5593H5.32056ZM171.588 79.5593H176.908V74.223H171.588V79.5593ZM166.267 75.5571C166.267 76.6777 166.194 77.7877 166.055 78.8863L176.616 80.2324C176.809 78.6902 176.908 77.1306 176.908 75.5571H166.267ZM88.4542 29.9392C110.594 29.9392 130.387 35.4509 144.466 44.0804C158.632 52.7665 166.267 64.0487 166.267 75.5571H176.908C176.908 58.9239 165.928 44.73 150.013 34.974C134.005 25.1619 112.224 19.2666 88.4542 19.2666V29.9392ZM10.6411 75.5571C10.6411 64.0487 18.2761 52.7665 32.4421 44.0804C46.5216 35.4509 66.3141 29.9392 88.4542 29.9392V19.2666C64.6847 19.2666 42.9036 25.1619 26.8954 34.974C10.9803 44.73 0 58.9239 0 75.5571H10.6411ZM10.8539 78.8863C10.7142 77.7877 10.6411 76.6777 10.6411 75.5571H0C0 77.1306 0.0997215 78.6902 0.292592 80.2324L10.8539 78.8863ZM5.32056 84.8956H5.57329V74.223H5.32056V84.8956ZM10.6411 83.1166V79.5593H0V83.1166H10.6411ZM88.4542 128.735C66.3141 128.735 46.5216 123.224 32.4421 114.593C18.2761 105.908 10.6411 94.625 10.6411 83.1166H0C0 99.7498 10.9803 113.944 26.8954 123.7C42.9036 133.513 64.6847 139.407 88.4542 139.407V128.735ZM166.267 83.1166C166.267 94.625 158.632 105.908 144.466 114.593C130.387 123.224 110.594 128.735 88.4542 128.735V139.407C112.224 139.407 134.005 133.513 150.013 123.7C165.928 113.944 176.908 99.7498 176.908 83.1166H166.267ZM166.267 79.5593V83.1166H176.908V79.5593H166.267ZM171.335 84.8956H171.588V74.223H171.335V84.8956Z" fill="#979797"/>
<path d="M171.584 83.1177C171.584 111.259 134.366 134.072 88.45 134.072C42.5337 134.072 5.31641 111.259 5.31641 83.1177V74.8911H171.584V83.1177Z" fill="#F5F3F3"/>
<path d="M171.584 75.4826C171.584 103.623 134.366 126.437 88.45 126.437C42.5337 126.437 5.31641 103.623 5.31641 75.4826C5.31641 47.341 42.5337 24.5283 88.45 24.5283C134.366 24.5283 171.584 47.341 171.584 75.4826Z" fill="#112A46"/>
</g>
<path d="M24.5296 52.9439L25.7281 18.8574C25.7281 18.8574 29.062 11.1812 32.7694 7.49529C36.2651 4.02007 38.0529 2.63289 43.4563 0.747472C48.8596 -1.13795 53.3661 -1.20236 59.7864 -1.13795C68.2443 -1.05311 74.3185 -0.0463895 81.21 1.93826C88.1015 3.92292 101.757 8.15956 113.021 15.0866C125.986 23.0601 133.691 28.6306 141.436 41.681C145.177 47.9853 147.146 51.8579 148.527 59.0467C150.824 71.0042 150.725 83.2595 148.527 93.0339C147.077 99.485 144.52 101.422 140.237 106.48C135.955 111.538 118.664 121.117 109.975 122.308C104.282 123.087 83.3575 125.086 71.6218 121.117C65.9789 119.208 55.896 111.825 50.0981 102.312C46.8021 96.904 43.663 86.905 38.762 77.4047C33.6973 67.5853 24.5296 52.9439 24.5296 52.9439Z" fill="#F8ECE1"/>
<path d="M53.183 63.5464C49.088 58.5848 38.4511 45.2876 38.4511 45.2876V49.3065C38.4511 52.5316 40.6704 55.5951 41.8969 57.6421C45.6422 63.8937 47.9894 67.5653 49.088 69.8477C50.1866 72.13 55.5301 85.7745 55.5301 85.7745C55.5301 85.7745 56.1293 80.2175 56.4789 75.9505C56.8285 71.6835 55.9306 66.8752 53.183 63.5464Z" fill="#691806"/>
<path d="M136.635 87.1641C136.635 87.1641 134.227 90.8848 129.693 94.5569C125.099 98.2781 124.35 98.1789 117.908 100.957C111.466 103.736 106.622 101.255 103.126 99.6674C99.6303 98.0797 105.115 102.199 107.67 103.686C110.209 105.164 110.467 106.614 110.467 106.614C110.467 106.614 110.717 107.209 109.768 108.201C108.819 109.194 107.67 110.037 107.67 110.037C107.67 110.037 108.469 112.022 115.86 108.995C125.601 105.007 130.373 100.56 131.641 98.9231C136.098 93.1676 136.635 87.1641 136.635 87.1641Z" fill="#691806"/>
<path fill-rule="evenodd" clip-rule="evenodd" d="M25.7281 18.8574C24.5296 21.9188 22.57 47.62 24.5296 52.9439C25.5573 55.7345 28.0263 59.6225 30.8728 64.105C33.4576 68.1738 36.352 72.7325 38.7621 77.4047C41.1561 82.0461 43.1307 86.8066 44.9075 91.0926C46.7682 95.5792 48.4122 99.5465 50.0981 102.312C55.896 111.825 65.9789 119.208 71.6218 121.117C83.3575 125.086 104.282 123.087 109.975 122.308C118.664 121.117 135.955 111.538 140.237 106.48C140.955 105.632 141.624 104.873 142.247 104.165C145.345 100.646 147.32 98.4044 148.527 93.0339C150.725 83.2595 150.824 71.0042 148.527 59.0467C147.146 51.8579 145.177 47.9853 141.436 41.681C133.691 28.6306 125.986 23.0601 113.021 15.0866C101.757 8.15956 88.1015 3.92292 81.21 1.93826C74.3185 -0.0463895 68.2443 -1.05311 59.7864 -1.13795C53.3661 -1.20236 48.8596 -1.13795 43.4563 0.747472C38.0529 2.63289 36.2651 4.02007 32.7694 7.49529C29.062 11.1812 26.9266 15.7961 25.7281 18.8574ZM41.1092 14.0943C38.812 16.0314 36.9643 20.5839 36.9643 26.9945C36.9643 36.2937 45.0154 45.3274 50.0502 50.9764C51.5423 52.6515 52.7708 54.0291 53.444 55.0278C56.3904 59.394 59.1872 65.7449 59.8364 68.8707C60.3558 71.3714 61.1348 75.5689 61.1348 75.5689C61.1348 75.5689 57.2593 66.7868 56.7399 65.7945C53.1563 58.9474 43.706 49.7188 43.706 49.7188L36.9643 41.3336C36.9643 41.3336 35.554 48.7116 36.9643 51.9019C37.7793 53.7444 39.4332 56.6127 41.3219 59.8869C42.7022 62.2821 44.2094 64.8945 45.6036 67.4815C48.591 73.0211 50.7453 78.7055 52.7369 83.9569C55.3247 90.7834 57.6348 96.8782 61.1348 100.972C66.4052 107.138 72.0133 109.777 79.9117 111.739C88.9007 113.972 109.925 112.732 119.263 108.911C128.479 105.141 134.919 99.0226 136.68 92.1755C138.44 85.3285 139.039 80.2825 139.039 80.2825C139.039 80.2825 134.794 88.5805 129.351 92.885C124.457 96.7551 120.731 98.4381 115.818 99.7321C110.888 101.03 102.784 99.1367 102.784 99.1367C102.784 99.1367 111.362 97.8735 115.818 95.9116C120.946 93.6531 122.304 92.7729 126.305 88.8661C132.234 83.0757 134.794 78.3971 136.292 74.3781C138.053 69.6539 138.504 64.3353 137.291 59.4436C135.541 52.3834 132.523 47.3439 127.753 41.8298C123.808 37.2699 115.922 31.2734 108.227 25.9526C100.254 20.4395 92.4463 17.3295 88.5011 15.7812C80.1459 12.5022 69.125 9.71761 64.5806 9.23187C58.3563 8.56641 53.0055 8.87324 50.7972 9.23187C45.9013 10.0271 43.668 11.9231 41.5037 13.7606C41.3718 13.8722 41.241 13.9834 41.1092 14.0943Z" fill="#621706"/>
<path d="M124.131 58.9824C125.482 55.745 125.43 50.1011 125.43 50.1011C125.43 50.1011 123.462 54.1561 121.934 56.6008C120.692 58.5871 118.488 61.5129 118.488 61.5129C118.488 61.5129 114.591 53.1192 113.444 47.3722C112.671 43.4952 112.446 37.3001 112.446 37.3001C112.446 37.3001 111.364 43.4365 111.647 47.3722C112.005 52.3746 113.223 55.0795 114.992 59.7763C116.161 62.8791 117.127 64.4917 118.488 67.5164C119.838 70.5178 121.128 72.0183 121.934 75.207C123.073 79.7174 121.934 87.1149 121.934 87.1149C121.934 87.1149 114.427 92.6511 108.8 94.1604C105.086 95.1567 102.854 95.0654 99.0121 95.252C96.0318 95.3969 91.3715 95.252 91.3715 95.252C91.3715 95.252 92.0429 91.9178 92.8197 89.8934C94.229 86.2199 95.2901 84.0645 98.1132 81.3098C99.755 79.7076 102.857 77.8366 102.857 77.8366C102.857 77.8366 101.087 77.7296 99.9609 77.8366C98.2 78.0042 97.3315 79.0432 95.5663 78.9282C93.81 78.8138 91.3715 77.2909 91.3715 77.2909L93.9183 81.3098C93.9183 81.3098 90.7434 84.6138 89.274 87.1149C87.7697 89.6754 86.4275 94.1604 86.4275 94.1604C86.4275 94.1604 81.635 93.0877 78.8369 91.7292C75.5353 90.1258 73.6603 88.9804 71.1963 86.2714C67.1777 81.8533 67.5104 77.7239 65.4534 72.1308C63.3685 66.4618 63.575 62.7118 60.6093 57.4443C58.1426 53.0629 52.5691 47.3722 52.5691 47.3722C52.5691 47.3722 59.2192 48.7945 63.0563 47.3722C64.7086 46.7597 67.0015 45.1891 67.0015 45.1891C67.0015 45.1891 65.2384 52.9905 67.0015 57.4443C68.2142 60.5079 69.6678 61.9435 71.9916 64.2387L72.0952 64.341C74.1283 66.3493 77.938 68.7569 77.938 68.7569C77.938 68.7569 74.2663 65.5811 72.7444 62.9517C71.2871 60.434 70.8161 58.773 70.3473 55.9062C69.6698 51.7623 70.5887 49.3437 71.1963 45.1891C71.8624 40.6343 73.7432 33.6781 73.7432 33.6781C73.7432 33.6781 76.8715 33.4287 78.8369 33.0331C80.7614 32.6457 83.6809 31.6934 83.6809 31.6934C83.6809 31.6934 87.021 34.1554 89.274 35.5635C92.5902 37.6361 95.0645 37.8325 98.1132 40.2771C100.195 41.9468 102.857 45.1891 102.857 45.1891C102.857 45.1891 101.801 41.3096 100.31 39.2847C97.8733 35.9741 94.5518 36.2933 91.3715 33.6781C89.2891 31.9658 86.4275 28.8653 86.4275 28.8653C86.4275 28.8653 88.3489 27.0085 89.274 25.5906C90.3954 23.872 91.3715 20.7778 91.3715 20.7778L93.9183 21.8694C93.9183 21.8694 106.392 28.6706 113.444 34.3231C119.734 39.3643 123.832 41.973 128.226 48.7118C131.054 53.0483 133.049 55.6091 133.819 60.719C134.448 64.8915 134.139 67.4442 132.92 71.4858C131.448 76.3655 126.129 82.6494 126.129 82.6494C126.129 82.6494 125.109 77.2465 124.131 73.8673C123.031 70.0681 120.685 64.341 120.685 64.341C120.685 64.341 123.174 61.2763 124.131 58.9824Z" fill="#B32D2D"/>
<path d="M68.8965 18.8922C65.6563 14.97 57.6604 12.2437 57.6604 12.2437C57.6604 12.2437 66.9642 12.4557 72.7418 13.7321C79.4708 15.2187 89.2715 19.8846 89.2715 19.8846C89.2715 19.8846 86.5561 24.8348 83.6784 26.7812C80.1945 29.1377 73.1913 29.3117 73.1913 29.3117C73.1913 29.3117 71.7043 22.2911 68.8965 18.8922Z" fill="#B32D2D"/>
<path d="M47.6253 29.3115C44.4293 27.4929 40.7837 22.8613 40.7837 22.8613C40.7837 22.8613 40.2065 30.1832 41.9823 34.3227C43.852 38.6806 45.7197 41.4105 50.0224 43.4521C53.7698 45.2303 56.6193 45.5883 60.6094 44.4444C64.1601 43.4265 66.5937 42.2668 68.3499 39.0363C70.0029 35.9959 69.6846 33.5709 68.8992 30.2046C68.3416 27.8143 67.6065 26.5505 66.2525 24.4987C63.6033 20.4841 61.1718 18.5765 56.7641 16.6097C53.2055 15.0216 48.5242 14.0484 46.9761 14.625L46.9032 14.6522C45.4071 15.2089 44.7698 15.4465 44.1796 17.1554C43.5923 18.8586 46.2281 22.4562 48.3974 25.4164L48.5242 25.5902C50.4878 28.2715 54.4669 31.693 54.4669 31.693C54.4669 31.693 50.0823 30.7093 47.6253 29.3115Z" fill="#B32D2D"/>
<path d="M104.587 58.7542C104.155 55.551 103.479 53.68 101.641 51.014C99.9428 48.5516 94.8491 45.797 93.4009 45.0601C91.9526 44.3231 85.0112 44.5638 83.4132 45.0601C81.3591 45.6978 79.8976 48.3342 79.4181 50.4186C79.0186 52.1552 78.9537 56.6206 79.4181 58.1588C80.0996 60.4166 80.7835 61.6372 82.2146 63.5173C84.6026 66.6546 86.5895 68.3048 90.3546 69.5209C93.2908 70.4693 95.3031 70.9484 98.2449 70.0171C101.115 69.1084 103.016 67.9669 104.287 65.2539C105.367 62.9504 104.927 61.2726 104.587 58.7542Z" fill="#F8ECE1"/>
<path fill-rule="evenodd" clip-rule="evenodd" d="M101.641 51.014C103.479 53.68 104.155 55.551 104.587 58.7542C104.628 59.0604 104.671 59.3543 104.713 59.6384C105.011 61.69 105.236 63.2305 104.287 65.2539C103.016 67.9669 101.115 69.1084 98.2449 70.0171C95.3031 70.9484 93.2908 70.4693 90.3546 69.5209C86.5896 68.3048 84.6026 66.6546 82.2146 63.5173C80.7835 61.6372 80.0996 60.4166 79.4181 58.1588C78.9538 56.6206 79.0186 52.1552 79.4181 50.4186C79.8976 48.3342 81.3591 45.6978 83.4132 45.0601C85.0112 44.5638 91.9526 44.3231 93.4009 45.0601C94.8491 45.797 99.9428 48.5516 101.641 51.014ZM100.603 50.6764C102.242 52.6255 102.845 53.9933 103.23 56.3349C103.267 56.5588 103.305 56.7737 103.342 56.9814C103.609 58.4812 103.809 59.6074 102.963 61.0865C101.83 63.07 100.135 63.9044 97.5757 64.5687C94.9529 65.2495 93.1589 64.8992 90.5409 64.206C87.184 63.317 85.4126 62.1106 83.2834 59.817C82.0075 58.4426 81.3977 57.5503 80.7901 55.8996C80.3761 54.7751 80.4338 51.5107 80.7901 50.2411C81.2176 48.7174 82.5207 46.79 84.352 46.3238C85.7768 45.961 91.9657 45.785 93.2569 46.3238C94.5482 46.8625 99.0897 48.8763 100.603 50.6764Z" fill="#621706"/>
<path d="M96.9305 55.5422C96.7622 54.5245 96.4986 53.9301 95.782 53.0832C95.1201 52.3009 93.1343 51.4258 92.5698 51.1917C92.0052 50.9576 89.2993 51.0341 88.6763 51.1917C87.8756 51.3943 87.3059 52.2319 87.1189 52.894C86.9632 53.4458 86.938 54.8643 87.1189 55.3529C87.3846 56.0703 87.6513 56.458 88.2091 57.0553C89.1401 58.052 89.9146 58.5762 91.3823 58.9625C92.527 59.2638 93.3114 59.416 94.4581 59.1202C95.577 58.8315 96.318 58.4689 96.8137 57.607C97.2346 56.8752 97.0629 56.3422 96.9305 55.5422Z" fill="#621706"/>
</g>
</svg>
