<svg width="160" height="171" viewBox="0 0 160 171" fill="none" xmlns="http://www.w3.org/2000/svg">
<g opacity="0.4">
<path d="M172.834 39.6628C174.33 41.1984 174.537 43.6153 173.323 45.3946C151.121 77.9512 123.667 106.379 92.1436 129.453L89.6542 131.275C87.8287 132.611 85.3297 132.398 83.7442 130.77L72.5374 119.268C79.1529 112.238 79.0804 101.034 72.3195 94.0949C65.5583 87.1559 54.642 87.0815 47.7918 93.8713L37.4834 83.2914C35.5231 81.2795 35.7935 77.9423 38.0506 76.2904L40.5416 74.467C71.3028 51.9509 98.0933 24.2106 119.758 -7.5589C121.276 -9.78405 124.384 -10.0635 126.255 -8.14275L136.746 2.62492C130.156 9.65718 130.236 20.8419 136.989 27.7721C143.742 34.7024 154.639 34.7855 161.491 28.0211L172.834 39.6628Z" fill="#48AF99"/>
<path d="M177.802 42.8499L137.736 94.9186L85.9158 135.178L75.9499 124.876L72.3544 120.402L75.9499 115.063L77.2099 109.723L76.5162 104.028L74.4353 98.6883L70.9669 94.4167L66.8049 91.569L62.2961 90.1451H56.7469L50.8507 92.281L47.3824 95.4845L39.0586 85.1617L52.5993 83.0891C94.5981 76.6603 134.281 59.2561 167.836 32.5479L177.802 42.8499Z" fill="#279191"/>
<path fill-rule="evenodd" clip-rule="evenodd" d="M67.4811 119.778C67.4827 118.265 68.0704 116.815 69.1147 115.748L69.1333 115.729C73.8006 110.939 73.8006 103.172 69.1333 98.3822C64.466 93.592 56.8988 93.592 52.2315 98.3822L52.2131 98.4011C51.1731 99.4728 49.7605 100.076 48.2869 100.078C46.813 100.079 45.3992 99.4791 44.3571 98.4095L33.5602 87.3285C29.1739 82.8268 29.7788 75.3596 34.8291 71.6628L37.3201 69.8395L40.5423 74.4767L38.0513 76.3C35.7942 77.952 35.5238 81.2892 37.484 83.3011L48.281 94.3823L48.3076 94.3548C48.3161 94.3461 48.3245 94.3374 48.3333 94.3287C55.1695 87.3404 66.2312 87.3491 73.0572 94.3548C79.8826 101.36 79.8916 112.712 73.0842 119.728C73.0753 119.737 73.0661 119.747 73.0572 119.756L73.0303 119.783L83.7448 130.78C85.3303 132.407 87.8293 132.62 89.6549 131.284L92.1442 129.462C123.668 106.388 151.122 77.9607 173.324 45.4043C174.537 43.625 174.331 41.2081 172.834 39.6724L161.58 28.1215C161.539 28.1643 161.498 28.2068 161.457 28.2494C161.415 28.2917 161.373 28.334 161.332 28.3761C154.488 35.2633 143.5 35.2212 136.707 28.2494C129.914 21.2773 129.873 9.99977 136.584 2.97573C136.625 2.93294 136.666 2.89039 136.707 2.84808C136.749 2.80553 136.79 2.76347 136.832 2.7214L126.256 -8.13306C124.384 -10.0538 121.277 -9.77436 119.759 -7.54921C98.0939 24.2202 71.3034 51.9605 40.5423 74.4767L37.3201 69.8395C67.5671 47.7 93.9097 20.4234 115.213 -10.8149C118.709 -15.9418 125.868 -16.5854 130.18 -12.1605L140.756 -1.30581C141.803 -0.23095 142.388 1.22903 142.381 2.7492C142.374 4.26938 141.775 5.72355 140.717 6.78802C140.688 6.81679 140.66 6.84604 140.631 6.87529C135.964 11.6655 135.964 19.4317 140.631 24.2219C145.298 29.0121 152.865 29.0121 157.533 24.2219C157.561 24.1929 157.589 24.1634 157.618 24.1337C158.655 23.0484 160.072 22.4334 161.553 22.4261C163.034 22.4187 164.456 23.0192 165.504 24.094L176.759 35.645C180.159 39.135 180.628 44.6265 177.87 48.6702C155.306 81.7577 127.404 110.649 95.3664 134.099L92.877 135.921C88.8441 138.873 83.3234 138.402 79.8209 134.807L69.1064 123.811C68.0643 122.741 67.4797 121.29 67.4811 119.778Z" fill="#125978"/>
<path fill-rule="evenodd" clip-rule="evenodd" d="M105.168 11.7496L107.621 14.2665C108.704 15.3786 108.704 17.1817 107.621 18.2938C106.537 19.4061 104.78 19.4061 103.697 18.2938L101.244 15.7768C100.161 14.6647 100.161 12.8617 101.244 11.7496C102.328 10.6375 104.085 10.6375 105.168 11.7496Z" fill="#125978"/>
<path fill-rule="evenodd" clip-rule="evenodd" d="M115.471 22.3321L117.924 24.8491C119.007 25.9611 119.007 27.7642 117.924 28.8765C116.84 29.9886 115.083 29.9886 113.999 28.8765L111.547 26.3593C110.463 25.2472 110.463 23.4442 111.547 22.3321C112.631 21.22 114.387 21.22 115.471 22.3321Z" fill="#125978"/>
<path fill-rule="evenodd" clip-rule="evenodd" d="M128.221 39.4443C127.137 40.5564 125.38 40.5564 124.297 39.4443L121.354 36.4238C120.27 35.3117 120.27 33.5087 121.354 32.3966C122.437 31.2845 124.194 31.2845 125.278 32.3966L128.221 35.4169C129.304 36.5289 129.304 38.3322 128.221 39.4443Z" fill="#125978"/>
<path fill-rule="evenodd" clip-rule="evenodd" d="M138.523 50.0166C137.44 51.1287 135.683 51.1287 134.599 50.0166L131.657 46.996C130.573 45.884 130.573 44.0809 131.657 42.9688C132.74 41.8567 134.497 41.8567 135.58 42.9688L138.523 45.9891C139.607 47.1012 139.607 48.9045 138.523 50.0166Z" fill="#125978"/>
<path fill-rule="evenodd" clip-rule="evenodd" d="M145.879 53.5499L148.332 56.0671C149.415 57.1792 149.415 58.9822 148.332 60.0943C147.248 61.2064 145.491 61.2064 144.408 60.0943L141.955 57.5773C140.872 56.4652 140.872 54.662 141.955 53.5499C143.039 52.4378 144.796 52.4378 145.879 53.5499Z" fill="#125978"/>
<path fill-rule="evenodd" clip-rule="evenodd" d="M156.182 64.1163L158.634 66.6335C159.718 67.7456 159.718 69.5486 158.634 70.6607C157.551 71.7728 155.794 71.7728 154.71 70.6607L152.258 68.1437C151.174 67.0317 151.174 65.2284 152.258 64.1163C153.342 63.0042 155.098 63.0042 156.182 64.1163Z" fill="#125978"/>
<g clip-path="url(#clip0)">
<path d="M71.5468 67.5546L72.0956 51.924C72.0956 51.924 73.6222 48.4039 75.3199 46.7137C76.9206 45.1201 77.7392 44.484 80.2134 43.6194C82.6876 42.7549 84.7512 42.7253 87.691 42.7549C91.5639 42.7938 94.3453 43.2554 97.501 44.1655C100.657 45.0756 106.91 47.0183 112.067 50.1948C118.004 53.8511 121.532 56.4055 125.079 62.3899C126.792 65.2808 127.693 67.0566 128.326 70.3531C129.378 75.8364 129.332 81.4561 128.326 85.9383C127.662 88.8965 126.491 89.7847 124.53 92.1041C122.569 94.4234 114.651 98.816 110.672 99.362C108.066 99.7197 98.4843 100.636 93.1105 98.816C90.5266 97.9409 85.9096 94.5549 83.2547 90.1929C81.7455 87.7129 80.3081 83.1278 78.0639 78.7714C75.7447 74.2686 71.5468 67.5546 71.5468 67.5546Z" fill="#F8ECE1"/>
<path d="M84.6668 72.4167C82.7917 70.1415 77.9211 64.0439 77.9211 64.0439V65.8869C77.9211 67.3657 78.9373 68.7705 79.4989 69.7092C81.2139 72.576 82.2887 74.2596 82.7917 75.3062C83.2948 76.3528 85.7416 82.6096 85.7416 82.6096C85.7416 82.6096 86.016 80.0614 86.1761 78.1047C86.3361 76.148 85.925 73.9431 84.6668 72.4167Z" fill="#691806"/>
<path d="M122.879 83.2466C122.879 83.2466 121.776 84.9528 119.7 86.6366C117.597 88.343 117.254 88.2975 114.304 89.5717C111.354 90.8458 109.136 89.7082 107.535 88.9801C105.934 88.252 108.446 90.1409 109.616 90.823C110.779 91.5006 110.897 92.1654 110.897 92.1654C110.897 92.1654 111.011 92.4384 110.576 92.8935C110.142 93.3485 109.616 93.7353 109.616 93.7353C109.616 93.7353 109.982 94.6454 113.366 93.2575C117.826 91.4287 120.012 89.3896 120.592 88.6388C122.633 85.9996 122.879 83.2466 122.879 83.2466Z" fill="#691806"/>
<path fill-rule="evenodd" clip-rule="evenodd" d="M72.0956 51.924C71.5468 53.3278 70.6495 65.1133 71.5468 67.5546C72.0174 68.8343 73.148 70.6172 74.4514 72.6727C75.635 74.5385 76.9604 76.6289 78.0639 78.7714C79.1602 80.8997 80.0643 83.0827 80.8779 85.0481C81.73 87.1055 82.4828 88.9247 83.2547 90.1929C85.9096 94.5549 90.5266 97.9409 93.1105 98.816C98.4843 100.636 108.066 99.7197 110.672 99.362C114.651 98.816 122.569 94.4234 124.53 92.1041C124.858 91.7155 125.165 91.3674 125.45 91.0425C126.869 89.4289 127.773 88.401 128.326 85.9383C129.332 81.4561 129.378 75.8364 128.326 70.3531C127.693 67.0566 126.792 65.2808 125.079 62.3899C121.532 56.4055 118.004 53.8511 112.067 50.1948C106.91 47.0183 100.657 45.0756 97.501 44.1655C94.3453 43.2554 91.5639 42.7938 87.691 42.7549C84.7512 42.7253 82.6876 42.7549 80.2134 43.6194C77.7392 44.484 76.9206 45.1201 75.3199 46.7137C73.6222 48.4039 72.6444 50.5202 72.0956 51.924ZM79.1387 49.7398C78.0868 50.628 77.2407 52.7156 77.2407 55.6553C77.2407 59.9195 80.9273 64.062 83.2328 66.6524C83.9161 67.4206 84.4786 68.0523 84.7868 68.5102C86.136 70.5124 87.4167 73.4247 87.714 74.858C87.9518 76.0047 88.3085 77.9296 88.3085 77.9296C88.3085 77.9296 86.5339 73.9024 86.2961 73.4474C84.6551 70.3076 80.3278 66.0757 80.3278 66.0757L77.2407 62.2306C77.2407 62.2306 76.595 65.6139 77.2407 67.0768C77.6139 67.9217 78.3713 69.237 79.2361 70.7384C79.8681 71.8367 80.5583 73.0347 81.1967 74.221C82.5646 76.7612 83.5511 79.3679 84.463 81.7759C85.648 84.9063 86.7058 87.7011 88.3085 89.5786C90.7218 92.4058 93.2898 93.6162 96.9065 94.5158C101.023 95.5397 110.65 94.9709 114.926 93.2189C119.146 91.4902 122.095 88.6845 122.901 85.5447C123.707 82.4049 123.981 80.091 123.981 80.091C123.981 80.091 122.037 83.8962 119.545 85.87C117.304 87.6447 115.598 88.4164 113.348 89.0098C111.091 89.605 107.38 88.7368 107.38 88.7368C107.38 88.7368 111.308 88.1575 113.348 87.2579C115.696 86.2222 116.318 85.8186 118.15 84.0271C120.865 81.3719 122.037 79.2264 122.723 77.3835C123.53 75.2172 123.736 72.7783 123.181 70.5351C122.379 67.2976 120.998 64.9867 118.813 62.4582C117.007 60.3672 113.396 57.6174 109.872 55.1775C106.221 52.6494 102.646 51.2233 100.84 50.5133C97.0137 49.0097 91.9672 47.7328 89.8863 47.5101C87.0362 47.2049 84.5861 47.3456 83.5749 47.5101C81.333 47.8747 80.3104 48.7441 79.3193 49.5868C79.259 49.6379 79.1991 49.6889 79.1387 49.7398Z" fill="#621706"/>
<path d="M117.155 70.3238C117.773 68.8392 117.749 66.2512 117.749 66.2512C117.749 66.2512 116.848 68.1106 116.149 69.2317C115.58 70.1425 114.571 71.4841 114.571 71.4841C114.571 71.4841 112.786 67.6351 112.261 64.9998C111.907 63.2219 111.804 60.3811 111.804 60.3811C111.804 60.3811 111.309 63.1951 111.438 64.9998C111.602 67.2937 112.16 68.5341 112.97 70.6878C113.505 72.1106 113.948 72.8501 114.571 74.2371C115.189 75.6135 115.78 76.3015 116.149 77.7637C116.67 79.832 116.149 83.2242 116.149 83.2242C116.149 83.2242 112.711 85.7629 110.135 86.455C108.434 86.9119 107.412 86.87 105.653 86.9555C104.288 87.022 102.154 86.9555 102.154 86.9555C102.154 86.9555 102.461 85.4266 102.817 84.4983C103.462 82.8138 103.948 81.8254 105.241 80.5622C105.993 79.8275 107.413 78.9696 107.413 78.9696C107.413 78.9696 106.603 78.9205 106.087 78.9696C105.281 79.0464 104.883 79.5229 104.075 79.4701C103.271 79.4176 102.154 78.7193 102.154 78.7193L103.32 80.5622C103.32 80.5622 101.866 82.0773 101.194 83.2242C100.505 84.3983 99.8901 86.455 99.8901 86.455C99.8901 86.455 97.6956 85.9631 96.4143 85.3401C94.9025 84.6049 94.0439 84.0796 92.9157 82.8374C91.0756 80.8114 91.2279 78.9179 90.286 76.3531C89.3313 73.7535 89.4259 72.0339 88.0679 69.6185C86.9383 67.6093 84.3862 64.9998 84.3862 64.9998C84.3862 64.9998 87.4314 65.652 89.1884 64.9998C89.9449 64.7189 90.9949 63.9987 90.9949 63.9987C90.9949 63.9987 90.1876 67.5761 90.9949 69.6185C91.5502 71.0233 92.2158 71.6816 93.2799 72.7341L93.3273 72.781C94.2583 73.7019 96.0027 74.8059 96.0027 74.8059C96.0027 74.8059 94.3215 73.3497 93.6246 72.1439C92.9573 70.9894 92.7416 70.2278 92.5269 68.9132C92.2167 67.0129 92.6375 65.9038 92.9157 63.9987C93.2207 61.9101 94.0819 58.7202 94.0819 58.7202C94.0819 58.7202 95.5144 58.6059 96.4143 58.4244C97.2956 58.2468 98.6324 57.8101 98.6324 57.8101C98.6324 57.8101 100.162 58.9391 101.194 59.5848C102.712 60.5352 103.845 60.6253 105.241 61.7463C106.194 62.5119 107.413 63.9987 107.413 63.9987C107.413 63.9987 106.93 62.2197 106.247 61.2912C105.131 59.7731 103.61 59.9194 102.154 58.7202C101.2 57.9351 99.8901 56.5133 99.8901 56.5133C99.8901 56.5133 100.77 55.6618 101.194 55.0116C101.707 54.2236 102.154 52.8047 102.154 52.8047L103.32 53.3052C103.32 53.3052 109.032 56.424 112.261 59.016C115.141 61.3277 117.018 62.524 119.03 65.6141C120.325 67.6026 121.238 68.7769 121.591 71.1201C121.879 73.0335 121.738 74.204 121.179 76.0573C120.505 78.295 118.069 81.1765 118.069 81.1765C118.069 81.1765 117.603 78.699 117.155 77.1494C116.651 75.4072 115.577 72.781 115.577 72.781C115.577 72.781 116.716 71.3757 117.155 70.3238Z" fill="#B32D2D"/>
<path d="M91.8636 51.9399C90.3799 50.1413 86.7185 48.8911 86.7185 48.8911C86.7185 48.8911 90.9788 48.9884 93.6244 49.5737C96.7056 50.2554 101.193 52.3949 101.193 52.3949C101.193 52.3949 99.95 54.6649 98.6322 55.5575C97.037 56.6381 93.8302 56.7178 93.8302 56.7178C93.8302 56.7178 93.1493 53.4985 91.8636 51.9399Z" fill="#B32D2D"/>
<path d="M82.121 56.7177C80.6575 55.8838 78.9882 53.7599 78.9882 53.7599C78.9882 53.7599 78.7239 57.1174 79.537 59.0156C80.3931 61.014 81.2484 62.2658 83.2186 63.202C84.9345 64.0174 86.2393 64.1816 88.0665 63.6571C89.6923 63.1903 90.8067 62.6585 91.6108 61.1771C92.3677 59.7829 92.222 58.6709 91.8624 57.1272C91.607 56.0311 91.2704 55.4516 90.6504 54.5107C89.4373 52.6698 88.3239 51.795 86.3056 50.8931C84.6761 50.1649 82.5326 49.7186 81.8237 49.9831L81.7903 49.9955C81.1052 50.2508 80.8134 50.3597 80.5432 51.1434C80.2742 51.9244 81.4812 53.5741 82.4745 54.9315L82.5326 55.0113C83.4317 56.2408 85.2538 57.8098 85.2538 57.8098C85.2538 57.8098 83.246 57.3586 82.121 56.7177Z" fill="#B32D2D"/>
<path d="M108.205 70.2192C108.007 68.7504 107.698 67.8924 106.856 66.6699C106.079 65.5407 103.746 64.2776 103.083 63.9396C102.42 63.6017 99.2413 63.7121 98.5096 63.9396C97.569 64.2321 96.8998 65.441 96.6802 66.3969C96.4973 67.1932 96.4676 69.2408 96.6802 69.9462C96.9923 70.9815 97.3054 71.5412 97.9608 72.4034C99.0542 73.842 99.9641 74.5987 101.688 75.1564C103.033 75.5913 103.954 75.811 105.301 75.3839C106.615 74.9672 107.486 74.4438 108.068 73.1997C108.562 72.1434 108.361 71.3741 108.205 70.2192Z" fill="#F8ECE1"/>
<path fill-rule="evenodd" clip-rule="evenodd" d="M106.856 66.6699C107.698 67.8924 108.007 68.7504 108.205 70.2192C108.224 70.3596 108.244 70.4944 108.263 70.6247C108.399 71.5654 108.502 72.2719 108.068 73.1997C107.486 74.4438 106.615 74.9672 105.301 75.3839C103.954 75.811 103.033 75.5913 101.688 75.1564C99.9641 74.5987 99.0542 73.842 97.9608 72.4034C97.3055 71.5412 96.9923 70.9815 96.6802 69.9462C96.4676 69.2408 96.4973 67.1932 96.6802 66.3969C96.8998 65.441 97.569 64.2321 98.5096 63.9396C99.2413 63.7121 102.42 63.6017 103.083 63.9396C103.746 64.2776 106.079 65.5407 106.856 66.6699ZM106.381 66.5151C107.132 67.4088 107.408 68.0361 107.584 69.1098C107.601 69.2125 107.618 69.311 107.635 69.4063C107.757 70.094 107.849 70.6105 107.462 71.2887C106.943 72.1983 106.166 72.5809 104.995 72.8855C103.794 73.1977 102.972 73.0371 101.773 72.7192C100.236 72.3115 99.4251 71.7583 98.4502 70.7066C97.8659 70.0763 97.5867 69.6672 97.3085 68.9102C97.1189 68.3946 97.1453 66.8976 97.3085 66.3155C97.5042 65.6167 98.1009 64.7329 98.9395 64.5191C99.5919 64.3528 102.426 64.2721 103.017 64.5191C103.608 64.7662 105.688 65.6896 106.381 66.5151Z" fill="#621706"/>
<path d="M104.699 68.7465C104.622 68.2799 104.501 68.0073 104.173 67.6189C103.87 67.2602 102.961 66.8589 102.702 66.7516C102.444 66.6442 101.205 66.6793 100.919 66.7516C100.553 66.8445 100.292 67.2285 100.206 67.5322C100.135 67.7852 100.123 68.4357 100.206 68.6597C100.328 68.9887 100.45 69.1665 100.706 69.4404C101.132 69.8974 101.486 70.1378 102.159 70.315C102.683 70.4531 103.042 70.5229 103.567 70.3873C104.079 70.2549 104.419 70.0886 104.646 69.6934C104.838 69.3578 104.76 69.1134 104.699 68.7465Z" fill="#621706"/>
</g>
</g>
<defs>
<clipPath id="clip0">
<rect width="59.9131" height="58.4615" fill="white" transform="matrix(-1 0 0 1 130.58 41.769)"/>
</clipPath>
</defs>
</svg>
