<svg width="85" height="88" viewBox="0 0 85 88" fill="none" xmlns="http://www.w3.org/2000/svg">
<path d="M69.2964 35.4651C69.8965 36.0794 69.9792 37.0461 69.4926 37.7578C60.5909 50.7805 49.5833 62.1515 36.9442 71.381L35.9461 72.1099C35.2142 72.6443 34.2122 72.559 33.5765 71.9081L29.0832 67.3074C31.7357 64.4952 31.7066 60.0135 28.9959 57.238C26.285 54.4624 21.9082 54.4326 19.1617 57.1485L15.0286 52.9166C14.2426 52.1118 14.351 50.7769 15.256 50.1161L16.2548 49.3868C28.5883 40.3803 39.3297 29.2842 48.0162 16.5764C48.6247 15.6864 49.8706 15.5746 50.6209 16.3429L54.8274 20.65C52.1849 23.4629 52.2173 27.9368 54.9247 30.7089C57.6321 33.4809 62.0015 33.5142 64.7487 30.8085L69.2964 35.4651Z" fill="#DBCDF9"/>
<path d="M71.2883 36.74L55.2243 57.5674L34.4472 73.6711L30.4515 69.5503L29.0099 67.7608L30.4515 65.625L30.9567 63.4893L30.6785 61.2111L29.8442 59.0753L28.4536 57.3667L26.7849 56.2276L24.9771 55.658H22.7522L20.3881 56.5124L18.9975 57.7938L15.6602 53.6647L21.0892 52.8356C37.9284 50.2641 53.8388 43.3024 67.2925 32.6191L71.2883 36.74Z" fill="#A28BD4"/>
<path fill-rule="evenodd" clip-rule="evenodd" d="M27.0561 67.511C27.0568 66.906 27.2924 66.326 27.7111 65.8991L27.7186 65.8915C29.5899 63.9755 29.5899 60.8689 27.7186 58.9529C25.8472 57.0368 22.8132 57.0368 20.9419 58.9529L20.9345 58.9604C20.5175 59.3891 19.9512 59.6304 19.3603 59.6311C18.7694 59.6317 18.2025 59.3916 17.7847 58.9638L13.4557 54.5314C11.6971 52.7307 11.9396 49.7438 13.9645 48.2651L14.9633 47.5358L16.2552 49.3907L15.2564 50.12C14.3515 50.7808 14.243 52.1157 15.029 52.9204L19.358 57.3529L19.3686 57.3419C19.372 57.3384 19.3754 57.3349 19.3789 57.3315C22.1199 54.5362 26.555 54.5396 29.2918 57.3419C32.0284 60.144 32.032 64.6847 29.3027 67.4913C29.2991 67.495 29.2954 67.4987 29.2918 67.5024L29.281 67.5134L33.5769 71.912C34.2126 72.5629 35.2146 72.6482 35.9465 72.1137L36.9446 71.3849C49.5838 62.1553 60.5913 50.7843 69.493 37.7617C69.9796 37.05 69.8969 36.0832 69.2968 35.469L64.7844 30.8486C64.7681 30.8657 64.7515 30.8827 64.735 30.8997C64.7184 30.9167 64.7017 30.9336 64.6849 30.9504C61.941 33.7053 57.5354 33.6885 54.8118 30.8997C52.0881 28.1109 52.0717 23.5999 54.7624 20.7903C54.7788 20.7732 54.7953 20.7562 54.8118 20.7392C54.8284 20.7222 54.8451 20.7054 54.8618 20.6886L50.6214 16.3468C49.8711 15.5785 48.6251 15.6903 48.0167 16.5803C39.3301 29.2881 28.5887 40.3842 16.2552 49.3907L14.9633 47.5358C27.0906 38.68 37.6525 27.7694 46.1939 15.274C47.5957 13.2233 50.4661 12.9658 52.1947 14.7358L56.435 19.0777C56.8549 19.5076 57.0896 20.0916 57.0867 20.6997C57.0838 21.3078 56.8436 21.8894 56.4195 22.3152C56.408 22.3267 56.3966 22.3384 56.3851 22.3501C54.5138 24.2662 54.5138 27.3727 56.3851 29.2888C58.2564 31.2048 61.2904 31.2048 63.1617 29.2888C63.1731 29.2772 63.1844 29.2654 63.1958 29.2535C63.6116 28.8194 64.1797 28.5734 64.7735 28.5705C65.3674 28.5675 65.9377 28.8077 66.3577 29.2376L70.8702 33.858C72.2335 35.254 72.4215 37.4506 71.3159 39.0681C62.269 52.3031 51.0818 63.8596 38.2365 73.2396L37.2385 73.9685C35.6215 75.1492 33.408 74.9609 32.0037 73.5229L27.7078 69.1243C27.29 68.6964 27.0556 68.116 27.0561 67.511Z" fill="#633001"/>
<path fill-rule="evenodd" clip-rule="evenodd" d="M42.1667 24.2999L43.1499 25.3067C43.5844 25.7516 43.5844 26.4728 43.1499 26.9176C42.7155 27.3625 42.0111 27.3625 41.5767 26.9176L40.5934 25.9108C40.159 25.466 40.159 24.7448 40.5934 24.2999C41.0279 23.8551 41.7322 23.8551 42.1667 24.2999Z" fill="#633001"/>
<path fill-rule="evenodd" clip-rule="evenodd" d="M46.2975 28.5328L47.2809 29.5396C47.7153 29.9845 47.7153 30.7057 47.2809 31.1506C46.8464 31.5954 46.142 31.5954 45.7075 31.1506L44.7243 30.1437C44.2898 29.6989 44.2898 28.9777 44.7243 28.5328C45.1587 28.088 45.8631 28.088 46.2975 28.5328Z" fill="#633001"/>
<path fill-rule="evenodd" clip-rule="evenodd" d="M51.4092 35.3778C50.9747 35.8226 50.2703 35.8226 49.8359 35.3778L48.6559 34.1696C48.2215 33.7248 48.2215 33.0036 48.6559 32.5587C49.0904 32.1139 49.7947 32.1139 50.2292 32.5587L51.4092 33.7668C51.8436 34.2117 51.8436 34.933 51.4092 35.3778Z" fill="#633001"/>
<path fill-rule="evenodd" clip-rule="evenodd" d="M55.5401 39.6066C55.1055 40.0514 54.4011 40.0514 53.9667 39.6066L52.7868 38.3984C52.3523 37.9535 52.3524 37.2323 52.7868 36.7875C53.2213 36.3426 53.9256 36.3426 54.3601 36.7875L55.5401 37.9956C55.9745 38.4404 55.9745 39.1617 55.5401 39.6066Z" fill="#633001"/>
<path fill-rule="evenodd" clip-rule="evenodd" d="M58.489 41.0199L59.4723 42.0268C59.9067 42.4716 59.9067 43.1928 59.4723 43.6377C59.0378 44.0825 58.3335 44.0825 57.899 43.6377L56.9157 42.6309C56.4812 42.186 56.4812 41.4647 56.9157 41.0199C57.3501 40.5751 58.0546 40.5751 58.489 41.0199Z" fill="#633001"/>
<path fill-rule="evenodd" clip-rule="evenodd" d="M62.6198 45.2465L63.6031 46.2533C64.0375 46.6982 64.0376 47.4194 63.6031 47.8642C63.1686 48.3091 62.4642 48.3091 62.0298 47.8642L61.0465 46.8574C60.6121 46.4126 60.6121 45.6913 61.0465 45.2465C61.481 44.8016 62.1853 44.8016 62.6198 45.2465Z" fill="#633001"/>
<path d="M29.6582 46.6028L29.8631 40.8446C29.8631 40.8446 30.433 39.5479 31.0668 38.9253C31.6643 38.3382 31.9699 38.1039 32.8936 37.7854C33.8172 37.4669 34.5876 37.456 35.685 37.4669C37.1308 37.4812 38.1692 37.6513 39.3472 37.9865C40.5252 38.3218 42.8595 39.0375 44.785 40.2076C47.0013 41.5546 48.3184 42.4956 49.6422 44.7002C50.2818 45.7652 50.6183 46.4193 50.8544 47.6337C51.2471 49.6537 51.23 51.7239 50.8544 53.3751C50.6065 54.4649 50.1694 54.7921 49.4374 55.6465C48.7053 56.5009 45.7496 58.1191 44.2642 58.3202C43.2911 58.452 39.7143 58.7896 37.7082 58.1191C36.7436 57.7967 35.02 56.5494 34.0289 54.9425C33.4655 54.0289 32.9289 52.3398 32.0911 50.7349C31.2254 49.0761 29.6582 46.6028 29.6582 46.6028Z" fill="#F8ECE1"/>
<path d="M34.5571 48.3937C33.8571 47.5556 32.0388 45.3093 32.0388 45.3093V45.9882C32.0388 46.533 32.4182 47.0505 32.6279 47.3963C33.2681 48.4524 33.6693 49.0727 33.8571 49.4582C34.0449 49.8438 34.9583 52.1487 34.9583 52.1487C34.9583 52.1487 35.0608 51.21 35.1205 50.4891C35.1803 49.7683 35.0268 48.9561 34.5571 48.3937Z" fill="#691806"/>
<path d="M48.8223 52.3833C48.8223 52.3833 48.4107 53.0118 47.6357 53.6322C46.8503 54.2608 46.7223 54.244 45.6211 54.7134C44.5199 55.1827 43.6918 54.7637 43.0943 54.4955C42.4967 54.2272 43.4343 54.9231 43.8711 55.1744C44.3051 55.424 44.3491 55.6689 44.3491 55.6689C44.3491 55.6689 44.3918 55.7695 44.2296 55.9371C44.0674 56.1047 43.8711 56.2472 43.8711 56.2472C43.8711 56.2472 44.0077 56.5825 45.2711 56.0712C46.9361 55.3975 47.7519 54.6463 47.9686 54.3697C48.7306 53.3975 48.8223 52.3833 48.8223 52.3833Z" fill="#691806"/>
<path fill-rule="evenodd" clip-rule="evenodd" d="M29.8631 40.8446C29.6582 41.3618 29.3233 45.7035 29.6582 46.6028C29.8339 47.0742 30.256 47.731 30.7425 48.4882C31.1844 49.1756 31.6792 49.9456 32.0911 50.7349C32.5004 51.519 32.8379 52.3232 33.1416 53.0472C33.4597 53.8051 33.7407 54.4753 34.0289 54.9425C35.02 56.5494 36.7436 57.7967 37.7082 58.1191C39.7143 58.7896 43.2911 58.452 44.2642 58.3202C45.7496 58.1191 48.7053 56.5009 49.4374 55.6465C49.56 55.5034 49.6743 55.3751 49.7809 55.2554C50.3105 54.661 50.6481 54.2823 50.8544 53.3751C51.23 51.7239 51.2471 49.6537 50.8544 47.6337C50.6183 46.4193 50.2818 45.7652 49.6422 44.7002C48.3184 42.4956 47.0013 41.5546 44.785 40.2076C42.8595 39.0375 40.5252 38.3218 39.3472 37.9865C38.1692 37.6513 37.1308 37.4812 35.685 37.4669C34.5876 37.456 33.8172 37.4669 32.8936 37.7854C31.9699 38.1039 31.6643 38.3382 31.0668 38.9253C30.433 39.5479 30.068 40.3275 29.8631 40.8446ZM32.4924 40.04C32.0997 40.3672 31.7838 41.1363 31.7838 42.2192C31.7838 43.7901 33.1601 45.3162 34.0207 46.2704C34.2758 46.5534 34.4858 46.7861 34.6009 46.9548C35.1045 47.6924 35.5826 48.7652 35.6936 49.2933C35.7824 49.7157 35.9155 50.4248 35.9155 50.4248C35.9155 50.4248 35.2531 48.9413 35.1643 48.7736C34.5517 47.617 32.9363 46.058 32.9363 46.058L31.7838 44.6415C31.7838 44.6415 31.5428 45.8878 31.7838 46.4268C31.9231 46.738 32.2059 47.2226 32.5287 47.7757C32.7647 48.1803 33.0223 48.6216 33.2606 49.0586C33.7713 49.9944 34.1396 50.9546 34.48 51.8418C34.9224 52.9949 35.3173 54.0245 35.9155 54.7162C36.8165 55.7577 37.7751 56.2036 39.1253 56.535C40.6618 56.9121 44.2557 56.7026 45.852 56.0572C47.4273 55.4204 48.5283 54.3868 48.8292 53.2301C49.1301 52.0735 49.2325 51.221 49.2325 51.221C49.2325 51.221 48.5069 52.6228 47.5764 53.35C46.7398 54.0037 46.1029 54.288 45.263 54.5066C44.4203 54.7259 43.035 54.406 43.035 54.406C43.035 54.406 44.5015 54.1926 45.263 53.8612C46.1396 53.4797 46.3719 53.331 47.0557 52.6711C48.0692 51.6929 48.5069 50.9025 48.763 50.2236C49.064 49.4256 49.141 48.5271 48.9337 47.7008C48.6345 46.5081 48.1187 45.6568 47.3032 44.7253C46.6289 43.955 45.2808 42.9421 43.9655 42.0432C42.6026 41.1119 41.2679 40.5865 40.5936 40.325C39.1653 39.7711 37.2814 39.3007 36.5046 39.2186C35.4406 39.1062 34.5259 39.158 34.1484 39.2186C33.3115 39.353 32.9298 39.6732 32.5598 39.9837C32.5373 40.0025 32.5149 40.0213 32.4924 40.04Z" fill="#621706"/>
<path d="M46.6842 47.6228C46.9152 47.0759 46.9061 46.1225 46.9061 46.1225C46.9061 46.1225 46.5698 46.8075 46.3086 47.2204C46.0963 47.556 45.7195 48.0502 45.7195 48.0502C45.7195 48.0502 45.0534 46.6323 44.8574 45.6615C44.7251 45.0065 44.6866 43.96 44.6866 43.96C44.6866 43.96 44.5018 44.9966 44.55 45.6615C44.6113 46.5065 44.8195 46.9635 45.122 47.7569C45.3218 48.281 45.487 48.5534 45.7195 49.0644C45.9503 49.5714 46.1709 49.8249 46.3086 50.3635C46.5033 51.1255 46.3086 52.3751 46.3086 52.3751C46.3086 52.3751 45.0254 53.3103 44.0635 53.5653C43.4287 53.7336 43.047 53.7182 42.3903 53.7497C41.8809 53.7742 41.0842 53.7497 41.0842 53.7497C41.0842 53.7497 41.199 53.1865 41.3318 52.8445C41.5727 52.2239 41.7541 51.8598 42.2367 51.3945C42.5173 51.1238 43.0476 50.8078 43.0476 50.8078C43.0476 50.8078 42.745 50.7897 42.5525 50.8078C42.2515 50.8361 42.103 51.0116 41.8013 50.9922C41.5011 50.9728 41.0842 50.7156 41.0842 50.7156L41.5196 51.3945C41.5196 51.3945 40.9769 51.9526 40.7257 52.3751C40.4685 52.8077 40.2391 53.5653 40.2391 53.5653C40.2391 53.5653 39.4199 53.3841 38.9416 53.1546C38.3772 52.8837 38.0567 52.6903 37.6355 52.2326C36.9485 51.4863 37.0054 50.7887 36.6538 49.8439C36.2974 48.8862 36.3327 48.2528 35.8257 47.3629C35.4041 46.6228 34.4513 45.6615 34.4513 45.6615C34.4513 45.6615 35.5881 45.9017 36.244 45.6615C36.5265 45.558 36.9184 45.2927 36.9184 45.2927C36.9184 45.2927 36.617 46.6106 36.9184 47.3629C37.1257 47.8805 37.3742 48.123 37.7714 48.5107L37.7891 48.528C38.1367 48.8672 38.7879 49.2739 38.7879 49.2739C38.7879 49.2739 38.1603 48.7375 37.9001 48.2933C37.651 47.868 37.5705 47.5874 37.4904 47.1031C37.3745 46.4031 37.5316 45.9945 37.6355 45.2927C37.7493 44.5233 38.0708 43.3482 38.0708 43.3482C38.0708 43.3482 38.6056 43.306 38.9416 43.2392C39.2705 43.1738 39.7696 43.0129 39.7696 43.0129C39.7696 43.0129 40.3406 43.4288 40.7257 43.6667C41.2925 44.0168 41.7155 44.0499 42.2367 44.4629C42.5926 44.745 43.0476 45.2927 43.0476 45.2927C43.0476 45.2927 42.8671 44.6373 42.6123 44.2953C42.1956 43.736 41.6279 43.7899 41.0842 43.3482C40.7283 43.0589 40.2391 42.5351 40.2391 42.5351C40.2391 42.5351 40.5675 42.2215 40.7257 41.982C40.9174 41.6916 41.0842 41.1689 41.0842 41.1689L41.5196 41.3533C41.5196 41.3533 43.6518 42.5023 44.8574 43.4571C45.9326 44.3087 46.6331 44.7494 47.3842 45.8878C47.8675 46.6203 48.2086 47.0529 48.3403 47.9161C48.4478 48.621 48.395 49.0522 48.1866 49.7349C47.935 50.5593 47.0256 51.6208 47.0256 51.6208C47.0256 51.6208 46.8514 50.7081 46.6842 50.1372C46.4962 49.4954 46.0952 48.528 46.0952 48.528C46.0952 48.528 46.5205 48.0103 46.6842 47.6228Z" fill="#B32D2D"/>
<path d="M37.2437 40.8504C36.6898 40.1878 35.3229 39.7273 35.3229 39.7273C35.3229 39.7273 36.9133 39.7631 37.901 39.9787C39.0512 40.2299 40.7266 41.0181 40.7266 41.0181C40.7266 41.0181 40.2624 41.8543 39.7705 42.1831C39.1749 42.5812 37.9778 42.6106 37.9778 42.6106C37.9778 42.6106 37.7236 41.4246 37.2437 40.8504Z" fill="#B32D2D"/>
<path d="M33.6053 42.6106C33.059 42.3034 32.4358 41.521 32.4358 41.521C32.4358 41.521 32.3371 42.7578 32.6407 43.4571C32.9603 44.1933 33.2795 44.6544 34.015 44.9993C34.6556 45.2997 35.1427 45.3602 35.8248 45.1669C36.4317 44.995 36.8477 44.7991 37.148 44.2534C37.4305 43.7397 37.3761 43.3301 37.2419 42.7614C37.1465 42.3577 37.0209 42.1442 36.7894 41.7975C36.3366 41.1194 35.9209 40.7971 35.1675 40.4649C34.5592 40.1966 33.7589 40.0322 33.4943 40.1296L33.4819 40.1342C33.2261 40.2282 33.1172 40.2684 33.0163 40.5571C32.9159 40.8448 33.3664 41.4525 33.7373 41.9526L33.7589 41.9819C34.0946 42.4349 34.7748 43.0129 34.7748 43.0129C34.7748 43.0129 34.0253 42.8467 33.6053 42.6106Z" fill="#B32D2D"/>
<path d="M43.3446 47.5843C43.2707 47.0432 43.1552 46.7271 42.8409 46.2768C42.5507 45.8608 41.68 45.3955 41.4324 45.271C41.1848 45.1465 39.9983 45.1872 39.7251 45.271C39.374 45.3787 39.1242 45.8241 39.0422 46.1762C38.9739 46.4696 38.9628 47.2239 39.0422 47.4837C39.1587 47.8651 39.2756 48.0713 39.5202 48.3889C39.9284 48.9189 40.2681 49.1977 40.9117 49.4031C41.4136 49.5633 41.7576 49.6442 42.2604 49.4869C42.7511 49.3334 43.076 49.1406 43.2934 48.6823C43.4779 48.2932 43.4026 48.0097 43.3446 47.5843Z" fill="#F8ECE1"/>
<path fill-rule="evenodd" clip-rule="evenodd" d="M42.8409 46.2768C43.1552 46.7271 43.2707 47.0432 43.3446 47.5843C43.3516 47.636 43.359 47.6857 43.366 47.7337C43.4171 48.0802 43.4555 48.3405 43.2934 48.6823C43.076 49.1406 42.7511 49.3334 42.2604 49.4869C41.7576 49.6442 41.4136 49.5633 40.9117 49.4031C40.2681 49.1977 39.9284 48.9189 39.5202 48.3889C39.2756 48.0713 39.1587 47.8651 39.0422 47.4837C38.9628 47.2239 38.9739 46.4696 39.0422 46.1762C39.1242 45.8241 39.374 45.3787 39.7251 45.271C39.9983 45.1872 41.1848 45.1465 41.4324 45.271C41.68 45.3955 42.5507 45.8608 42.8409 46.2768ZM42.6636 46.2198C42.9438 46.549 43.0468 46.7801 43.1127 47.1756C43.119 47.2135 43.1255 47.2497 43.1318 47.2848C43.1773 47.5382 43.2115 47.7284 43.067 47.9783C42.8732 48.3134 42.5835 48.4543 42.1461 48.5665C41.6977 48.6816 41.391 48.6224 40.9435 48.5053C40.3697 48.3551 40.0669 48.1513 39.7029 47.7639C39.4848 47.5317 39.3806 47.3809 39.2767 47.1021C39.2059 46.9121 39.2158 46.3607 39.2767 46.1462C39.3498 45.8888 39.5725 45.5632 39.8856 45.4845C40.1291 45.4232 41.1871 45.3934 41.4078 45.4845C41.6285 45.5755 42.4048 45.9157 42.6636 46.2198Z" fill="#621706"/>
<path d="M42.035 47.0417C42.0062 46.8698 41.9611 46.7694 41.8386 46.6263C41.7255 46.4942 41.3861 46.3463 41.2896 46.3068C41.193 46.2672 40.7305 46.2802 40.624 46.3068C40.4871 46.341 40.3897 46.4825 40.3578 46.5944C40.3312 46.6876 40.3268 46.9272 40.3578 47.0097C40.4032 47.1309 40.4488 47.1964 40.5441 47.2973C40.7033 47.4657 40.8357 47.5542 41.0866 47.6195C41.2822 47.6704 41.4163 47.6961 41.6123 47.6461C41.8036 47.5974 41.9303 47.5361 42.015 47.3905C42.087 47.2669 42.0576 47.1768 42.035 47.0417Z" fill="#621706"/>
</svg>
