<svg width="85" height="71" viewBox="0 0 85 71" fill="none" xmlns="http://www.w3.org/2000/svg">
<mask id="mask0" mask-type="alpha" maskUnits="userSpaceOnUse" x="0" y="13" width="85" height="58">
<path d="M84.3458 13H0V70.5629H84.3458V13Z" fill="white"/>
<path fill-rule="evenodd" clip-rule="evenodd" d="M81.6889 41.7457C81.7682 41.116 81.8094 40.4796 81.8094 39.8375C81.8094 26.4206 64.0651 15.5437 42.1733 15.5437C20.2814 15.5437 2.53711 26.4206 2.53711 39.8375C2.53711 40.4796 2.57833 41.116 2.6576 41.7457H2.53711V43.4417C2.53711 56.859 20.2814 67.7355 42.1733 67.7355C64.0651 67.7355 81.8094 56.859 81.8094 43.4417V41.7457H81.6889Z" fill="black"/>
</mask>
<g mask="url(#mask0)">
<path d="M81.6886 41.7462L79.1709 41.4253L78.8094 44.2904H81.6886V41.7462ZM2.65721 41.7462V44.2904H5.53637L5.17488 41.4253L2.65721 41.7462ZM2.53672 41.7462V39.2019H0V41.7462H2.53672ZM81.8091 41.7462H84.3458V39.2019H81.8091V41.7462ZM79.2724 39.838C79.2724 40.3723 79.2375 40.9015 79.1709 41.4253L84.2063 42.0671C84.2983 41.3318 84.3458 40.5882 84.3458 39.838H79.2724ZM42.1729 18.0884C52.7288 18.0884 62.1654 20.7163 68.8782 24.8306C75.6322 28.972 79.2724 34.3511 79.2724 39.838H84.3458C84.3458 31.9077 79.1107 25.1404 71.5227 20.4889C63.8904 15.8107 53.5057 13 42.1729 13V18.0884ZM5.07343 39.838C5.07343 34.3511 8.71363 28.972 15.4676 24.8306C22.1804 20.7163 31.617 18.0884 42.1729 18.0884V13C30.8401 13 20.4554 15.8107 12.8231 20.4889C5.23513 25.1404 0 31.9077 0 39.838H5.07343ZM5.17488 41.4253C5.1083 40.9015 5.07343 40.3723 5.07343 39.838H0C0 40.5882 0.0475449 41.3318 0.139501 42.0671L5.17488 41.4253ZM2.53672 44.2904H2.65721V39.2019H2.53672V44.2904ZM5.07343 43.4422V41.7462H0V43.4422H5.07343ZM42.1729 65.1918C31.617 65.1918 22.1804 62.5642 15.4676 58.4496C8.71363 54.3086 5.07343 48.9291 5.07343 43.4422H0C0 51.3725 5.23513 58.1401 12.8231 62.7916C20.4554 67.4698 30.8401 70.2802 42.1729 70.2802V65.1918ZM79.2724 43.4422C79.2724 48.9291 75.6322 54.3086 68.8782 58.4496C62.1654 62.5642 52.7288 65.1918 42.1729 65.1918V70.2802C53.5057 70.2802 63.8904 67.4698 71.5227 62.7916C79.1107 58.1401 84.3458 51.3725 84.3458 43.4422H79.2724ZM79.2724 41.7462V43.4422H84.3458V41.7462H79.2724ZM81.6886 44.2904H81.8091V39.2019H81.6886V44.2904Z" fill="#979797"/>
<path d="M81.8094 43.4427C81.8094 56.86 64.0651 67.7365 42.1733 67.7365C20.2814 67.7365 2.53711 56.86 2.53711 43.4427V39.5205H81.8094V43.4427Z" fill="#F5F3F3"/>
<path d="M81.8094 39.8026C81.8094 53.2195 64.0651 64.0964 42.1733 64.0964C20.2814 64.0964 2.53711 53.2195 2.53711 39.8026C2.53711 26.3853 20.2814 15.5088 42.1733 15.5088C64.0651 15.5088 81.8094 26.3853 81.8094 39.8026Z" fill="#112A46"/>
</g>
<path d="M11.6963 29.0567L12.2677 12.8051C12.2677 12.8051 13.8572 9.14522 15.6248 7.38787C17.2915 5.73097 18.1439 5.06959 20.7201 4.17067C23.2963 3.27174 25.4448 3.24103 28.5059 3.27174C32.5384 3.3122 35.4345 3.79217 38.7202 4.73841C42.0059 5.68465 48.5166 7.70458 53.8869 11.0072C60.0685 14.8088 63.742 17.4647 67.4345 23.6868C69.2182 26.6926 70.157 28.5389 70.8154 31.9664C71.9107 37.6674 71.8631 43.5105 70.8155 48.1707C70.124 51.2464 68.9049 52.1699 66.8631 54.5814C64.8213 56.9929 56.5774 61.5599 52.4345 62.1277C49.7202 62.4995 39.744 63.4524 34.1488 61.5599C31.4583 60.6501 26.651 57.1296 23.8867 52.5943C22.3153 50.0158 20.8187 45.2485 18.482 40.7191C16.0672 36.0374 11.6963 29.0567 11.6963 29.0567Z" fill="#F8ECE1"/>
<path d="M25.3572 34.1116C23.4048 31.746 18.3334 25.4062 18.3334 25.4062V27.3224C18.3334 28.86 19.3915 30.3206 19.9762 31.2966C21.762 34.2772 22.881 36.0278 23.4048 37.1159C23.9286 38.2041 26.4762 44.7095 26.4762 44.7095C26.4762 44.7095 26.7619 42.06 26.9286 40.0256C27.0953 37.9912 26.6672 35.6987 25.3572 34.1116Z" fill="#691806"/>
<path d="M65.1426 45.3721C65.1426 45.3721 63.9946 47.146 61.8331 48.8968C59.6426 50.671 59.2854 50.6237 56.214 51.9484C53.1426 53.2731 50.8331 52.0903 49.1664 51.3334C47.4997 50.5764 50.1147 52.5403 51.3331 53.2495C52.5434 53.954 52.6664 54.6452 52.6664 54.6452C52.6664 54.6452 52.7854 54.9291 52.3331 55.4022C51.8807 55.8753 51.3331 56.2774 51.3331 56.2774C51.3331 56.2774 51.714 57.2237 55.2378 55.7807C59.8817 53.8792 62.1571 51.7592 62.7616 50.9785C64.8868 48.2344 65.1426 45.3721 65.1426 45.3721Z" fill="#691806"/>
<path fill-rule="evenodd" clip-rule="evenodd" d="M12.2677 12.8051C11.6963 14.2646 10.762 26.5184 11.6963 29.0567C12.1863 30.3872 13.3634 32.2409 14.7206 34.378C15.953 36.318 17.333 38.4914 18.482 40.7191C19.6234 42.932 20.5649 45.2017 21.412 47.2451C22.2991 49.3842 23.083 51.2757 23.8868 52.5943C26.651 57.1296 31.4583 60.6501 34.1488 61.5599C39.744 63.4524 49.7202 62.4995 52.4345 62.1277C56.5774 61.5599 64.8213 56.9929 66.8631 54.5814C67.205 54.1774 67.524 53.8154 67.8211 53.4776C69.2985 51.8 70.2399 50.7312 70.8155 48.1707C71.8631 43.5105 71.9107 37.6674 70.8154 31.9664C70.157 28.5389 69.2182 26.6926 67.4345 23.6868C63.742 17.4647 60.0685 14.8088 53.8869 11.0072C48.5166 7.70458 42.0059 5.68465 38.7202 4.73841C35.4345 3.79217 32.5384 3.3122 28.5059 3.27174C25.4449 3.24103 23.2963 3.27174 20.7201 4.17067C18.1439 5.06959 17.2915 5.73097 15.6249 7.38787C13.8572 9.14522 12.8391 11.3455 12.2677 12.8051ZM19.601 10.5341C18.5058 11.4577 17.6249 13.6282 17.6249 16.6846C17.6249 21.1183 21.4634 25.4253 23.8639 28.1186C24.5753 28.9173 25.161 29.5741 25.482 30.0502C26.8868 32.132 28.2202 35.1599 28.5298 36.6502C28.7774 37.8425 29.1488 39.8438 29.1488 39.8438C29.1488 39.8438 27.301 35.6567 27.0534 35.1836C25.3449 31.9191 20.8391 27.5191 20.8391 27.5191L17.6249 23.5212C17.6249 23.5212 16.9525 27.0388 17.6249 28.5599C18.0134 29.4384 18.802 30.8059 19.7025 32.367C20.3606 33.5089 21.0791 34.7545 21.7439 35.9879C23.1682 38.6291 24.1953 41.3392 25.1449 43.843C26.3787 47.0977 27.4801 50.0035 29.1488 51.9556C31.6616 54.8951 34.3354 56.1536 38.1012 57.0889C42.3869 58.1535 52.4107 57.5621 56.8631 55.7406C61.2568 53.9432 64.3276 51.0259 65.1668 47.7614C66.006 44.4969 66.2917 42.0911 66.2917 42.0911C66.2917 42.0911 64.2678 46.0474 61.6726 48.0997C59.3393 49.9449 57.5629 50.7473 55.2202 51.3642C52.8699 51.9831 49.006 51.0803 49.006 51.0803C49.006 51.0803 53.0961 50.4781 55.2202 49.5427C57.6651 48.4659 58.313 48.0462 60.2202 46.1836C63.0472 43.4228 64.2679 41.1922 64.9821 39.276C65.8218 37.0236 66.0365 34.4879 65.4583 32.1556C64.6239 28.7895 63.1852 26.3867 60.9107 23.7578C59.0298 21.5837 55.27 18.7247 51.6012 16.1879C47.7999 13.5594 44.0774 12.0766 42.1964 11.3384C38.2129 9.77504 32.9583 8.44742 30.7917 8.21583C27.8241 7.89856 25.273 8.04484 24.2201 8.21583C21.8858 8.59499 20.821 9.49893 19.7891 10.375C19.7263 10.4282 19.6639 10.4813 19.601 10.5341Z" fill="#621706"/>
<path d="M59.1827 31.9355C59.8269 30.392 59.8017 27.7011 59.8017 27.7011C59.8017 27.7011 58.8638 29.6345 58.1351 30.8C57.543 31.747 56.4922 33.142 56.4922 33.142C56.4922 33.142 54.6343 29.14 54.0875 26.4C53.7186 24.5516 53.6113 21.5979 53.6113 21.5979C53.6113 21.5979 53.0958 24.5236 53.2303 26.4C53.4012 28.7851 53.9818 30.0747 54.8256 32.314C55.3829 33.7934 55.8435 34.5622 56.4922 36.0043C57.1359 37.4353 57.7511 38.1507 58.1351 39.671C58.6783 41.8215 58.1351 45.3484 58.1351 45.3484C58.1351 45.3484 54.5562 47.9879 51.8732 48.7076C50.1027 49.1826 49.0382 49.139 47.2065 49.228C45.7856 49.2971 43.5637 49.228 43.5637 49.228C43.5637 49.228 43.8838 47.6383 44.2541 46.6732C44.9261 44.9217 45.432 43.8941 46.7779 42.5807C47.5607 41.8168 49.0398 40.9248 49.0398 40.9248C49.0398 40.9248 48.1957 40.8737 47.6589 40.9248C46.8193 41.0046 46.4053 41.5 45.5637 41.4452C44.7263 41.3906 43.5637 40.6645 43.5637 40.6645L44.7779 42.5807C44.7779 42.5807 43.2642 44.156 42.5637 45.3484C41.8464 46.5692 41.2065 48.7076 41.2065 48.7076C41.2065 48.7076 38.9216 48.1961 37.5875 47.5484C36.0133 46.784 35.1194 46.2378 33.9446 44.9463C32.0287 42.8398 32.1873 40.871 31.2065 38.2043C30.2125 35.5015 30.3109 33.7136 28.897 31.2022C27.7209 29.1132 25.0636 26.4 25.0636 26.4C25.0636 26.4 28.2342 27.0782 30.0637 26.4C30.8514 26.108 31.9446 25.3592 31.9446 25.3592C31.9446 25.3592 31.104 29.0787 31.9446 31.2022C32.5228 32.6628 33.2158 33.3473 34.3238 34.4416L34.3732 34.4904C35.3425 35.4479 37.1589 36.5957 37.1589 36.5957C37.1589 36.5957 35.4083 35.0816 34.6827 33.828C33.9879 32.6276 33.7633 31.8357 33.5398 30.4688C33.2168 28.4931 33.6549 27.34 33.9446 25.3592C34.2622 23.1876 35.1589 19.871 35.1589 19.871C35.1589 19.871 36.6504 19.7521 37.5875 19.5635C38.505 19.3788 39.897 18.9248 39.897 18.9248C39.897 18.9248 41.4895 20.0986 42.5637 20.7699C44.1447 21.7581 45.3244 21.8517 46.7779 23.0172C47.7707 23.8134 49.0398 25.3592 49.0398 25.3592C49.0398 25.3592 48.5363 23.5095 47.8256 22.5441C46.6636 20.9657 45.08 21.1179 43.5637 19.871C42.5708 19.0546 41.2065 17.5764 41.2065 17.5764C41.2065 17.5764 42.1226 16.6911 42.5637 16.0151C43.0983 15.1957 43.5637 13.7205 43.5637 13.7205L44.7779 14.2409C44.7779 14.2409 50.7249 17.4835 54.0875 20.1785C57.0864 22.5821 59.0401 23.8258 61.1351 27.0387C62.4832 29.1063 63.4344 30.3272 63.8017 32.7635C64.1017 34.7528 63.9544 35.9699 63.3732 37.8968C62.6714 40.2234 60.1351 43.2194 60.1351 43.2194C60.1351 43.2194 59.649 40.6434 59.1827 39.0323C58.6584 37.2209 57.5398 34.4904 57.5398 34.4904C57.5398 34.4904 58.7262 33.0292 59.1827 31.9355Z" fill="#B32D2D"/>
<path d="M32.8482 12.8215C31.3033 10.9515 27.4911 9.65161 27.4911 9.65161C27.4911 9.65161 31.9269 9.75272 34.6815 10.3613C37.8898 11.0701 42.5625 13.2946 42.5625 13.2946C42.5625 13.2946 41.2679 15.6548 39.8958 16.5828C38.2348 17.7063 34.8958 17.7892 34.8958 17.7892C34.8958 17.7892 34.1869 14.442 32.8482 12.8215Z" fill="#B32D2D"/>
<path d="M22.7054 17.7893C21.1816 16.9222 19.4435 14.714 19.4435 14.714C19.4435 14.714 19.1683 18.2049 20.0149 20.1785C20.9064 22.2563 21.7968 23.5578 23.8483 24.5312C25.6349 25.379 26.9935 25.5497 28.8959 25.0043C30.5888 24.519 31.7491 23.9661 32.5864 22.4258C33.3745 20.9763 33.2227 19.8201 32.8483 18.2151C32.5825 17.0755 32.232 16.4729 31.5864 15.4947C30.3233 13.5806 29.164 12.6711 27.0626 11.7334C25.3659 10.9762 23.134 10.5122 22.3959 10.7871L22.3611 10.8001C21.6478 11.0655 21.344 11.1788 21.0626 11.9936C20.7826 12.8056 22.0392 14.5208 23.0735 15.9322L23.134 16.0151C24.0702 17.2935 25.9673 18.9248 25.9673 18.9248C25.9673 18.9248 23.8768 18.4557 22.7054 17.7893Z" fill="#B32D2D"/>
<path d="M49.864 31.8268C49.658 30.2996 49.3356 29.4075 48.4592 28.1365C47.6497 26.9624 45.2211 25.6491 44.5306 25.2978C43.8402 24.9464 40.5306 25.0611 39.7687 25.2978C38.7894 25.6018 38.0926 26.8588 37.864 27.8526C37.6735 28.6805 37.6426 30.8095 37.864 31.5429C38.1889 32.6194 38.515 33.2013 39.1973 34.0977C40.3358 35.5935 41.2832 36.3803 43.0783 36.9601C44.4782 37.4123 45.4376 37.6407 46.8402 37.1967C48.2085 36.7634 49.1149 36.2192 49.7211 34.9257C50.2358 33.8275 50.0259 33.0275 49.864 31.8268Z" fill="#F8ECE1"/>
<path fill-rule="evenodd" clip-rule="evenodd" d="M48.4592 28.1365C49.3356 29.4075 49.658 30.2996 49.864 31.8268C49.8836 31.9728 49.9041 32.1129 49.9238 32.2484C50.0662 33.2265 50.1732 33.961 49.7211 34.9257C49.1149 36.2192 48.2085 36.7634 46.8402 37.1967C45.4376 37.6407 44.4782 37.4123 43.0783 36.9601C41.2832 36.3803 40.3358 35.5935 39.1973 34.0977C38.515 33.2013 38.1889 32.6194 37.864 31.5429C37.6426 30.8095 37.6735 28.6805 37.864 27.8526C38.0926 26.8588 38.7894 25.6018 39.7687 25.2978C40.5306 25.0611 43.8402 24.9464 44.5306 25.2978C45.2211 25.6491 47.6497 26.9624 48.4592 28.1365ZM47.9646 27.9755C48.7461 28.9048 49.0335 29.5569 49.2171 30.6733C49.2347 30.7801 49.2529 30.8825 49.2705 30.9816C49.3975 31.6966 49.4928 32.2336 49.0897 32.9388C48.5493 33.8845 47.7412 34.2823 46.5211 34.599C45.2706 34.9236 44.4153 34.7566 43.1671 34.4261C41.5666 34.0022 40.722 33.4271 39.7069 32.3335C39.0986 31.6782 38.8078 31.2528 38.5181 30.4658C38.3207 29.9297 38.3483 28.3733 38.5181 27.7679C38.7219 27.0415 39.3432 26.1225 40.2164 25.9003C40.8956 25.7273 43.8464 25.6434 44.462 25.9003C45.0776 26.1571 47.2429 27.1172 47.9646 27.9755Z" fill="#621706"/>
<path d="M46.2139 30.2955C46.1336 29.8103 46.0079 29.5269 45.6662 29.1231C45.3507 28.7502 44.4039 28.3329 44.1348 28.2213C43.8656 28.1097 42.5754 28.1462 42.2784 28.2213C41.8967 28.3179 41.6251 28.7172 41.5359 29.033C41.4617 29.296 41.4496 29.9723 41.5359 30.2053C41.6626 30.5473 41.7897 30.7322 42.0557 31.0169C42.4995 31.4921 42.8688 31.7421 43.5686 31.9263C44.1143 32.0699 44.4883 32.1425 45.0351 32.0014C45.5685 31.8638 45.9218 31.6909 46.1582 31.28C46.3588 30.9311 46.277 30.6769 46.2139 30.2955Z" fill="#621706"/>
</svg>
