<svg width="85" height="88" viewBox="0 0 85 88" fill="none" xmlns="http://www.w3.org/2000/svg">
<path d="M69.2972 35.4651C69.8972 36.0794 69.9799 37.0461 69.4933 37.7578C60.5917 50.7805 49.5841 62.1515 36.945 71.381L35.9469 72.1099C35.2149 72.6443 34.213 72.559 33.5773 71.9081L29.084 67.3074C31.7364 64.4952 31.7074 60.0135 28.9966 57.238C26.2858 54.4624 21.9089 54.4326 19.1624 57.1485L15.0293 52.9166C14.2433 52.1118 14.3518 50.7769 15.2567 50.1161L16.2555 49.3868C28.589 40.3803 39.3304 29.2842 48.017 16.5764C48.6255 15.6864 49.8714 15.5746 50.6216 16.3429L54.8281 20.65C52.1856 23.4629 52.218 27.9368 54.9255 30.7089C57.6328 33.4809 62.0022 33.5142 64.7494 30.8085L69.2972 35.4651Z" fill="#48AF99"/>
<path d="M71.2888 36.74L55.2248 57.5674L34.4477 73.6711L30.452 69.5503L29.0104 67.7608L30.452 65.625L30.9571 63.4893L30.679 61.2111L29.8447 59.0753L28.4541 57.3667L26.7853 56.2276L24.9776 55.658H22.7527L20.3886 56.5124L18.998 57.7938L15.6606 53.6647L21.0897 52.8356C37.9288 50.2641 53.8393 43.3024 67.2929 32.6191L71.2888 36.74Z" fill="#279191"/>
<path fill-rule="evenodd" clip-rule="evenodd" d="M27.0566 67.511C27.0573 66.906 27.2929 66.326 27.7116 65.8991L27.719 65.8915C29.5904 63.9755 29.5904 60.8689 27.719 58.9529C25.8477 57.0368 22.8137 57.0368 20.9424 58.9529L20.935 58.9604C20.518 59.3891 19.9516 59.6304 19.3608 59.6311C18.7699 59.6317 18.203 59.3916 17.7852 58.9638L13.4562 54.5314C11.6976 52.7307 11.9401 49.7438 13.965 48.2651L14.9638 47.5358L16.2557 49.3907L15.2569 50.12C14.3519 50.7808 14.2435 52.1157 15.0295 52.9204L19.3584 57.3529L19.3691 57.3419C19.3725 57.3384 19.3759 57.3349 19.3794 57.3315C22.1204 54.5362 26.5555 54.5396 29.2923 57.3419C32.0289 60.144 32.0325 64.6847 29.3032 67.4913C29.2996 67.495 29.2959 67.4987 29.2923 67.5024L29.2815 67.5134L33.5774 71.912C34.2131 72.5629 35.2151 72.6482 35.947 72.1137L36.9451 71.3849C49.5842 62.1553 60.5918 50.7843 69.4935 37.7617C69.9801 37.05 69.8973 36.0832 69.2973 35.469L64.7849 30.8486C64.7685 30.8657 64.752 30.8827 64.7355 30.8997C64.7189 30.9167 64.7022 30.9336 64.6854 30.9504C61.9414 33.7053 57.5359 33.6885 54.8123 30.8997C52.0886 28.1109 52.0722 23.5999 54.7629 20.7903C54.7793 20.7732 54.7958 20.7562 54.8123 20.7392C54.8289 20.7222 54.8456 20.7054 54.8623 20.6886L50.6219 16.3468C49.8715 15.5785 48.6256 15.6903 48.0172 16.5803C39.3306 29.2881 28.5892 40.3842 16.2557 49.3907L14.9638 47.5358C27.0911 38.68 37.653 27.7694 46.1943 15.274C47.5962 13.2233 50.4665 12.9658 52.1952 14.7358L56.4355 19.0777C56.8554 19.5076 57.0901 20.0916 57.0872 20.6997C57.0843 21.3078 56.8441 21.8894 56.42 22.3152C56.4085 22.3267 56.3971 22.3384 56.3856 22.3501C54.5143 24.2662 54.5143 27.3727 56.3856 29.2888C58.2569 31.2048 61.2909 31.2048 63.1622 29.2888C63.1736 29.2772 63.1849 29.2654 63.1963 29.2535C63.6121 28.8194 64.1802 28.5734 64.774 28.5705C65.3679 28.5675 65.9382 28.8077 66.3582 29.2376L70.8707 33.858C72.234 35.254 72.4219 37.4506 71.3164 39.0681C62.2694 52.3031 51.0823 63.8596 38.237 73.2396L37.2389 73.9685C35.622 75.1492 33.4085 74.9609 32.0042 73.5229L27.7083 69.1243C27.2905 68.6964 27.056 68.116 27.0566 67.511Z" fill="#125978"/>
<path fill-rule="evenodd" clip-rule="evenodd" d="M42.1667 24.2999L43.1499 25.3067C43.5844 25.7516 43.5844 26.4728 43.1499 26.9176C42.7155 27.3625 42.0111 27.3625 41.5767 26.9176L40.5934 25.9108C40.159 25.466 40.159 24.7448 40.5934 24.2999C41.0279 23.8551 41.7322 23.8551 42.1667 24.2999Z" fill="#125978"/>
<path fill-rule="evenodd" clip-rule="evenodd" d="M46.2968 28.5328L47.2802 29.5396C47.7146 29.9845 47.7146 30.7057 47.2802 31.1506C46.8457 31.5954 46.1412 31.5954 45.7068 31.1506L44.7235 30.1437C44.2891 29.6989 44.2891 28.9777 44.7235 28.5328C45.158 28.088 45.8623 28.088 46.2968 28.5328Z" fill="#125978"/>
<path fill-rule="evenodd" clip-rule="evenodd" d="M51.4099 35.3778C50.9754 35.8226 50.2711 35.8226 49.8366 35.3778L48.6566 34.1696C48.2222 33.7248 48.2222 33.0036 48.6566 32.5587C49.0911 32.1139 49.7955 32.1139 50.2299 32.5587L51.4099 33.7668C51.8443 34.2117 51.8443 34.933 51.4099 35.3778Z" fill="#125978"/>
<path fill-rule="evenodd" clip-rule="evenodd" d="M55.5398 39.6063C55.1053 40.0512 54.4009 40.0512 53.9665 39.6063L52.7866 38.3981C52.352 37.9533 52.3521 37.2321 52.7866 36.7872C53.221 36.3424 53.9254 36.3424 54.3598 36.7872L55.5398 37.9954C55.9743 38.4402 55.9743 39.1615 55.5398 39.6063Z" fill="#125978"/>
<path fill-rule="evenodd" clip-rule="evenodd" d="M58.4898 41.0197L59.473 42.0265C59.9075 42.4714 59.9075 43.1926 59.473 43.6374C59.0386 44.0823 58.3342 44.0823 57.8998 43.6374L56.9164 42.6306C56.482 42.1858 56.482 41.4645 56.9164 41.0197C57.3509 40.5748 58.0553 40.5748 58.4898 41.0197Z" fill="#125978"/>
<path fill-rule="evenodd" clip-rule="evenodd" d="M62.6195 45.2462L63.6028 46.2531C64.0373 46.6979 64.0373 47.4191 63.6028 47.864C63.1684 48.3088 62.464 48.3088 62.0296 47.864L61.0463 46.8572C60.6118 46.4124 60.6118 45.6911 61.0463 45.2462C61.4807 44.8014 62.1851 44.8014 62.6195 45.2462Z" fill="#125978"/>
<path d="M29.6585 46.6028L29.8633 40.8446C29.8633 40.8446 30.4332 39.5479 31.067 38.9253C31.6646 38.3382 31.9702 38.1039 32.8938 37.7854C33.8175 37.4669 34.5878 37.456 35.6853 37.4669C37.1311 37.4812 38.1694 37.6513 39.3474 37.9865C40.5255 38.3218 42.8598 39.0375 44.7852 40.2076C47.0015 41.5546 48.3186 42.4956 49.6425 44.7002C50.282 45.7652 50.6186 46.4193 50.8547 47.6337C51.2474 49.6537 51.2303 51.7239 50.8547 53.3751C50.6068 54.4649 50.1697 54.7921 49.4376 55.6465C48.7056 56.5009 45.7498 58.1191 44.2645 58.3202C43.2913 58.452 39.7145 58.7896 37.7084 58.1191C36.7438 57.7967 35.0203 56.5494 34.0292 54.9425C33.4658 54.0289 32.9292 52.3398 32.0914 50.7349C31.2256 49.0761 29.6585 46.6028 29.6585 46.6028Z" fill="#F8ECE1"/>
<path d="M34.5564 48.394C33.8564 47.5558 32.0381 45.3096 32.0381 45.3096V45.9885C32.0381 46.5333 32.4175 47.0508 32.6271 47.3966C33.2674 48.4527 33.6686 49.0729 33.8564 49.4585C34.0442 49.844 34.9576 52.1489 34.9576 52.1489C34.9576 52.1489 35.06 51.2102 35.1198 50.4894C35.1795 49.7686 35.0261 48.9563 34.5564 48.394Z" fill="#0D5074"/>
<path d="M48.8208 52.3833C48.8208 52.3833 48.4092 53.0118 47.6342 53.6322C46.8489 54.2608 46.7208 54.244 45.6196 54.7134C44.5184 55.1827 43.6904 54.7637 43.0928 54.4955C42.4953 54.2272 43.4328 54.9231 43.8696 55.1744C44.3036 55.424 44.3477 55.6689 44.3477 55.6689C44.3477 55.6689 44.3904 55.7695 44.2282 55.9371C44.066 56.1047 43.8696 56.2472 43.8696 56.2472C43.8696 56.2472 44.0062 56.5825 45.2696 56.0712C46.9346 55.3975 47.7504 54.6463 47.9672 54.3697C48.7291 53.3975 48.8208 52.3833 48.8208 52.3833Z" fill="#0D5074"/>
<path fill-rule="evenodd" clip-rule="evenodd" d="M29.8634 40.8446C29.6585 41.3618 29.3235 45.7035 29.6585 46.6028C29.8342 47.0742 30.2562 47.731 30.7428 48.4882C31.1846 49.1756 31.6794 49.9456 32.0914 50.7349C32.5006 51.519 32.8382 52.3232 33.1419 53.0472C33.46 53.8051 33.741 54.4753 34.0292 54.9425C35.0203 56.5494 36.7438 57.7967 37.7084 58.1191C39.7145 58.7896 43.2913 58.452 44.2645 58.3202C45.7498 58.1191 48.7056 56.5009 49.4376 55.6465C49.5602 55.5034 49.6746 55.3751 49.7811 55.2554C50.3108 54.661 50.6483 54.2823 50.8547 53.3751C51.2303 51.7239 51.2474 49.6537 50.8547 47.6337C50.6186 46.4193 50.282 45.7652 49.6425 44.7002C48.3186 42.4956 47.0015 41.5546 44.7852 40.2076C42.8598 39.0375 40.5255 38.3218 39.3474 37.9865C38.1694 37.6513 37.1311 37.4812 35.6853 37.4669C34.5878 37.456 33.8175 37.4669 32.8938 37.7854C31.9702 38.1039 31.6646 38.3382 31.067 38.9253C30.4332 39.5479 30.0682 40.3275 29.8634 40.8446ZM32.4926 40.04C32.0999 40.3672 31.7841 41.1363 31.7841 42.2192C31.7841 43.7901 33.1603 45.3162 34.021 46.2704C34.276 46.5534 34.486 46.7861 34.6011 46.9548C35.1048 47.6924 35.5829 48.7652 35.6938 49.2933C35.7826 49.7157 35.9158 50.4248 35.9158 50.4248C35.9158 50.4248 35.2533 48.9413 35.1645 48.7736C34.5519 47.617 32.9365 46.058 32.9365 46.058L31.7841 44.6415C31.7841 44.6415 31.543 45.8878 31.7841 46.4268C31.9234 46.738 32.2061 47.2226 32.529 47.7757C32.7649 48.1803 33.0225 48.6216 33.2609 49.0586C33.7715 49.9944 34.1398 50.9546 34.4802 51.8418C34.9226 52.9949 35.3175 54.0245 35.9158 54.7162C36.8167 55.7577 37.7754 56.2036 39.1255 56.535C40.6621 56.9121 44.256 56.7026 45.8523 56.0572C47.4276 55.4204 48.5286 54.3868 48.8294 53.2301C49.1303 52.0735 49.2327 51.221 49.2327 51.221C49.2327 51.221 48.5071 52.6228 47.5767 53.35C46.7401 54.0037 46.1032 54.288 45.2633 54.5066C44.4206 54.7259 43.0352 54.406 43.0352 54.406C43.0352 54.406 44.5017 54.1926 45.2633 53.8612C46.1398 53.4797 46.3721 53.331 47.0559 52.6711C48.0695 51.6929 48.5071 50.9025 48.7632 50.2236C49.0643 49.4256 49.1412 48.5271 48.934 47.7008C48.6348 46.5081 48.119 45.6568 47.3035 44.7253C46.6291 43.955 45.2811 42.9421 43.9657 42.0432C42.6028 41.1119 41.2682 40.5865 40.5938 40.325C39.1656 39.7711 37.2816 39.3007 36.5048 39.2186C35.4408 39.1062 34.5262 39.158 34.1487 39.2186C33.3118 39.353 32.93 39.6732 32.56 39.9837C32.5375 40.0025 32.5151 40.0213 32.4926 40.04Z" fill="#0D4E73"/>
<path d="M46.6837 47.6228C46.9147 47.0759 46.9056 46.1225 46.9056 46.1225C46.9056 46.1225 46.5693 46.8075 46.3081 47.2204C46.0958 47.556 45.7191 48.0502 45.7191 48.0502C45.7191 48.0502 45.0529 46.6323 44.8569 45.6615C44.7246 45.0065 44.6861 43.96 44.6861 43.96C44.6861 43.96 44.5013 44.9966 44.5496 45.6615C44.6108 46.5065 44.819 46.9635 45.1215 47.7569C45.3213 48.281 45.4865 48.5534 45.7191 49.0644C45.9499 49.5714 46.1704 49.8249 46.3081 50.3635C46.5028 51.1255 46.3081 52.3751 46.3081 52.3751C46.3081 52.3751 45.0249 53.3103 44.063 53.5653C43.4282 53.7336 43.0466 53.7182 42.3898 53.7497C41.8804 53.7742 41.0837 53.7497 41.0837 53.7497C41.0837 53.7497 41.1985 53.1865 41.3313 52.8445C41.5722 52.2239 41.7536 51.8598 42.2362 51.3945C42.5168 51.1238 43.0471 50.8078 43.0471 50.8078C43.0471 50.8078 42.7445 50.7897 42.552 50.8078C42.251 50.8361 42.1026 51.0116 41.8008 50.9922C41.5006 50.9728 41.0837 50.7156 41.0837 50.7156L41.5191 51.3945C41.5191 51.3945 40.9764 51.9526 40.7252 52.3751C40.468 52.8077 40.2386 53.5653 40.2386 53.5653C40.2386 53.5653 39.4194 53.3841 38.9411 53.1546C38.3767 52.8837 38.0562 52.6903 37.635 52.2326C36.9481 51.4863 37.0049 50.7887 36.6533 49.8439C36.2969 48.8862 36.3322 48.2528 35.8252 47.3629C35.4036 46.6228 34.4509 45.6615 34.4509 45.6615C34.4509 45.6615 35.5876 45.9017 36.2435 45.6615C36.526 45.558 36.9179 45.2927 36.9179 45.2927C36.9179 45.2927 36.6165 46.6106 36.9179 47.3629C37.1252 47.8805 37.3737 48.123 37.7709 48.5107L37.7886 48.528C38.1362 48.8672 38.7874 49.2739 38.7874 49.2739C38.7874 49.2739 38.1598 48.7375 37.8996 48.2933C37.6505 47.868 37.57 47.5874 37.4899 47.1031C37.374 46.4031 37.5311 45.9945 37.635 45.2927C37.7488 44.5233 38.0703 43.3482 38.0703 43.3482C38.0703 43.3482 38.6051 43.306 38.9411 43.2392C39.2701 43.1738 39.7691 43.0129 39.7691 43.0129C39.7691 43.0129 40.3401 43.4288 40.7252 43.6667C41.2921 44.0168 41.715 44.0499 42.2362 44.4629C42.5921 44.745 43.0471 45.2927 43.0471 45.2927C43.0471 45.2927 42.8666 44.6373 42.6118 44.2953C42.1952 43.736 41.6274 43.7899 41.0837 43.3482C40.7278 43.0589 40.2386 42.5351 40.2386 42.5351C40.2386 42.5351 40.5671 42.2215 40.7252 41.982C40.9169 41.6916 41.0837 41.1689 41.0837 41.1689L41.5191 41.3533C41.5191 41.3533 43.6513 42.5023 44.8569 43.4571C45.9321 44.3087 46.6326 44.7494 47.3837 45.8878C47.867 46.6203 48.2081 47.0529 48.3398 47.9161C48.4473 48.621 48.3945 49.0522 48.1861 49.7349C47.9345 50.5593 47.0251 51.6208 47.0251 51.6208C47.0251 51.6208 46.8509 50.7081 46.6837 50.1372C46.4957 49.4954 46.0947 48.528 46.0947 48.528C46.0947 48.528 46.52 48.0103 46.6837 47.6228Z" fill="#2F888A"/>
<path d="M37.2422 40.8502C36.6883 40.1876 35.3215 39.7271 35.3215 39.7271C35.3215 39.7271 36.9119 39.7629 37.8995 39.9785C39.0498 40.2296 40.7251 41.0178 40.7251 41.0178C40.7251 41.0178 40.2609 41.854 39.769 42.1829C39.1735 42.5809 37.9763 42.6103 37.9763 42.6103C37.9763 42.6103 37.7222 41.4243 37.2422 40.8502Z" fill="#2F888A"/>
<path d="M33.6058 42.6103C33.0594 42.3031 32.4363 41.5207 32.4363 41.5207C32.4363 41.5207 32.3376 42.7576 32.6412 43.4569C32.9608 44.193 33.28 44.6542 34.0155 44.9991C34.6561 45.2994 35.1432 45.3599 35.8253 45.1667C36.4322 44.9947 36.8482 44.7988 37.1484 44.2531C37.431 43.7395 37.3766 43.3299 37.2423 42.7612C37.147 42.3574 37.0214 42.1439 36.7899 41.7973C36.337 41.1191 35.9214 40.7969 35.168 40.4646C34.5596 40.1964 33.7594 40.032 33.4948 40.1294L33.4823 40.134C33.2266 40.228 33.1177 40.2681 33.0168 40.5568C32.9164 40.8445 33.3669 41.4523 33.7378 41.9523L33.7594 41.9817C34.0951 42.4346 34.7753 43.0126 34.7753 43.0126C34.7753 43.0126 34.0258 42.8464 33.6058 42.6103Z" fill="#2F888A"/>
<path d="M43.3431 47.5841C43.2693 47.043 43.1537 46.7269 42.8395 46.2765C42.5492 45.8606 41.6785 45.3952 41.4309 45.2707C41.1834 45.1462 39.9968 45.1869 39.7236 45.2707C39.3725 45.3785 39.1227 45.8238 39.0407 46.176C38.9724 46.4693 38.9613 47.2236 39.0407 47.4835C39.1572 47.8649 39.2741 48.0711 39.5188 48.3887C39.927 48.9187 40.2666 49.1974 40.9102 49.4029C41.4121 49.5631 41.7561 49.644 42.259 49.4867C42.7496 49.3332 43.0745 49.1404 43.2919 48.6821C43.4764 48.2929 43.4012 48.0095 43.3431 47.5841Z" fill="#F8ECE1"/>
<path fill-rule="evenodd" clip-rule="evenodd" d="M42.8395 46.2765C43.1537 46.7269 43.2693 47.043 43.3431 47.5841C43.3502 47.6358 43.3575 47.6854 43.3646 47.7334C43.4156 48.08 43.454 48.3402 43.2919 48.6821C43.0745 49.1404 42.7496 49.3332 42.259 49.4867C41.7561 49.644 41.4121 49.5631 40.9102 49.4029C40.2666 49.1974 39.927 48.9187 39.5188 48.3887C39.2741 48.0711 39.1572 47.8649 39.0407 47.4835C38.9613 47.2236 38.9724 46.4693 39.0407 46.176C39.1227 45.8238 39.3725 45.3785 39.7236 45.2707C39.9968 45.1869 41.1834 45.1462 41.4309 45.2707C41.6785 45.3952 42.5492 45.8606 42.8395 46.2765ZM42.6621 46.2195C42.9423 46.5488 43.0454 46.7798 43.1112 47.1754C43.1175 47.2132 43.124 47.2495 43.1303 47.2846C43.1759 47.5379 43.21 47.7282 43.0655 47.9781C42.8717 48.3131 42.582 48.4541 42.1446 48.5663C41.6963 48.6813 41.3896 48.6221 40.9421 48.505C40.3682 48.3549 40.0654 48.1511 39.7015 47.7636C39.4834 47.5314 39.3791 47.3807 39.2753 47.1019C39.2045 46.9119 39.2144 46.3604 39.2753 46.146C39.3483 45.8886 39.5711 45.563 39.8841 45.4842C40.1277 45.4229 41.1856 45.3932 41.4063 45.4842C41.6271 45.5752 42.4034 45.9154 42.6621 46.2195Z" fill="#0D4E73"/>
<path d="M42.0345 47.0417C42.0057 46.8698 41.9607 46.7694 41.8382 46.6263C41.725 46.4942 41.3856 46.3463 41.2891 46.3068C41.1926 46.2672 40.73 46.2802 40.6235 46.3068C40.4866 46.341 40.3893 46.4825 40.3573 46.5944C40.3307 46.6876 40.3264 46.9272 40.3573 47.0097C40.4027 47.1309 40.4483 47.1964 40.5436 47.2973C40.7028 47.4657 40.8352 47.5542 41.0861 47.6195C41.2817 47.6704 41.4158 47.6961 41.6119 47.6461C41.8031 47.5974 41.9298 47.5361 42.0145 47.3905C42.0865 47.2669 42.0571 47.1768 42.0345 47.0417Z" fill="#0D4E73"/>
</svg>
