<svg width="96" height="96" viewBox="0 0 96 96" fill="none" xmlns="http://www.w3.org/2000/svg">
<path d="M48 96C74.5097 96 96 74.5097 96 48C96 21.4903 74.5097 0 48 0C21.4903 0 0 21.4903 0 48C0 74.5097 21.4903 96 48 96Z" fill="url(#paint0_linear)"/>
<path fill-rule="evenodd" clip-rule="evenodd" d="M14.2448 46.7628C14.2365 46.9421 14.2325 47.122 14.2325 47.3026C14.2325 47.9849 14.2919 48.6585 14.4077 49.3222H14.2325V50.3667C14.2325 50.8766 14.2656 51.3818 14.3307 51.8815C15.6017 61.6323 29.0367 69.3048 45.4231 69.3048C61.8097 69.3048 75.2447 61.6323 76.5157 51.8815C76.5808 51.3818 76.6139 50.8766 76.6139 50.3667V49.3222H76.4387C76.5545 48.6585 76.6139 47.9849 76.6139 47.3026C76.6139 47.122 76.6099 46.9421 76.6016 46.7628C76.131 36.5533 62.352 28.3644 45.4231 28.3644C28.4944 28.3644 14.7154 36.5533 14.2448 46.7628ZM11.6832 46.7628C11.9152 40.5336 16.1483 35.3009 22.0397 31.7237C28.1471 28.0156 36.4206 25.8052 45.4231 25.8052C54.4258 25.8052 62.6992 28.0156 68.8066 31.7237C74.6981 35.3009 78.9312 40.5336 79.1632 46.7628H79.1732V50.3667C79.1732 56.8334 74.8675 62.2655 68.8066 65.9455C62.6992 69.6536 54.4258 71.864 45.4231 71.864C36.4206 71.864 28.1471 69.6536 22.0397 65.9455C15.9789 62.2655 11.6732 56.8334 11.6732 50.3667V46.7628H11.6832Z" fill="#606063"/>
<path d="M76.6163 50.367C76.6163 60.8263 62.6518 69.305 45.4257 69.305C28.1994 69.305 14.2349 60.8263 14.2349 50.367V47.3691H76.6163V50.367Z" fill="#BEBEBE"/>
<path d="M76.6163 47.3026C76.6163 57.7618 62.6518 66.2405 45.4257 66.2405C28.1994 66.2405 14.2349 57.7618 14.2349 47.3026C14.2349 36.8434 28.1994 28.3645 45.4257 28.3645C62.6518 28.3645 76.6163 36.8434 76.6163 47.3026Z" fill="#FAF9FA"/>
<g clip-path="url(#clip0)">
<path d="M66.1596 51.3157L71.5949 38.8937C71.5949 38.8937 71.6927 35.5544 70.9653 33.5783C70.2795 31.7151 69.8615 30.902 68.2004 29.2709C66.5394 27.6397 64.8941 26.8196 62.5231 25.707C59.3997 24.2414 56.9935 23.5276 54.1183 23.0195C51.2432 22.5114 45.4936 21.6136 40.1594 22.1026C34.0193 22.6654 30.2271 23.2979 25.1308 26.6027C22.669 28.1992 21.2777 29.2381 19.5309 31.5689C16.6253 35.4458 14.5494 39.8534 13.6722 43.7433C13.0932 46.3106 13.6992 47.4568 14.4014 50.026C15.1036 52.5953 19.8079 59.0849 22.7965 61.0485C24.7545 62.3348 32.101 66.7518 37.0988 67.4058C39.5018 67.7204 44.4808 66.8589 48.2516 64.4771C50.3953 63.1228 53.2727 60.0964 56.7118 57.5602C60.266 54.9387 66.1596 51.3157 66.1596 51.3157Z" fill="#F8ECE1"/>
<path d="M53.8004 50.0455C56.1608 48.9925 62.3627 46.1109 62.3627 46.1109L61.6699 47.5505C61.114 48.7057 59.7702 49.4105 58.9665 49.9268C56.5122 51.5037 55.0166 52.4038 54.2194 53.027C53.4221 53.6502 49.1061 57.5926 49.1061 57.5926C49.1061 57.5926 49.8437 55.496 50.4508 53.9057C51.0578 52.3154 52.2167 50.7519 53.8004 50.0455Z" fill="#691806"/>
<path d="M19.0573 43.7452C19.0573 43.7452 19.3009 45.5038 20.3344 47.6211C21.3816 49.7668 21.674 49.8637 23.5629 51.9985C25.4518 54.1332 27.66 54.1014 29.2185 54.151C30.7771 54.2006 28.0511 54.7059 26.8554 54.7868C25.6676 54.867 25.3229 55.3407 25.3229 55.3407C25.3229 55.3407 25.1285 55.5098 25.3062 56.0331C25.4839 56.5564 25.7606 57.0617 25.7606 57.0617C25.7606 57.0617 25.1248 57.6313 22.93 55.2398C20.0373 52.0884 19.0497 49.6515 18.8658 48.8407C18.2196 45.9906 19.0573 43.7452 19.0573 43.7452Z" fill="#691806"/>
<path fill-rule="evenodd" clip-rule="evenodd" d="M71.5948 38.8937C71.5077 40.2023 67.7976 49.7553 66.1596 51.3157C65.3008 52.1335 63.7231 53.0895 61.9042 54.1916C60.2527 55.1919 58.403 56.3129 56.7118 57.5602C55.0317 58.7993 53.4853 60.1553 52.0934 61.3763C50.6361 62.6543 49.348 63.7846 48.2516 64.477C44.4808 66.8589 39.5018 67.7204 37.0988 67.4058C32.101 66.7518 24.7545 62.3348 22.7965 61.0485C19.8079 59.0849 15.1036 52.5953 14.4014 50.026C14.2838 49.5956 14.1689 49.2054 14.0619 48.8413C13.5295 47.0328 13.1902 45.8806 13.6722 43.7433C14.5494 39.8534 16.6253 35.4458 19.5309 31.5689C21.2777 29.2381 22.669 28.1992 25.1308 26.6027C30.2271 23.2979 34.0193 22.6654 40.1594 22.1026C45.4936 21.6136 51.2432 22.5114 54.1183 23.0195C56.9935 23.5276 59.3997 24.2414 62.5231 25.707C64.8941 26.8196 66.5394 27.6397 68.2004 29.2709C69.8615 30.902 70.2795 31.7151 70.9653 33.5783C71.6927 35.5544 71.682 37.5851 71.5948 38.8937ZM66.7624 34.4669C67.2729 35.5671 67.1673 37.5247 66.0622 39.821C64.4592 43.152 59.9427 44.9638 57.1184 46.0968C56.2812 46.4329 55.5921 46.7091 55.1726 46.9477C53.3369 47.9906 51.2142 49.7708 50.4367 50.7756C49.8148 51.5795 48.8049 52.9453 48.8049 52.9453C48.8049 52.9453 51.7432 50.485 52.1051 50.2214C54.6026 48.4026 59.667 46.7685 59.667 46.7685L63.5904 44.9574C63.5904 44.9574 62.837 47.8496 61.7687 48.743C61.1515 49.2588 60.0492 49.9937 58.7906 50.8324C57.8703 51.4463 56.866 52.1155 55.9076 52.7955C53.8547 54.2514 52.083 55.9065 50.4457 57.4353C48.3178 59.4229 46.4181 61.1975 44.4258 62.045C41.4258 63.3212 38.9095 63.2748 35.6682 62.5804C31.9793 61.7902 24.4655 57.6271 21.6916 54.6068C18.9542 51.6264 17.6416 48.2954 18.1749 45.5314C18.7082 42.7675 19.3578 40.854 19.3578 40.854C19.3578 40.854 19.4876 44.5772 20.7463 47.0819C21.8781 49.3338 22.9574 50.5957 24.5404 51.9283C26.1286 53.2652 29.4338 54.0205 29.4338 54.0205C29.4338 54.0205 26.4983 52.0506 25.199 50.5598C23.7034 48.8438 23.3557 48.2881 22.5588 46.1811C21.3776 43.0582 21.243 40.9294 21.3851 39.2248C21.5522 37.221 22.3035 35.2363 23.5924 33.6985C25.4528 31.4791 27.4305 30.2076 30.1346 29.0763C32.3707 28.1407 36.3029 27.3876 40.0484 26.8428C43.9293 26.2782 47.3352 26.5452 49.0522 26.6884C52.6885 26.9918 57.2193 27.9437 58.9734 28.5735C61.3759 29.4361 63.2898 30.4925 64.0396 31.0115C65.7021 32.1624 66.1962 33.2366 66.6749 34.2776C66.7042 34.3409 66.7331 34.4039 66.7624 34.4669Z" fill="#621706"/>
<path d="M28.5107 35.862C28.5721 34.4633 29.5644 32.451 29.5644 32.451C29.5644 32.451 29.5885 34.2515 29.7288 35.3976C29.8429 36.3287 30.1486 37.7666 30.1486 37.7666C30.1486 37.7666 33.0279 35.4492 34.4401 33.5934C35.3928 32.3415 36.5434 30.1622 36.5434 30.1622C36.5434 30.1622 35.883 32.5516 35.1009 33.9114C34.1068 35.6399 33.1929 36.3934 31.7329 37.7628C30.7683 38.6675 30.1352 39.0743 29.1137 39.9171C28.1001 40.7534 27.3672 41.0626 26.5215 42.0624C25.3253 43.4765 24.4689 46.3279 24.4689 46.3279C24.4689 46.3279 26.2736 49.6387 28.0818 51.1747C29.2751 52.1885 30.1114 52.5506 31.4914 53.297C32.5618 53.8761 34.2997 54.6485 34.2997 54.6485C34.2997 54.6485 34.6277 53.3354 34.6911 52.4729C34.8063 50.9077 34.7879 49.9479 34.2251 48.4619C33.8978 47.5975 33.08 46.3786 33.08 46.3786C33.08 46.3786 33.7492 46.6534 34.1446 46.8909C34.763 47.2624 34.9031 47.7882 35.5718 48.0593C36.237 48.3289 37.3959 48.2147 37.3959 48.2147L35.767 49.2038C35.767 49.2038 36.3644 50.949 36.4733 52.1048C36.5849 53.288 36.3051 55.132 36.3051 55.132C36.3051 55.132 38.2515 55.5954 39.5142 55.6038C41.0042 55.6134 41.8908 55.5348 43.2634 55.0002C45.5021 54.1284 46.0916 52.5904 47.8118 50.9508C49.5554 49.2889 50.1259 47.9091 52.124 46.5468C53.7859 45.4137 56.8154 44.3611 56.8154 44.3611C56.8154 44.3611 54.1259 43.6943 52.9608 42.5061C52.459 41.9945 51.887 41.0263 51.887 41.0263C51.887 41.0263 51.1902 44.1326 49.7744 45.4162C48.8006 46.2991 48.0188 46.5562 46.7691 46.9673L46.7134 46.9856C45.6199 47.3454 43.8046 47.5339 43.8046 47.5339C43.8046 47.5339 45.7016 47.0458 46.7142 46.3732C47.6839 45.7291 48.1433 45.2174 48.8098 44.2734C49.7731 42.9089 49.8523 41.88 50.3451 40.2843C50.8855 38.5349 51.3933 35.7105 51.3933 35.7105C51.3933 35.7105 50.2864 35.0679 49.6322 34.5785C48.9916 34.0993 48.0826 33.2418 48.0826 33.2418C48.0826 33.2418 46.4305 33.5329 45.3597 33.6388C43.7835 33.7946 42.8402 33.4273 41.2983 33.7637C40.2451 33.9935 38.7078 34.6841 38.7078 34.6841C38.7078 34.6841 39.7647 33.4812 40.6617 33.0196C42.1282 32.2648 43.294 32.9666 44.9138 32.5924C45.9743 32.3474 47.5606 31.7429 47.5606 31.7429C47.5606 31.7429 47.1745 30.738 47.0788 30.0664C46.9629 29.2525 47.1375 27.9715 47.1375 27.9715L46.0132 27.912C46.0132 27.912 40.2561 28.1419 36.6895 28.9192C33.5085 29.6124 31.5526 29.822 28.7759 31.4587C26.9891 32.5119 25.8144 33.0763 24.6503 34.7704C23.6998 36.1537 23.3734 37.1228 23.1248 38.7861C22.8247 40.7944 23.6967 43.9863 23.6967 43.9863C23.6967 43.9863 25.0028 42.2313 25.9448 41.1938C27.0039 40.0275 28.8535 38.3909 28.8535 38.3909C28.8535 38.3909 28.4671 36.853 28.5107 35.862Z" fill="#B32D2D"/>
<path d="M55.7224 31.2707C57.5895 30.4389 60.9985 30.8766 60.9985 30.8766C60.9985 30.8766 57.5422 29.3069 55.1985 28.7422C52.469 28.0845 48.0623 28.0222 48.0623 28.0222C48.0623 28.0222 48.2071 30.2757 48.9293 31.482C49.8036 32.9423 52.3478 34.2434 52.3478 34.2434C52.3478 34.2434 54.1045 31.9916 55.7224 31.2707Z" fill="#B32D2D"/>
<path d="M61.7458 38.7659C63.2341 38.6798 65.3724 37.6655 65.3724 37.6655C65.3724 37.6655 64.3225 40.3904 62.9562 41.5591C61.5177 42.7894 60.3607 43.4369 58.4272 43.4071C56.7433 43.3812 55.6342 43.0055 54.3648 41.8899C53.2352 40.8973 52.5406 40.0514 52.4519 38.5836C52.3685 37.2021 52.9035 36.3898 53.7724 35.3228C54.3894 34.5653 54.8774 34.2426 55.7288 33.7471C57.3946 32.7777 58.6172 32.5244 60.5763 32.5995C62.1581 32.6602 64.0465 33.1396 64.5161 33.6199L64.5382 33.6426C64.9922 34.1066 65.1854 34.3044 65.1078 35.021C65.0301 35.735 63.4411 36.5574 62.1335 37.2341L62.0569 37.2739C60.873 37.887 58.8206 38.4088 58.8206 38.4088C58.8206 38.4088 60.6018 38.832 61.7458 38.7659Z" fill="#B32D2D"/>
<path d="M35.7329 39.2366C36.4438 38.1657 37.0148 37.6151 38.1501 36.9852C39.1986 36.4035 41.5457 36.3178 42.2051 36.31C42.8644 36.3021 45.3743 37.6162 45.8762 38.0766C46.5212 38.6684 46.6039 39.8713 46.4209 40.7027C46.2684 41.3954 45.5225 43.0064 45.0867 43.4753C44.4469 44.1635 43.9852 44.4798 43.1351 44.9001C41.7165 45.6015 40.7017 45.8412 39.1082 45.6108C37.8655 45.4312 37.0433 45.2468 36.1225 44.3929C35.2242 43.5597 34.7223 42.8146 34.7226 41.6179C34.7229 40.6018 35.1739 40.0787 35.7329 39.2366Z" fill="#F8ECE1"/>
<path fill-rule="evenodd" clip-rule="evenodd" d="M38.1501 36.9852C37.0149 37.6151 36.4438 38.1657 35.7329 39.2366C35.6649 39.339 35.5985 39.4367 35.5343 39.5312C35.0709 40.2132 34.7228 40.7254 34.7226 41.6179C34.7223 42.8146 35.2242 43.5597 36.1225 44.3929C37.0433 45.2468 37.8655 45.4312 39.1082 45.6108C40.7017 45.8412 41.7165 45.6015 43.135 44.9001C43.9852 44.4798 44.4469 44.1635 45.0867 43.4753C45.5225 43.0064 46.2684 41.3954 46.4209 40.7027C46.6039 39.8713 46.5212 38.6684 45.8762 38.0766C45.3743 37.6162 42.8644 36.3021 42.2051 36.31C41.5457 36.3178 39.1986 36.4035 38.1501 36.9852ZM38.5895 37.0478C37.6511 37.456 37.1938 37.8394 36.6486 38.61C36.5964 38.6837 36.5454 38.7539 36.496 38.8218C36.1396 39.3119 35.8719 39.68 35.9277 40.3593C36.0025 41.2703 36.4816 41.869 37.3077 42.5596C38.1543 43.2674 38.8742 43.4593 39.9559 43.674C41.343 43.9493 42.2021 43.8305 43.3801 43.3856C44.086 43.1189 44.4639 42.9072 44.9718 42.4234C45.3178 42.0938 45.8593 40.9142 45.9472 40.3965C46.0527 39.775 45.906 38.8541 45.3132 38.3632C44.8521 37.9813 42.6076 36.8235 42.0401 36.7881C41.4727 36.7527 39.4562 36.6707 38.5895 37.0478Z" fill="#621706"/>
<path d="M39.1006 39.4404C39.338 39.1056 39.5373 38.9393 39.9467 38.7627C40.3248 38.5996 41.2056 38.6373 41.4534 38.6533C41.7013 38.6694 42.6827 39.1754 42.8845 39.342C43.1439 39.5562 43.2089 39.957 43.1635 40.2273C43.1256 40.4525 42.8904 40.9651 42.7396 41.1081C42.5183 41.318 42.3535 41.4097 42.0455 41.525C41.5315 41.7174 41.1564 41.7682 40.5504 41.6469C40.0777 41.5524 39.7631 41.4682 39.3927 41.1594C39.0311 40.8581 38.8213 40.5971 38.7877 40.2007C38.7591 39.8641 38.9141 39.7035 39.1006 39.4404Z" fill="#621706"/>
</g>
<path d="M80 96C88.8366 96 96 88.8366 96 80C96 71.1634 88.8366 64 80 64C71.1634 64 64 71.1634 64 80C64 88.8366 71.1634 96 80 96Z" fill="#36CED9"/>
<path fill-rule="evenodd" clip-rule="evenodd" d="M69.5274 80.0348C69.5245 80.0965 69.5231 80.1585 69.5231 80.2207C69.5231 80.4556 69.5436 80.6875 69.5835 80.916H69.5231V81.2756C69.5231 81.4512 69.5345 81.6252 69.5569 81.7972C69.9946 85.1544 74.6203 87.7961 80.2622 87.7961C85.9042 87.7961 90.5299 85.1544 90.9675 81.7972C90.9899 81.6252 91.0013 81.4512 91.0013 81.2756V80.916H90.941C90.9809 80.6875 91.0013 80.4556 91.0013 80.2207C91.0013 80.1585 90.9999 80.0965 90.9971 80.0348C90.835 76.5196 86.0909 73.7002 80.2622 73.7002C74.4336 73.7002 69.6894 76.5196 69.5274 80.0348ZM68.6454 80.0348C68.7253 77.8901 70.1827 76.0884 72.2112 74.8568C74.314 73.5801 77.1626 72.819 80.2622 72.819C83.3619 72.819 86.2104 73.5801 88.3132 74.8568C90.3417 76.0884 91.7992 77.8901 91.8791 80.0348H91.8825V81.2756C91.8825 83.5022 90.4 85.3725 88.3132 86.6395C86.2104 87.9162 83.3619 88.6773 80.2622 88.6773C77.1626 88.6773 74.314 87.9162 72.2112 86.6395C70.1244 85.3725 68.642 83.5022 68.642 81.2756V80.0348H68.6454Z" fill="#606063"/>
<path d="M91.0021 81.2758C91.0021 84.8769 86.1941 87.7962 80.2631 87.7962C74.332 87.7962 69.5239 84.8769 69.5239 81.2758V80.2436H91.0021V81.2758Z" fill="#BEBEBE"/>
<path d="M91.0021 80.2207C91.0021 83.8219 86.1941 86.7411 80.2631 86.7411C74.332 86.7411 69.5239 83.8219 69.5239 80.2207C69.5239 76.6196 74.332 73.7003 80.2631 73.7003C86.1941 73.7003 91.0021 76.6196 91.0021 80.2207Z" fill="#FAF9FA"/>
<g clip-path="url(#clip1)">
<path d="M87.4018 81.6023L89.2732 77.3254C89.2732 77.3254 89.3069 76.1757 89.0565 75.4953C88.8203 74.8538 88.6764 74.5738 88.1045 74.0122C87.5326 73.4506 86.9661 73.1682 86.1498 72.7852C85.0744 72.2805 84.2459 72.0348 83.256 71.8598C82.266 71.6849 80.2864 71.3758 78.4498 71.5441C76.3358 71.7379 75.0301 71.9557 73.2754 73.0936C72.4278 73.6432 71.9488 74.0009 71.3474 74.8034C70.3469 76.1383 69.6322 77.6558 69.3302 78.9951C69.1308 79.8791 69.3395 80.2737 69.5813 81.1583C69.823 82.0429 71.4427 84.2773 72.4717 84.9534C73.1459 85.3963 75.6753 86.9171 77.3961 87.1422C78.2234 87.2506 79.9377 86.9539 81.236 86.1339C81.9741 85.6676 82.9648 84.6256 84.1489 83.7524C85.3726 82.8498 87.4018 81.6023 87.4018 81.6023Z" fill="#F8ECE1"/>
<path d="M83.1465 81.1651C83.9592 80.8025 86.0945 79.8104 86.0945 79.8104L85.856 80.306C85.6646 80.7038 85.2019 80.9464 84.9252 81.1242C84.0802 81.6671 83.5652 81.977 83.2907 82.1916C83.0162 82.4062 81.5302 83.7635 81.5302 83.7635C81.5302 83.7635 81.7842 83.0417 81.9932 82.4941C82.2022 81.9466 82.6012 81.4083 83.1465 81.1651Z" fill="#691806"/>
<path d="M71.1843 78.9958C71.1843 78.9958 71.2681 79.6014 71.624 80.3304C71.9845 81.0691 72.0852 81.1025 72.7356 81.8375C73.3859 82.5725 74.1462 82.5615 74.6828 82.5786C75.2194 82.5957 74.2808 82.7697 73.8692 82.7975C73.4602 82.8251 73.3415 82.9882 73.3415 82.9882C73.3415 82.9882 73.2746 83.0465 73.3358 83.2266C73.397 83.4068 73.4922 83.5808 73.4922 83.5808C73.4922 83.5808 73.2733 83.7769 72.5176 82.9535C71.5217 81.8685 71.1816 81.0294 71.1183 80.7502C70.8958 79.769 71.1843 78.9958 71.1843 78.9958Z" fill="#691806"/>
<path fill-rule="evenodd" clip-rule="evenodd" d="M89.2732 77.3254C89.2432 77.776 87.9658 81.0651 87.4018 81.6023C87.1061 81.8839 86.5629 82.2131 85.9367 82.5925C85.368 82.9369 84.7312 83.3229 84.1489 83.7524C83.5704 84.179 83.038 84.6459 82.5588 85.0662C82.057 85.5063 81.6135 85.8954 81.236 86.1339C79.9377 86.9539 78.2234 87.2506 77.3961 87.1422C75.6753 86.9171 73.1459 85.3963 72.4717 84.9534C71.4427 84.2773 69.823 82.0429 69.5813 81.1583C69.5408 81.0101 69.5012 80.8757 69.4644 80.7504C69.2811 80.1277 69.1642 79.731 69.3302 78.9951C69.6322 77.6558 70.3469 76.1383 71.3474 74.8034C71.9488 74.0009 72.4278 73.6432 73.2754 73.0936C75.0301 71.9557 76.3358 71.7379 78.4498 71.5441C80.2864 71.3758 82.266 71.6849 83.256 71.8598C84.2459 72.0348 85.0744 72.2805 86.1498 72.7852C86.9661 73.1682 87.5326 73.4506 88.1045 74.0122C88.6764 74.5738 88.8203 74.8538 89.0564 75.4953C89.3069 76.1756 89.3032 76.8749 89.2732 77.3254ZM87.6094 75.8012C87.7851 76.18 87.7488 76.854 87.3683 77.6447C86.8164 78.7916 85.2613 79.4154 84.2889 79.8055C84.0006 79.9212 83.7634 80.0163 83.6189 80.0984C82.9869 80.4575 82.256 81.0704 81.9884 81.4164C81.7742 81.6932 81.4265 82.1634 81.4265 82.1634C81.4265 82.1634 82.4382 81.3163 82.5628 81.2256C83.4227 80.5994 85.1664 80.0367 85.1664 80.0367L86.5173 79.4131C86.5173 79.4131 86.2578 80.409 85.89 80.7165C85.6775 80.8941 85.298 81.1472 84.8646 81.436C84.5478 81.6473 84.202 81.8777 83.872 82.1118C83.1652 82.6131 82.5552 83.183 81.9915 83.7094C81.2588 84.3937 80.6047 85.0047 79.9188 85.2965C78.8859 85.7359 78.0195 85.7199 76.9035 85.4808C75.6334 85.2088 73.0464 83.7754 72.0913 82.7355C71.1488 81.7093 70.6969 80.5625 70.8805 79.6108C71.0641 78.6591 71.2878 78.0003 71.2878 78.0003C71.2878 78.0003 71.3325 79.2823 71.7658 80.1446C72.1555 80.92 72.5271 81.3545 73.0722 81.8133C73.619 82.2736 74.757 82.5336 74.757 82.5336C74.757 82.5336 73.7463 81.8554 73.2989 81.3421C72.784 80.7513 72.6643 80.5599 72.3899 79.8345C71.9832 78.7592 71.9369 78.0263 71.9858 77.4394C72.0433 76.7495 72.302 76.0661 72.7458 75.5367C73.3863 74.7725 74.0672 74.3348 74.9982 73.9452C75.7682 73.6231 77.122 73.3638 78.4116 73.1762C79.7478 72.9818 80.9205 73.0738 81.5117 73.1231C82.7637 73.2275 84.3237 73.5553 84.9276 73.7721C85.7548 74.0691 86.4137 74.4328 86.6719 74.6115C87.2443 75.0078 87.4144 75.3776 87.5793 75.7361C87.5893 75.7579 87.5993 75.7795 87.6094 75.8012Z" fill="#621706"/>
<path d="M74.4391 76.2816C74.4602 75.8 74.8019 75.1071 74.8019 75.1071C74.8019 75.1071 74.8102 75.7271 74.8585 76.1216C74.8978 76.4422 75.003 76.9373 75.003 76.9373C75.003 76.9373 75.9944 76.1394 76.4806 75.5005C76.8086 75.0694 77.2048 74.3191 77.2048 74.3191C77.2048 74.3191 76.9774 75.1418 76.7081 75.61C76.3659 76.2051 76.0512 76.4645 75.5485 76.936C75.2164 77.2475 74.9984 77.3876 74.6467 77.6777C74.2977 77.9657 74.0454 78.0722 73.7542 78.4164C73.3423 78.9033 73.0475 79.885 73.0475 79.885C73.0475 79.885 73.6688 81.0249 74.2914 81.5538C74.7023 81.9028 74.9902 82.0275 75.4653 82.2845C75.8339 82.4839 76.4323 82.7498 76.4323 82.7498C76.4323 82.7498 76.5452 82.2977 76.567 82.0008C76.6067 81.4619 76.6004 81.1314 76.4066 80.6197C76.2939 80.3221 76.0123 79.9025 76.0123 79.9025C76.0123 79.9025 76.2427 79.9971 76.3789 80.0789C76.5918 80.2068 76.64 80.3878 76.8702 80.4811C77.0993 80.574 77.4983 80.5347 77.4983 80.5347L76.9375 80.8752C76.9375 80.8752 77.1431 81.4761 77.1807 81.874C77.2191 82.2814 77.1227 82.9163 77.1227 82.9163C77.1227 82.9163 77.7929 83.0759 78.2276 83.0787C78.7406 83.0821 79.0459 83.055 79.5185 82.8709C80.2893 82.5708 80.4923 82.0412 81.0846 81.4767C81.6849 80.9045 81.8813 80.4294 82.5692 79.9604C83.1414 79.5703 84.1845 79.2078 84.1845 79.2078C84.1845 79.2078 83.2585 78.9783 82.8573 78.5692C82.6846 78.393 82.4876 78.0596 82.4876 78.0596C82.4876 78.0596 82.2477 79.1292 81.7603 79.5711C81.425 79.8751 81.1558 79.9636 80.7255 80.1052L80.7063 80.1115C80.3299 80.2353 79.7048 80.3003 79.7048 80.3003C79.7048 80.3003 80.358 80.1322 80.7066 79.9006C81.0405 79.6788 81.1987 79.5027 81.4281 79.1776C81.7598 78.7078 81.7871 78.3536 81.9568 77.8042C82.1428 77.2019 82.3177 76.2294 82.3177 76.2294C82.3177 76.2294 81.9365 76.0081 81.7113 75.8396C81.4907 75.6747 81.1778 75.3794 81.1778 75.3794C81.1778 75.3794 80.609 75.4796 80.2403 75.5161C79.6976 75.5698 79.3728 75.4433 78.8419 75.5591C78.4793 75.6382 77.95 75.876 77.95 75.876C77.95 75.876 78.3139 75.4619 78.6227 75.3029C79.1276 75.043 79.529 75.2847 80.0867 75.1558C80.4519 75.0715 80.998 74.8633 80.998 74.8633C80.998 74.8633 80.8651 74.5173 80.8322 74.2861C80.7923 74.0059 80.8524 73.5648 80.8524 73.5648L80.4653 73.5443C80.4653 73.5443 78.4831 73.6235 77.2551 73.8911C76.1598 74.1298 75.4864 74.202 74.5304 74.7655C73.9152 75.1281 73.5107 75.3224 73.11 75.9057C72.7827 76.382 72.6703 76.7156 72.5847 77.2883C72.4814 77.9798 72.7816 79.0788 72.7816 79.0788C72.7816 79.0788 73.2313 78.4745 73.5556 78.1173C73.9203 77.7157 74.5571 77.1523 74.5571 77.1523C74.5571 77.1523 74.4241 76.6228 74.4391 76.2816Z" fill="#B32D2D"/>
<path d="M83.8082 74.7008C84.4511 74.4144 85.6248 74.5651 85.6248 74.5651C85.6248 74.5651 84.4348 74.0247 83.6279 73.8302C82.6881 73.6038 81.1708 73.5824 81.1708 73.5824C81.1708 73.5824 81.2207 74.3583 81.4693 74.7736C81.7704 75.2764 82.6463 75.7243 82.6463 75.7243C82.6463 75.7243 83.2512 74.949 83.8082 74.7008Z" fill="#B32D2D"/>
<path d="M85.8821 77.2814C86.3945 77.2518 87.1308 76.9026 87.1308 76.9026C87.1308 76.9026 86.7693 77.8408 86.2989 78.2431C85.8036 78.6667 85.4052 78.8897 84.7395 78.8794C84.1597 78.8705 83.7779 78.7411 83.3408 78.3571C82.9519 78.0153 82.7127 77.724 82.6822 77.2187C82.6535 76.743 82.8377 76.4633 83.1369 76.096C83.3493 75.8351 83.5173 75.724 83.8105 75.5534C84.384 75.2197 84.8049 75.1325 85.4795 75.1583C86.0241 75.1792 86.6743 75.3443 86.8359 75.5097L86.8436 75.5175C86.9999 75.6772 87.0664 75.7453 87.0397 75.9921C87.0129 76.2379 86.4658 76.521 86.0156 76.754L85.9892 76.7677C85.5816 76.9788 84.875 77.1585 84.875 77.1585C84.875 77.1585 85.4882 77.3042 85.8821 77.2814Z" fill="#B32D2D"/>
<path d="M76.9257 77.4436C77.1705 77.0748 77.3671 76.8853 77.758 76.6684C78.119 76.4681 78.9271 76.4386 79.1541 76.4359C79.3812 76.4332 80.2453 76.8856 80.4181 77.0442C80.6402 77.2479 80.6687 77.6621 80.6057 77.9483C80.5532 78.1869 80.2963 78.7415 80.1463 78.903C79.926 79.1399 79.767 79.2488 79.4743 79.3935C78.9859 79.635 78.6365 79.7175 78.0879 79.6382C77.66 79.5764 77.3769 79.5129 77.0599 79.2189C76.7506 78.932 76.5778 78.6755 76.5779 78.2634C76.578 77.9136 76.7333 77.7335 76.9257 77.4436Z" fill="#F8ECE1"/>
<path fill-rule="evenodd" clip-rule="evenodd" d="M77.758 76.6684C77.3671 76.8853 77.1705 77.0748 76.9257 77.4436C76.9023 77.4788 76.8795 77.5125 76.8574 77.545C76.6978 77.7798 76.578 77.9561 76.5779 78.2634C76.5778 78.6755 76.7506 78.932 77.0599 79.2189C77.3769 79.5129 77.66 79.5764 78.0879 79.6382C78.6365 79.7175 78.9859 79.635 79.4743 79.3935C79.767 79.2488 79.926 79.1399 80.1463 78.903C80.2963 78.7415 80.5532 78.1869 80.6057 77.9483C80.6687 77.6621 80.6402 77.2479 80.4181 77.0442C80.2453 76.8856 79.3812 76.4332 79.1541 76.4359C78.9271 76.4386 78.119 76.4681 77.758 76.6684ZM77.9093 76.6899C77.5862 76.8305 77.4287 76.9625 77.241 77.2278C77.2231 77.2532 77.2055 77.2774 77.1885 77.3007C77.0658 77.4695 76.9736 77.5962 76.9928 77.8301C77.0186 78.1438 77.1835 78.3499 77.468 78.5877C77.7595 78.8314 78.0073 78.8974 78.3798 78.9714C78.8573 79.0662 79.1531 79.0253 79.5587 78.8721C79.8017 78.7803 79.9319 78.7073 80.1067 78.5408C80.2259 78.4273 80.4123 78.0212 80.4426 77.8429C80.4789 77.6289 80.4284 77.3119 80.2243 77.1428C80.0655 77.0113 79.2927 76.6127 79.0974 76.6005C78.902 76.5883 78.2077 76.5601 77.9093 76.6899Z" fill="#621706"/>
<path d="M78.0853 77.5136C78.167 77.3984 78.2356 77.3411 78.3766 77.2803C78.5068 77.2242 78.81 77.2372 78.8954 77.2427C78.9807 77.2482 79.3186 77.4224 79.3881 77.4798C79.4774 77.5535 79.4998 77.6915 79.4842 77.7846C79.4711 77.8621 79.3901 78.0386 79.3382 78.0878C79.262 78.1601 79.2053 78.1917 79.0992 78.2314C78.9223 78.2976 78.7931 78.3151 78.5844 78.2734C78.4217 78.2408 78.3134 78.2118 78.1858 78.1055C78.0614 78.0018 77.9891 77.9119 77.9775 77.7754C77.9677 77.6595 78.0211 77.6043 78.0853 77.5136Z" fill="#621706"/>
</g>
<path d="M95.5211 83.8705C93.3839 92.442 84.7014 97.6584 76.128 95.521C67.5582 93.3841 62.3411 84.702 64.4792 76.1312C66.6154 67.5587 75.2979 62.3419 83.8687 64.4788C92.4415 66.6157 97.6584 75.2986 95.5211 83.8705Z" fill="black"/>
<g clip-path="url(#clip2)">
<path fill-rule="evenodd" clip-rule="evenodd" d="M82.2381 82.1954C82.1131 82.2051 81.4673 82.2447 80.0266 82.2447C78.8807 82.2447 78.0671 82.2093 77.7817 82.1954C73.3533 81.9952 70.048 81.203 70.048 80.2544C70.048 79.3058 73.3533 78.5146 77.7817 78.3112V81.4064C78.0713 81.4278 78.9005 81.4781 80.0464 81.4781C81.4214 81.4781 82.11 81.4192 82.234 81.4074V78.3134C86.6529 78.5157 89.951 79.308 89.951 80.2544C89.951 81.2008 86.654 81.9931 82.234 82.1943L82.2381 82.1954ZM82.2381 77.9933V75.2236H88.4051V71H71.6147V75.2236H77.7806V77.9922C72.7689 78.2288 69 79.2491 69 80.4717C69 81.6944 72.7689 82.7136 77.7806 82.9513V91.8267H82.2371V82.9481C87.2373 82.7115 91 81.6922 91 80.4707C91 79.2491 87.2404 78.2299 82.2371 77.9922L82.2381 77.9933Z" fill="#00FFB4"/>
</g>
<defs>
<linearGradient id="paint0_linear" x1="48" y1="0" x2="48" y2="96" gradientUnits="userSpaceOnUse">
<stop stop-color="#54DADE"/>
<stop offset="0.762" stop-color="#24C7D6"/>
</linearGradient>
<clipPath id="clip0">
<rect width="57.322" height="55.0291" fill="white" transform="translate(27.8623 6) rotate(25.6982)"/>
</clipPath>
<clipPath id="clip1">
<rect width="19.7362" height="18.9468" fill="white" transform="translate(74.2159 66) rotate(25.6982)"/>
</clipPath>
<clipPath id="clip2">
<rect width="22" height="22" fill="white" transform="translate(69 69)"/>
</clipPath>
</defs>
</svg>
