<svg width="96" height="96" viewBox="0 0 96 96" fill="none" xmlns="http://www.w3.org/2000/svg">
<path d="M48 96C74.5097 96 96 74.5097 96 48C96 21.4903 74.5097 0 48 0C21.4903 0 0 21.4903 0 48C0 74.5097 21.4903 96 48 96Z" fill="url(#paint0_linear)"/>
<path fill-rule="evenodd" clip-rule="evenodd" d="M14.2448 46.7628C14.2365 46.9421 14.2325 47.122 14.2325 47.3026C14.2325 47.9849 14.2919 48.6585 14.4077 49.3222H14.2325V50.3667C14.2325 50.8766 14.2656 51.3818 14.3307 51.8815C15.6017 61.6323 29.0367 69.3048 45.4231 69.3048C61.8097 69.3048 75.2447 61.6323 76.5157 51.8815C76.5808 51.3818 76.6139 50.8766 76.6139 50.3667V49.3222H76.4387C76.5545 48.6585 76.6139 47.9849 76.6139 47.3026C76.6139 47.122 76.6099 46.9421 76.6016 46.7628C76.131 36.5533 62.352 28.3644 45.4231 28.3644C28.4944 28.3644 14.7154 36.5533 14.2448 46.7628ZM11.6832 46.7628C11.9152 40.5336 16.1483 35.3009 22.0397 31.7237C28.1471 28.0156 36.4206 25.8052 45.4231 25.8052C54.4258 25.8052 62.6992 28.0156 68.8066 31.7237C74.6981 35.3009 78.9312 40.5336 79.1632 46.7628H79.1732V50.3667C79.1732 56.8334 74.8675 62.2655 68.8066 65.9455C62.6992 69.6536 54.4258 71.864 45.4231 71.864C36.4206 71.864 28.1471 69.6536 22.0397 65.9455C15.9789 62.2655 11.6732 56.8334 11.6732 50.3667V46.7628H11.6832Z" fill="#606063"/>
<path d="M76.6163 50.367C76.6163 60.8263 62.6518 69.305 45.4257 69.305C28.1994 69.305 14.2349 60.8263 14.2349 50.367V47.3691H76.6163V50.367Z" fill="#BEBEBE"/>
<path d="M76.6163 47.3026C76.6163 57.7618 62.6518 66.2405 45.4257 66.2405C28.1994 66.2405 14.2349 57.7618 14.2349 47.3026C14.2349 36.8434 28.1994 28.3645 45.4257 28.3645C62.6518 28.3645 76.6163 36.8434 76.6163 47.3026Z" fill="#FAF9FA"/>
<g clip-path="url(#clip0)">
<path d="M66.1596 51.3157L71.5949 38.8937C71.5949 38.8937 71.6927 35.5544 70.9653 33.5783C70.2795 31.7151 69.8615 30.902 68.2004 29.2709C66.5394 27.6397 64.8941 26.8196 62.5231 25.707C59.3997 24.2414 56.9935 23.5276 54.1183 23.0195C51.2432 22.5114 45.4936 21.6136 40.1594 22.1026C34.0193 22.6654 30.2271 23.2979 25.1308 26.6027C22.669 28.1992 21.2777 29.2381 19.5309 31.5689C16.6253 35.4458 14.5494 39.8534 13.6722 43.7433C13.0932 46.3106 13.6992 47.4568 14.4014 50.026C15.1036 52.5953 19.8079 59.0849 22.7965 61.0485C24.7545 62.3348 32.101 66.7518 37.0988 67.4058C39.5018 67.7204 44.4808 66.8589 48.2516 64.4771C50.3953 63.1228 53.2727 60.0964 56.7118 57.5602C60.266 54.9387 66.1596 51.3157 66.1596 51.3157Z" fill="#F8ECE1"/>
<path d="M53.8004 50.0455C56.1608 48.9926 62.3627 46.1109 62.3627 46.1109L61.6699 47.5505C61.114 48.7057 59.7702 49.4106 58.9665 49.9269C56.5122 51.5038 55.0166 52.4038 54.2194 53.027C53.4221 53.6502 49.1061 57.5926 49.1061 57.5926C49.1061 57.5926 49.8437 55.496 50.4508 53.9058C51.0578 52.3155 52.2167 50.7519 53.8004 50.0455Z" fill="#691806"/>
<path d="M19.0573 43.7452C19.0573 43.7452 19.3009 45.5038 20.3344 47.6211C21.3816 49.7668 21.674 49.8637 23.5629 51.9985C25.4518 54.1332 27.66 54.1014 29.2185 54.151C30.7771 54.2006 28.0511 54.7059 26.8554 54.7868C25.6676 54.867 25.3229 55.3407 25.3229 55.3407C25.3229 55.3407 25.1285 55.5098 25.3062 56.0331C25.4839 56.5564 25.7606 57.0617 25.7606 57.0617C25.7606 57.0617 25.1248 57.6313 22.93 55.2398C20.0373 52.0884 19.0497 49.6515 18.8658 48.8407C18.2196 45.9906 19.0573 43.7452 19.0573 43.7452Z" fill="#691806"/>
<path fill-rule="evenodd" clip-rule="evenodd" d="M71.5948 38.8937C71.5077 40.2023 67.7976 49.7553 66.1596 51.3157C65.3008 52.1335 63.7231 53.0895 61.9042 54.1916C60.2527 55.1919 58.403 56.3129 56.7118 57.5602C55.0317 58.7993 53.4853 60.1553 52.0934 61.3763C50.6361 62.6543 49.348 63.7846 48.2516 64.477C44.4808 66.8589 39.5018 67.7204 37.0988 67.4058C32.101 66.7518 24.7545 62.3348 22.7965 61.0485C19.8079 59.0849 15.1036 52.5953 14.4014 50.026C14.2838 49.5956 14.1689 49.2054 14.0619 48.8413C13.5295 47.0328 13.1902 45.8806 13.6722 43.7433C14.5494 39.8534 16.6253 35.4458 19.5309 31.5689C21.2777 29.2381 22.669 28.1992 25.1308 26.6027C30.2271 23.2979 34.0193 22.6654 40.1594 22.1026C45.4936 21.6136 51.2432 22.5114 54.1183 23.0195C56.9935 23.5276 59.3997 24.2414 62.5231 25.707C64.8941 26.8196 66.5394 27.6397 68.2004 29.2709C69.8615 30.902 70.2795 31.7151 70.9653 33.5783C71.6927 35.5544 71.682 37.5851 71.5948 38.8937ZM66.7624 34.4669C67.2729 35.5671 67.1673 37.5247 66.0622 39.821C64.4592 43.152 59.9427 44.9638 57.1184 46.0968C56.2812 46.4329 55.5921 46.7091 55.1726 46.9477C53.3369 47.9906 51.2142 49.7708 50.4367 50.7756C49.8148 51.5795 48.8049 52.9453 48.8049 52.9453C48.8049 52.9453 51.7432 50.485 52.1051 50.2214C54.6026 48.4026 59.667 46.7685 59.667 46.7685L63.5904 44.9574C63.5904 44.9574 62.837 47.8496 61.7687 48.743C61.1515 49.2588 60.0492 49.9937 58.7906 50.8324C57.8703 51.4463 56.866 52.1155 55.9076 52.7955C53.8547 54.2514 52.083 55.9065 50.4457 57.4353C48.3178 59.4229 46.4181 61.1975 44.4258 62.045C41.4258 63.3212 38.9095 63.2748 35.6682 62.5804C31.9793 61.7902 24.4655 57.6271 21.6916 54.6068C18.9542 51.6264 17.6416 48.2954 18.1749 45.5314C18.7082 42.7675 19.3578 40.854 19.3578 40.854C19.3578 40.854 19.4876 44.5772 20.7463 47.0819C21.8781 49.3338 22.9574 50.5957 24.5404 51.9283C26.1286 53.2652 29.4338 54.0205 29.4338 54.0205C29.4338 54.0205 26.4983 52.0506 25.199 50.5598C23.7034 48.8438 23.3557 48.2881 22.5588 46.1811C21.3776 43.0582 21.243 40.9294 21.3851 39.2248C21.5522 37.221 22.3035 35.2363 23.5924 33.6985C25.4528 31.4791 27.4305 30.2076 30.1346 29.0763C32.3707 28.1407 36.3029 27.3876 40.0484 26.8428C43.9293 26.2782 47.3352 26.5452 49.0522 26.6884C52.6885 26.9918 57.2193 27.9437 58.9734 28.5735C61.3759 29.4361 63.2898 30.4925 64.0396 31.0115C65.7021 32.1624 66.1962 33.2366 66.6749 34.2776C66.7042 34.3409 66.7331 34.4039 66.7624 34.4669Z" fill="#621706"/>
<path d="M28.5106 35.862C28.572 34.4633 29.5643 32.451 29.5643 32.451C29.5643 32.451 29.5884 34.2515 29.7288 35.3976C29.8428 36.3287 30.1486 37.7666 30.1486 37.7666C30.1486 37.7666 33.0278 35.4492 34.44 33.5934C35.3927 32.3415 36.5434 30.1622 36.5434 30.1622C36.5434 30.1622 35.8829 32.5516 35.1008 33.9114C34.1068 35.6399 33.1929 36.3934 31.7328 37.7628C30.7683 38.6675 30.1352 39.0743 29.1137 39.9171C28.1001 40.7534 27.3672 41.0626 26.5215 42.0624C25.3252 43.4765 24.4688 46.3279 24.4688 46.3279C24.4688 46.3279 26.2736 49.6387 28.0818 51.1747C29.275 52.1885 30.1114 52.5506 31.4913 53.297C32.5618 53.8761 34.2997 54.6485 34.2997 54.6485C34.2997 54.6485 34.6277 53.3354 34.6911 52.4729C34.8063 50.9077 34.7878 49.9479 34.2251 48.4619C33.8978 47.5975 33.08 46.3786 33.08 46.3786C33.08 46.3786 33.7492 46.6534 34.1446 46.8909C34.763 47.2624 34.9031 47.7882 35.5717 48.0593C36.237 48.3289 37.3958 48.2147 37.3958 48.2147L35.7669 49.2038C35.7669 49.2038 36.3643 50.949 36.4733 52.1048C36.5849 53.288 36.3051 55.132 36.3051 55.132C36.3051 55.132 38.2515 55.5954 39.5142 55.6038C41.0041 55.6134 41.8908 55.5348 43.2634 55.0002C45.502 54.1284 46.0916 52.5904 47.8118 50.9508C49.5553 49.2889 50.1259 47.9091 52.1239 46.5468C53.7859 45.4137 56.8154 44.3611 56.8154 44.3611C56.8154 44.3611 54.1259 43.6943 52.9607 42.5061C52.459 41.9945 51.887 41.0263 51.887 41.0263C51.887 41.0263 51.1902 44.1326 49.7744 45.4162C48.8006 46.2991 48.0188 46.5562 46.769 46.9673L46.7133 46.9856C45.6199 47.3454 43.8045 47.5339 43.8045 47.5339C43.8045 47.5339 45.7015 47.0458 46.7142 46.3732C47.6838 45.7291 48.1433 45.2174 48.8097 44.2734C49.7731 42.9089 49.8523 41.88 50.3451 40.2843C50.8854 38.5349 51.3932 35.7105 51.3932 35.7105C51.3932 35.7105 50.2863 35.0679 49.6321 34.5785C48.9915 34.0993 48.0826 33.2418 48.0826 33.2418C48.0826 33.2418 46.4305 33.5329 45.3597 33.6388C43.7835 33.7946 42.8402 33.4273 41.2982 33.7637C40.245 33.9935 38.7077 34.6841 38.7077 34.6841C38.7077 34.6841 39.7647 33.4812 40.6616 33.0196C42.1281 32.2648 43.294 32.9666 44.9137 32.5924C45.9743 32.3474 47.5606 31.7429 47.5606 31.7429C47.5606 31.7429 47.1744 30.738 47.0788 30.0664C46.9629 29.2525 47.1375 27.9715 47.1375 27.9715L46.0132 27.912C46.0132 27.912 40.2561 28.1419 36.6894 28.9192C33.5085 29.6124 31.5526 29.822 28.7759 31.4587C26.9891 32.5119 25.8143 33.0763 24.6503 34.7704C23.6998 36.1537 23.3733 37.1228 23.1248 38.7861C22.8246 40.7944 23.6967 43.9863 23.6967 43.9863C23.6967 43.9863 25.0028 42.2313 25.9448 41.1938C27.0039 40.0275 28.8534 38.3909 28.8534 38.3909C28.8534 38.3909 28.4671 36.853 28.5106 35.862Z" fill="#B32D2D"/>
<path d="M55.7225 31.2707C57.5895 30.4389 60.9985 30.8766 60.9985 30.8766C60.9985 30.8766 57.5422 29.3069 55.1986 28.7422C52.469 28.0845 48.0624 28.0222 48.0624 28.0222C48.0624 28.0222 48.2071 30.2757 48.9293 31.482C49.8036 32.9423 52.3478 34.2434 52.3478 34.2434C52.3478 34.2434 54.1046 31.9916 55.7225 31.2707Z" fill="#B32D2D"/>
<path d="M61.7458 38.7659C63.2341 38.6798 65.3724 37.6655 65.3724 37.6655C65.3724 37.6655 64.3225 40.3904 62.9562 41.5591C61.5177 42.7894 60.3607 43.4369 58.4272 43.4071C56.7433 43.3812 55.6342 43.0055 54.3648 41.8899C53.2352 40.8973 52.5406 40.0514 52.4519 38.5836C52.3685 37.2021 52.9035 36.3898 53.7724 35.3228C54.3894 34.5653 54.8774 34.2426 55.7288 33.7471C57.3946 32.7777 58.6172 32.5244 60.5763 32.5995C62.1581 32.6602 64.0465 33.1396 64.5161 33.6199L64.5382 33.6426C64.9922 34.1066 65.1854 34.3044 65.1078 35.021C65.0301 35.735 63.4411 36.5574 62.1335 37.2341L62.0569 37.2739C60.873 37.887 58.8206 38.4088 58.8206 38.4088C58.8206 38.4088 60.6018 38.832 61.7458 38.7659Z" fill="#B32D2D"/>
<path d="M35.7329 39.2366C36.4438 38.1657 37.0148 37.6151 38.1501 36.9852C39.1986 36.4035 41.5457 36.3178 42.2051 36.31C42.8644 36.3021 45.3743 37.6162 45.8762 38.0766C46.5212 38.6684 46.6039 39.8713 46.4209 40.7027C46.2684 41.3954 45.5225 43.0064 45.0867 43.4753C44.4469 44.1635 43.9852 44.4798 43.1351 44.9001C41.7165 45.6015 40.7017 45.8412 39.1082 45.6108C37.8655 45.4312 37.0433 45.2468 36.1225 44.3929C35.2242 43.5597 34.7223 42.8146 34.7226 41.6179C34.7229 40.6018 35.1739 40.0787 35.7329 39.2366Z" fill="#F8ECE1"/>
<path fill-rule="evenodd" clip-rule="evenodd" d="M38.15 36.9852C37.0148 37.6151 36.4438 38.1657 35.7328 39.2366C35.6649 39.339 35.5985 39.4367 35.5343 39.5312C35.0709 40.2132 34.7228 40.7254 34.7226 41.6179C34.7223 42.8146 35.2242 43.5597 36.1225 44.3929C37.0432 45.2468 37.8655 45.4312 39.1082 45.6108C40.7017 45.8412 41.7165 45.6015 43.135 44.9001C43.9851 44.4798 44.4469 44.1635 45.0866 43.4753C45.5224 43.0064 46.2684 41.3954 46.4209 40.7027C46.6039 39.8713 46.5212 38.6684 45.8761 38.0766C45.3743 37.6162 42.8644 36.3021 42.205 36.31C41.5457 36.3178 39.1986 36.4035 38.15 36.9852ZM38.5895 37.0478C37.6511 37.456 37.1937 37.8394 36.6486 38.61C36.5964 38.6837 36.5453 38.7539 36.496 38.8218C36.1396 39.3119 35.8719 39.68 35.9277 40.3593C36.0024 41.2703 36.4816 41.869 37.3076 42.5596C38.1543 43.2674 38.8741 43.4593 39.9559 43.674C41.343 43.9493 42.2021 43.8305 43.38 43.3856C44.0859 43.1189 44.4639 42.9072 44.9718 42.4234C45.3178 42.0938 45.8593 40.9142 45.9472 40.3965C46.0527 39.775 45.906 38.8541 45.3132 38.3632C44.8521 37.9813 42.6076 36.8235 42.0401 36.7881C41.4726 36.7527 39.4562 36.6707 38.5895 37.0478Z" fill="#621706"/>
<path d="M39.1006 39.4403C39.3379 39.1056 39.5373 38.9393 39.9467 38.7627C40.3248 38.5995 41.2055 38.6373 41.4534 38.6533C41.7013 38.6693 42.6827 39.1754 42.8845 39.342C43.1439 39.5562 43.2089 39.957 43.1635 40.2273C43.1256 40.4524 42.8904 40.965 42.7396 41.108C42.5183 41.318 42.3535 41.4097 42.0455 41.525C41.5315 41.7174 41.1564 41.7681 40.5504 41.6469C40.0777 41.5524 39.7631 41.4681 39.3926 41.1593C39.0311 40.858 38.8213 40.5971 38.7876 40.2006C38.7591 39.864 38.9141 39.7035 39.1006 39.4403Z" fill="#621706"/>
</g>
<path d="M95.536 84.2495C93.4657 92.5532 85.0545 97.6066 76.749 95.536C68.447 93.4658 63.393 85.055 65.4643 76.7521C67.5337 68.4475 75.9448 63.3937 84.2478 65.4638C92.5527 67.534 97.6066 75.9455 95.536 84.2495Z" fill="black"/>
<g clip-path="url(#clip1)">
<g clip-path="url(#clip2)">
<path d="M76.0754 78.6613L80.6203 74.1755L85.1673 78.6632L87.8117 76.0532L80.6203 68.9553L73.4312 76.051L76.0755 78.6611L76.0754 78.6613ZM68.9193 80.5043L71.5638 77.8938L74.2082 80.5038L71.5636 83.114L68.9193 80.5043ZM76.0754 82.3477L80.6203 86.8332L85.1672 82.3455L87.813 84.9542L87.8117 84.9556L80.6203 92.0534L73.4312 84.9576L73.4275 84.9539L76.0757 82.3474L76.0754 82.3477ZM87.0324 80.5055L89.6769 77.8953L92.3213 80.5053L89.6768 83.1154L87.0324 80.5055Z" fill="#00FFB4"/>
<path d="M83.3019 80.502H83.303L80.6198 77.8536L78.6365 79.8105L78.4086 80.0355L77.9387 80.4994L77.935 80.503L77.9387 80.5068L80.6198 83.1533L83.3032 80.5048L83.3045 80.5033L83.3021 80.502" fill="#00FFB4"/>
</g>
</g>
<defs>
<linearGradient id="paint0_linear" x1="48" y1="0" x2="48" y2="96" gradientUnits="userSpaceOnUse">
<stop stop-color="#54DADE"/>
<stop offset="0.762" stop-color="#24C7D6"/>
</linearGradient>
<clipPath id="clip0">
<rect width="57.322" height="55.0291" fill="white" transform="translate(27.8623 6) rotate(25.6982)"/>
</clipPath>
<clipPath id="clip1">
<rect width="24.2188" height="24.2188" fill="white" transform="translate(68.875 68.875)"/>
</clipPath>
<clipPath id="clip2">
<rect width="24.8646" height="24.5417" fill="white" transform="translate(68.875 67.5833)"/>
</clipPath>
</defs>
</svg>
