<svg width="96" height="96" viewBox="0 0 96 96" fill="none" xmlns="http://www.w3.org/2000/svg">
<g clip-path="url(#clip0)">
<path d="M48 96C74.5097 96 96 74.5097 96 48C96 21.4903 74.5097 0 48 0C21.4903 0 0 21.4903 0 48C0 74.5097 21.4903 96 48 96Z" fill="url(#paint0_linear)"/>
<path fill-rule="evenodd" clip-rule="evenodd" d="M14.2448 46.7628C14.2365 46.9421 14.2325 47.122 14.2325 47.3026C14.2325 47.9849 14.2919 48.6585 14.4077 49.3222H14.2325V50.3667C14.2325 50.8766 14.2656 51.3818 14.3307 51.8815C15.6017 61.6323 29.0367 69.3048 45.4231 69.3048C61.8097 69.3048 75.2447 61.6323 76.5157 51.8815C76.5808 51.3818 76.6139 50.8766 76.6139 50.3667V49.3222H76.4387C76.5545 48.6585 76.6139 47.9849 76.6139 47.3026C76.6139 47.122 76.6099 46.9421 76.6016 46.7628C76.131 36.5533 62.352 28.3644 45.4231 28.3644C28.4944 28.3644 14.7154 36.5533 14.2448 46.7628ZM11.6832 46.7628C11.9152 40.5336 16.1483 35.3009 22.0397 31.7237C28.1471 28.0156 36.4206 25.8052 45.4231 25.8052C54.4258 25.8052 62.6992 28.0156 68.8066 31.7237C74.6981 35.3009 78.9312 40.5336 79.1632 46.7628H79.1732V50.3667C79.1732 56.8334 74.8675 62.2655 68.8066 65.9455C62.6992 69.6536 54.4258 71.864 45.4231 71.864C36.4206 71.864 28.1471 69.6536 22.0397 65.9455C15.9789 62.2655 11.6732 56.8334 11.6732 50.3667V46.7628H11.6832Z" fill="#606063"/>
<path d="M76.6163 50.367C76.6163 60.8263 62.6518 69.305 45.4257 69.305C28.1994 69.305 14.2349 60.8263 14.2349 50.367V47.3691H76.6163V50.367Z" fill="#BEBEBE"/>
<path d="M76.6163 47.3026C76.6163 57.7618 62.6518 66.2405 45.4257 66.2405C28.1994 66.2405 14.2349 57.7618 14.2349 47.3026C14.2349 36.8434 28.1994 28.3645 45.4257 28.3645C62.6518 28.3645 76.6163 36.8434 76.6163 47.3026Z" fill="#FAF9FA"/>
<g clip-path="url(#clip1)">
<path d="M66.1595 51.3158L71.5948 38.8938C71.5948 38.8938 71.6926 35.5544 70.9653 33.5784C70.2794 31.7152 69.8614 30.9021 68.2004 29.271C66.5393 27.6398 64.894 26.8197 62.5231 25.7071C59.3996 24.2415 56.9935 23.5276 54.1183 23.0196C51.2431 22.5115 45.4935 21.6137 40.1594 22.1026C34.0193 22.6655 30.227 23.298 25.1308 26.6028C22.6689 28.1993 21.2777 29.2382 19.5308 31.569C16.6252 35.4459 14.5494 39.8535 13.6721 43.7434C13.0931 46.3107 13.6991 47.4569 14.4013 50.0261C15.1035 52.5954 19.8078 59.085 22.7964 61.0486C24.7545 62.3349 32.1009 66.7519 37.0987 67.4059C39.5018 67.7205 44.4807 66.859 48.2515 64.4771C50.3952 63.1229 53.2727 60.0965 56.7117 57.5603C60.266 54.9388 66.1595 51.3158 66.1595 51.3158Z" fill="#F8ECE1"/>
<path d="M53.8004 50.0455C56.1608 48.9926 62.3627 46.1109 62.3627 46.1109L61.6699 47.5505C61.114 48.7057 59.7702 49.4106 58.9665 49.9269C56.5122 51.5038 55.0166 52.4038 54.2194 53.027C53.4221 53.6502 49.1061 57.5926 49.1061 57.5926C49.1061 57.5926 49.8437 55.496 50.4508 53.9058C51.0578 52.3155 52.2167 50.7519 53.8004 50.0455Z" fill="#691806"/>
<path d="M19.0573 43.7451C19.0573 43.7451 19.3009 45.5038 20.3343 47.6211C21.3815 49.7667 21.674 49.8636 23.5629 51.9984C25.4518 54.1332 27.6599 54.1013 29.2185 54.1509C30.777 54.2005 28.051 54.7059 26.8553 54.7867C25.6675 54.8669 25.3228 55.3407 25.3228 55.3407C25.3228 55.3407 25.1284 55.5098 25.3061 56.033C25.4838 56.5563 25.7606 57.0616 25.7606 57.0616C25.7606 57.0616 25.1248 57.6312 22.9299 55.2398C20.0372 52.0883 19.0496 49.6514 18.8658 48.8406C18.2195 45.9905 19.0573 43.7451 19.0573 43.7451Z" fill="#691806"/>
<path fill-rule="evenodd" clip-rule="evenodd" d="M71.5948 38.8938C71.5076 40.2024 67.7975 49.7553 66.1595 51.3158C65.3007 52.1336 63.723 53.0896 61.9041 54.1917C60.2526 55.192 58.4029 56.313 56.7117 57.5603C55.0317 58.7994 53.4853 60.1554 52.0934 61.3764C50.6361 62.6544 49.3479 63.7847 48.2515 64.4771C44.4807 66.859 39.5018 67.7205 37.0987 67.4059C32.1009 66.7519 24.7545 62.3349 22.7964 61.0486C19.8078 59.085 15.1035 52.5954 14.4013 50.0261C14.2838 49.5957 14.1688 49.2055 14.0618 48.8414C13.5295 47.0329 13.1901 45.8806 13.6721 43.7434C14.5494 39.8535 16.6252 35.4459 19.5308 31.569C21.2777 29.2382 22.6689 28.1993 25.1308 26.6028C30.227 23.298 34.0192 22.6655 40.1593 22.1026C45.4935 21.6137 51.2431 22.5115 54.1183 23.0196C56.9934 23.5276 59.3996 24.2415 62.5231 25.7071C64.894 26.8197 66.5393 27.6398 68.2004 29.271C69.8614 30.9021 70.2794 31.7152 70.9653 33.5784C71.6926 35.5544 71.682 37.5852 71.5948 38.8938ZM66.7624 34.467C67.2728 35.5672 67.1672 37.5248 66.0621 39.8211C64.4592 43.1521 59.9427 44.9639 57.1183 46.0969C56.2811 46.433 55.5921 46.7091 55.1725 46.9478C53.3369 47.9907 51.2141 49.7709 50.4367 50.7757C49.8147 51.5796 48.8048 52.9454 48.8048 52.9454C48.8048 52.9454 51.7431 50.4851 52.1051 50.2215C54.6026 48.4027 59.667 46.7686 59.667 46.7686L63.5904 44.9574C63.5904 44.9574 62.8369 47.8497 61.7686 48.7431C61.1515 49.2589 60.0491 49.9938 58.7905 50.8325C57.8703 51.4464 56.866 52.1155 55.9076 52.7956C53.8546 54.2515 52.0829 55.9066 50.4457 57.4354C48.3177 59.423 46.418 61.1976 44.4258 62.0451C41.4258 63.3213 38.9095 63.2749 35.6681 62.5805C31.9793 61.7903 24.4654 57.6272 21.6915 54.6069C18.9541 51.6265 17.6415 48.2955 18.1749 45.5315C18.7082 42.7675 19.3577 40.8541 19.3577 40.8541C19.3577 40.8541 19.4876 44.5773 20.7463 47.082C21.878 49.3339 22.9574 50.5958 24.5403 51.9284C26.1285 53.2653 29.4337 54.0206 29.4337 54.0206C29.4337 54.0206 26.4982 52.0507 25.1989 50.5599C23.7034 48.8439 23.3556 48.2882 22.5587 46.1812C21.3775 43.0583 21.243 40.9295 21.3851 39.2249C21.5521 37.2211 22.3034 35.2364 23.5924 33.6986C25.4527 31.4792 27.4305 30.2077 30.1345 29.0764C32.3706 28.1408 36.3028 27.3877 40.0484 26.8429C43.9293 26.2783 47.3351 26.5453 49.0521 26.6885C52.6884 26.9918 57.2193 27.9438 58.9734 28.5736C61.3759 29.4362 63.2897 30.4926 64.0396 31.0116C65.7021 32.1625 66.1961 33.2367 66.6749 34.2777C66.7041 34.341 66.733 34.404 66.7624 34.467Z" fill="#621706"/>
<path d="M28.5106 35.8621C28.572 34.4634 29.5643 32.4511 29.5643 32.4511C29.5643 32.4511 29.5884 34.2516 29.7288 35.3977C29.8428 36.3288 30.1486 37.7667 30.1486 37.7667C30.1486 37.7667 33.0278 35.4493 34.44 33.5936C35.3927 32.3416 36.5433 30.1623 36.5433 30.1623C36.5433 30.1623 35.8829 32.5517 35.1008 33.9116C34.1067 35.6401 33.1929 36.3936 31.7328 37.763C30.7682 38.6676 30.1352 39.0744 29.1137 39.9172C28.1 40.7535 27.3672 41.0628 26.5215 42.0625C25.3252 43.4766 24.4688 46.328 24.4688 46.328C24.4688 46.328 26.2735 49.6388 28.0818 51.1748C29.275 52.1886 30.1113 52.5508 31.4913 53.2972C32.5617 53.8762 34.2997 54.6486 34.2997 54.6486C34.2997 54.6486 34.6276 53.3355 34.6911 52.473C34.8063 50.9078 34.7878 49.9481 34.225 48.462C33.8977 47.5976 33.08 46.3787 33.08 46.3787C33.08 46.3787 33.7492 46.6535 34.1446 46.8911C34.763 47.2625 34.903 47.7883 35.5717 48.0594C36.237 48.3291 37.3958 48.2149 37.3958 48.2149L35.7669 49.204C35.7669 49.204 36.3643 50.9491 36.4733 52.1049C36.5848 53.2882 36.305 55.1321 36.305 55.1321C36.305 55.1321 38.2515 55.5956 39.5142 55.6039C41.0041 55.6135 41.8907 55.5349 43.2634 55.0003C45.502 54.1286 46.0915 52.5905 47.8118 50.9509C49.5553 49.289 50.1258 47.9092 52.1239 46.547C53.7858 45.4138 56.8154 44.3612 56.8154 44.3612C56.8154 44.3612 54.1259 43.6944 52.9607 42.5062C52.459 41.9946 51.8869 41.0264 51.8869 41.0264C51.8869 41.0264 51.1902 44.1328 49.7744 45.4163C48.8005 46.2992 48.0188 46.5563 46.769 46.9674L46.7133 46.9858C45.6198 47.3455 43.8045 47.5341 43.8045 47.5341C43.8045 47.5341 45.7015 47.0459 46.7141 46.3733C47.6838 45.7292 48.1432 45.2175 48.8097 44.2735C49.7731 42.909 49.8522 41.8801 50.3451 40.2844C50.8854 38.5351 51.3932 35.7106 51.3932 35.7106C51.3932 35.7106 50.2863 35.068 49.6321 34.5786C48.9915 34.0994 48.0826 33.2419 48.0826 33.2419C48.0826 33.2419 46.4305 33.533 45.3596 33.6389C43.7835 33.7947 42.8402 33.4274 41.2982 33.7638C40.245 33.9937 38.7077 34.6842 38.7077 34.6842C38.7077 34.6842 39.7647 33.4814 40.6616 33.0197C42.1281 32.2649 43.2939 32.9668 44.9137 32.5925C45.9743 32.3475 47.5605 31.7431 47.5605 31.7431C47.5605 31.7431 47.1744 30.7381 47.0787 30.0666C46.9628 29.2526 47.1374 27.9716 47.1374 27.9716L46.0131 27.9121C46.0131 27.9121 40.2561 28.1421 36.6894 28.9193C33.5084 29.6125 31.5526 29.8222 28.7759 31.4588C26.9891 32.512 25.8143 33.0764 24.6503 34.7705C23.6998 36.1539 23.3733 37.1229 23.1247 38.7862C22.8246 40.7946 23.6967 43.9864 23.6967 43.9864C23.6967 43.9864 25.0027 42.2314 25.9448 41.194C27.0039 40.0276 28.8534 38.3911 28.8534 38.3911C28.8534 38.3911 28.4671 36.8531 28.5106 35.8621Z" fill="#B32D2D"/>
<path d="M55.7225 31.2707C57.5896 30.4388 60.9985 30.8766 60.9985 30.8766C60.9985 30.8766 57.5423 29.3069 55.1986 28.7421C52.469 28.0844 48.0624 28.0222 48.0624 28.0222C48.0624 28.0222 48.2071 30.2757 48.9294 31.4819C49.8037 32.9422 52.3478 34.2433 52.3478 34.2433C52.3478 34.2433 54.1046 31.9915 55.7225 31.2707Z" fill="#B32D2D"/>
<path d="M61.7458 38.7658C63.2341 38.6797 65.3724 37.6655 65.3724 37.6655C65.3724 37.6655 64.3225 40.3904 62.9562 41.559C61.5177 42.7894 60.3607 43.4369 58.4272 43.4071C56.7433 43.3812 55.6342 43.0054 54.3648 41.8899C53.2352 40.8972 52.5406 40.0514 52.4519 38.5835C52.3685 37.2021 52.9035 36.3897 53.7724 35.3228C54.3894 34.5652 54.8774 34.2425 55.7288 33.7471C57.3946 32.7776 58.6172 32.5244 60.5763 32.5995C62.1581 32.6601 64.0465 33.1395 64.5161 33.6199L64.5382 33.6425C64.9922 34.1066 65.1854 34.3044 65.1078 35.021C65.0301 35.7349 63.4411 36.5574 62.1335 37.234L62.0569 37.2739C60.873 37.887 58.8206 38.4088 58.8206 38.4088C58.8206 38.4088 60.6018 38.8319 61.7458 38.7658Z" fill="#B32D2D"/>
<path d="M35.7328 39.2366C36.4437 38.1656 37.0148 37.615 38.15 36.9851C39.1986 36.4034 41.5457 36.3177 42.205 36.3099C42.8644 36.3021 45.3743 37.6161 45.8761 38.0765C46.5212 38.6683 46.6039 39.8712 46.4208 40.7026C46.2683 41.3954 45.5224 43.0063 45.0866 43.4752C44.4469 44.1634 43.9851 44.4797 43.135 44.9C41.7165 45.6014 40.7017 45.8411 39.1082 45.6107C37.8655 45.4311 37.0432 45.2467 36.1225 44.3928C35.2242 43.5596 34.7222 42.8145 34.7225 41.6178C34.7228 40.6017 35.1739 40.0786 35.7328 39.2366Z" fill="#F8ECE1"/>
<path fill-rule="evenodd" clip-rule="evenodd" d="M38.15 36.9852C37.0148 37.615 36.4437 38.1656 35.7328 39.2366C35.6649 39.3389 35.5984 39.4367 35.5343 39.5311C35.0708 40.2131 34.7228 40.7253 34.7225 41.6178C34.7222 42.8145 35.2242 43.5596 36.1225 44.3928C37.0432 45.2467 37.8655 45.4311 39.1082 45.6107C40.7017 45.8411 41.7165 45.6014 43.135 44.9C43.9851 44.4797 44.4469 44.1634 45.0866 43.4752C45.5224 43.0063 46.2683 41.3954 46.4208 40.7026C46.6039 39.8712 46.5212 38.6683 45.8761 38.0765C45.3743 37.6161 42.8643 36.3021 42.205 36.3099C41.5457 36.3177 39.1986 36.4034 38.15 36.9852ZM38.5895 37.0477C37.6511 37.4559 37.1937 37.8393 36.6485 38.6099C36.5964 38.6836 36.5453 38.7538 36.496 38.8217C36.1395 39.3118 35.8719 39.6799 35.9276 40.3593C36.0024 41.2703 36.4815 41.869 37.3076 42.5595C38.1543 43.2673 38.8741 43.4592 39.9559 43.6739C41.343 43.9492 42.202 43.8304 43.38 43.3855C44.0859 43.1188 44.4638 42.9071 44.9717 42.4233C45.3177 42.0937 45.8592 40.9142 45.9471 40.3964C46.0527 39.775 45.9059 38.8541 45.3132 38.3631C44.852 37.9812 42.6075 36.8234 42.0401 36.788C41.4726 36.7526 39.4562 36.6706 38.5895 37.0477Z" fill="#621706"/>
<path d="M39.1006 39.4404C39.338 39.1057 39.5373 38.9394 39.9467 38.7627C40.3248 38.5996 41.2056 38.6374 41.4534 38.6534C41.7013 38.6694 42.6827 39.1754 42.8845 39.3421C43.1439 39.5563 43.2089 39.9571 43.1635 40.2273C43.1256 40.4525 42.8904 40.9651 42.7396 41.1081C42.5183 41.3181 42.3535 41.4098 42.0455 41.5251C41.5315 41.7174 41.1564 41.7682 40.5504 41.647C40.0777 41.5524 39.7631 41.4682 39.3927 41.1594C39.0311 40.8581 38.8213 40.5971 38.7877 40.2007C38.7591 39.8641 38.9141 39.7036 39.1006 39.4404Z" fill="#621706"/>
</g>
<path d="M80 96C88.8366 96 96 88.8366 96 80C96 71.1634 88.8366 64 80 64C71.1634 64 64 71.1634 64 80C64 88.8366 71.1634 96 80 96Z" fill="#36CED9"/>
<path fill-rule="evenodd" clip-rule="evenodd" d="M69.5274 80.0349C69.5245 80.0966 69.5231 80.1585 69.5231 80.2207C69.5231 80.4556 69.5436 80.6876 69.5835 80.9161H69.5231V81.2757C69.5231 81.4513 69.5345 81.6252 69.5569 81.7973C69.9946 85.1545 74.6203 87.7962 80.2622 87.7962C85.9042 87.7962 90.5299 85.1545 90.9675 81.7973C90.9899 81.6252 91.0013 81.4513 91.0013 81.2757V80.9161H90.941C90.9809 80.6876 91.0013 80.4556 91.0013 80.2207C91.0013 80.1585 90.9999 80.0966 90.9971 80.0349C90.835 76.5197 86.0909 73.7003 80.2622 73.7003C74.4336 73.7003 69.6894 76.5197 69.5274 80.0349ZM68.6454 80.0349C68.7253 77.8902 70.1827 76.0885 72.2112 74.8569C74.314 73.5801 77.1626 72.8191 80.2622 72.8191C83.3619 72.8191 86.2104 73.5801 88.3132 74.8569C90.3417 76.0885 91.7992 77.8902 91.8791 80.0349H91.8825V81.2757C91.8825 83.5022 90.4 85.3725 88.3132 86.6396C86.2104 87.9163 83.3619 88.6773 80.2622 88.6773C77.1626 88.6773 74.314 87.9163 72.2112 86.6396C70.1244 85.3725 68.642 83.5022 68.642 81.2757V80.0349H68.6454Z" fill="#606063"/>
<path d="M91.0021 81.2758C91.0021 84.877 86.1941 87.7963 80.2631 87.7963C74.332 87.7963 69.5239 84.877 69.5239 81.2758V80.2437H91.0021V81.2758Z" fill="#BEBEBE"/>
<path d="M91.0021 80.2207C91.0021 83.8218 86.1941 86.7411 80.2631 86.7411C74.332 86.7411 69.5239 83.8218 69.5239 80.2207C69.5239 76.6195 74.332 73.7002 80.2631 73.7002C86.1941 73.7002 91.0021 76.6195 91.0021 80.2207Z" fill="#FAF9FA"/>
<g clip-path="url(#clip2)">
<path d="M87.4018 81.6024L89.2732 77.3255C89.2732 77.3255 89.3069 76.1757 89.0565 75.4954C88.8203 74.8539 88.6764 74.5739 88.1045 74.0123C87.5326 73.4507 86.9661 73.1683 86.1498 72.7853C85.0744 72.2806 84.2459 72.0349 83.256 71.8599C82.266 71.685 80.2864 71.3759 78.4498 71.5442C76.3358 71.738 75.0301 71.9558 73.2754 73.0937C72.4278 73.6433 71.9488 74.001 71.3474 74.8035C70.3469 76.1384 69.6322 77.6559 69.3302 78.9952C69.1308 79.8792 69.3395 80.2738 69.5813 81.1584C69.823 82.043 71.4427 84.2774 72.4717 84.9535C73.1459 85.3964 75.6753 86.9172 77.3961 87.1423C78.2234 87.2506 79.9377 86.954 81.236 86.1339C81.9741 85.6677 82.9648 84.6257 84.1489 83.7525C85.3726 82.8499 87.4018 81.6024 87.4018 81.6024Z" fill="#F8ECE1"/>
<path d="M83.1465 81.165C83.9592 80.8025 86.0945 79.8103 86.0945 79.8103L85.856 80.306C85.6646 80.7037 85.2019 80.9464 84.9252 81.1241C84.0802 81.6671 83.5652 81.977 83.2907 82.1915C83.0162 82.4061 81.5302 83.7635 81.5302 83.7635C81.5302 83.7635 81.7842 83.0416 81.9932 82.4941C82.2022 81.9465 82.6012 81.4082 83.1465 81.165Z" fill="#691806"/>
<path d="M71.1843 78.9958C71.1843 78.9958 71.2682 79.6014 71.624 80.3304C71.9846 81.0691 72.0853 81.1025 72.7356 81.8375C73.386 82.5725 74.1463 82.5615 74.6829 82.5786C75.2195 82.5957 74.2809 82.7697 73.8692 82.7975C73.4603 82.8251 73.3416 82.9882 73.3416 82.9882C73.3416 82.9882 73.2746 83.0465 73.3358 83.2266C73.397 83.4068 73.4923 83.5808 73.4923 83.5808C73.4923 83.5808 73.2734 83.7769 72.5177 82.9535C71.5217 81.8685 71.1817 81.0294 71.1184 80.7502C70.8959 79.769 71.1843 78.9958 71.1843 78.9958Z" fill="#691806"/>
<path fill-rule="evenodd" clip-rule="evenodd" d="M89.2732 77.3255C89.2432 77.7761 87.9658 81.0652 87.4018 81.6024C87.1061 81.884 86.5629 82.2132 85.9367 82.5926C85.368 82.937 84.7312 83.323 84.1489 83.7525C83.5704 84.1791 83.038 84.6459 82.5588 85.0663C82.057 85.5064 81.6135 85.8955 81.236 86.1339C79.9377 86.954 78.2234 87.2506 77.3961 87.1423C75.6753 86.9172 73.1459 85.3964 72.4717 84.9535C71.4427 84.2774 69.823 82.043 69.5813 81.1584C69.5408 81.0102 69.5012 80.8758 69.4644 80.7505C69.2811 80.1278 69.1642 79.7311 69.3302 78.9952C69.6322 77.6559 70.3469 76.1384 71.3474 74.8035C71.9488 74.001 72.4278 73.6433 73.2754 73.0937C75.0301 71.9558 76.3358 71.738 78.4498 71.5442C80.2864 71.3759 82.266 71.685 83.256 71.8599C84.2459 72.0349 85.0744 72.2806 86.1498 72.7853C86.9661 73.1683 87.5326 73.4507 88.1045 74.0123C88.6764 74.5739 88.8203 74.8539 89.0564 75.4954C89.3069 76.1757 89.3032 76.875 89.2732 77.3255ZM87.6094 75.8013C87.7851 76.1801 87.7488 76.8541 87.3683 77.6448C86.8164 78.7917 85.2613 79.4155 84.2889 79.8055C84.0006 79.9213 83.7634 80.0164 83.6189 80.0985C82.9869 80.4576 82.256 81.0705 81.9884 81.4165C81.7742 81.6933 81.4265 82.1635 81.4265 82.1635C81.4265 82.1635 82.4382 81.3164 82.5628 81.2257C83.4227 80.5995 85.1664 80.0368 85.1664 80.0368L86.5173 79.4132C86.5173 79.4132 86.2578 80.4091 85.89 80.7166C85.6775 80.8942 85.298 81.1473 84.8646 81.4361C84.5478 81.6474 84.202 81.8778 83.872 82.1119C83.1652 82.6132 82.5552 83.1831 81.9915 83.7095C81.2588 84.3938 80.6047 85.0048 79.9188 85.2966C78.8859 85.736 78.0195 85.72 76.9035 85.4809C75.6334 85.2089 73.0464 83.7755 72.0913 82.7356C71.1488 81.7094 70.6969 80.5625 70.8805 79.6109C71.0641 78.6592 71.2878 78.0004 71.2878 78.0004C71.2878 78.0004 71.3325 79.2823 71.7658 80.1447C72.1555 80.9201 72.5271 81.3545 73.0722 81.8134C73.619 82.2737 74.757 82.5337 74.757 82.5337C74.757 82.5337 73.7463 81.8555 73.2989 81.3422C72.784 80.7513 72.6643 80.56 72.3899 79.8346C71.9832 78.7593 71.9369 78.0264 71.9858 77.4395C72.0433 76.7496 72.302 76.0662 72.7458 75.5368C73.3863 74.7726 74.0672 74.3348 74.9982 73.9453C75.7682 73.6232 77.122 73.3639 78.4116 73.1763C79.7478 72.9819 80.9205 73.0739 81.5117 73.1232C82.7637 73.2276 84.3237 73.5554 84.9276 73.7722C85.7548 74.0692 86.4137 74.4329 86.6719 74.6116C87.2443 75.0079 87.4144 75.3777 87.5793 75.7362C87.5893 75.7579 87.5993 75.7796 87.6094 75.8013Z" fill="#621706"/>
<path d="M74.4392 76.2816C74.4603 75.8001 74.802 75.1072 74.802 75.1072C74.802 75.1072 74.8103 75.7271 74.8586 76.1217C74.8979 76.4423 75.0032 76.9374 75.0032 76.9374C75.0032 76.9374 75.9945 76.1395 76.4807 75.5006C76.8087 75.0695 77.2049 74.3192 77.2049 74.3192C77.2049 74.3192 76.9775 75.1418 76.7082 75.61C76.366 76.2052 76.0513 76.4646 75.5486 76.9361C75.2165 77.2476 74.9986 77.3876 74.6468 77.6778C74.2978 77.9658 74.0455 78.0722 73.7543 78.4164C73.3425 78.9033 73.0476 79.8851 73.0476 79.8851C73.0476 79.8851 73.669 81.025 74.2916 81.5539C74.7024 81.9029 74.9903 82.0276 75.4655 82.2846C75.834 82.484 76.4324 82.7499 76.4324 82.7499C76.4324 82.7499 76.5453 82.2978 76.5672 82.0008C76.6068 81.4619 76.6005 81.1315 76.4067 80.6198C76.294 80.3222 76.0124 79.9025 76.0124 79.9025C76.0124 79.9025 76.2429 79.9972 76.379 80.0789C76.5919 80.2068 76.6401 80.3879 76.8704 80.4812C77.0994 80.5741 77.4984 80.5347 77.4984 80.5347L76.9376 80.8753C76.9376 80.8753 77.1433 81.4761 77.1808 81.8741C77.2192 82.2815 77.1229 82.9164 77.1229 82.9164C77.1229 82.9164 77.793 83.0759 78.2278 83.0788C78.7408 83.0821 79.046 83.055 79.5186 82.871C80.2894 82.5708 80.4924 82.0413 81.0847 81.4768C81.685 80.9046 81.8814 80.4295 82.5694 79.9605C83.1416 79.5703 84.1847 79.2079 84.1847 79.2079C84.1847 79.2079 83.2586 78.9783 82.8575 78.5692C82.6847 78.3931 82.4878 78.0597 82.4878 78.0597C82.4878 78.0597 82.2479 79.1293 81.7604 79.5712C81.4251 79.8752 81.156 79.9637 80.7256 80.1052L80.7065 80.1115C80.33 80.2354 79.705 80.3003 79.705 80.3003C79.705 80.3003 80.3581 80.1323 80.7068 79.9007C81.0406 79.6789 81.1988 79.5027 81.4283 79.1777C81.76 78.7079 81.7872 78.3536 81.9569 77.8043C82.1429 77.2019 82.3178 76.2295 82.3178 76.2295C82.3178 76.2295 81.9367 76.0082 81.7114 75.8397C81.4909 75.6747 81.1779 75.3795 81.1779 75.3795C81.1779 75.3795 80.6091 75.4797 80.2404 75.5162C79.6977 75.5698 79.3729 75.4434 78.842 75.5592C78.4794 75.6383 77.9501 75.8761 77.9501 75.8761C77.9501 75.8761 78.314 75.4619 78.6228 75.303C79.1278 75.0431 79.5292 75.2847 80.0869 75.1559C80.452 75.0715 80.9982 74.8634 80.9982 74.8634C80.9982 74.8634 80.8652 74.5174 80.8323 74.2862C80.7924 74.0059 80.8525 73.5649 80.8525 73.5649L80.4654 73.5444C80.4654 73.5444 78.4832 73.6236 77.2552 73.8912C76.16 74.1299 75.4866 74.202 74.5305 74.7656C73.9153 75.1282 73.5109 75.3225 73.1101 75.9058C72.7828 76.3821 72.6704 76.7157 72.5848 77.2884C72.4815 77.9799 72.7817 79.0789 72.7817 79.0789C72.7817 79.0789 73.2314 78.4746 73.5558 78.1174C73.9204 77.7158 74.5572 77.1524 74.5572 77.1524C74.5572 77.1524 74.4242 76.6228 74.4392 76.2816Z" fill="#B32D2D"/>
<path d="M83.8083 74.7007C84.4511 74.4143 85.6249 74.565 85.6249 74.565C85.6249 74.565 84.4349 74.0246 83.6279 73.8301C82.6881 73.6037 81.1709 73.5823 81.1709 73.5823C81.1709 73.5823 81.2207 74.3581 81.4694 74.7735C81.7704 75.2763 82.6464 75.7242 82.6464 75.7242C82.6464 75.7242 83.2512 74.9489 83.8083 74.7007Z" fill="#B32D2D"/>
<path d="M85.8821 77.2814C86.3945 77.2518 87.1308 76.9025 87.1308 76.9025C87.1308 76.9025 86.7693 77.8407 86.2989 78.2431C85.8036 78.6667 85.4052 78.8896 84.7395 78.8794C84.1597 78.8705 83.7779 78.7411 83.3408 78.357C82.9519 78.0152 82.7127 77.724 82.6822 77.2186C82.6535 76.743 82.8377 76.4633 83.1369 76.0959C83.3493 75.8351 83.5173 75.724 83.8105 75.5534C84.384 75.2196 84.8049 75.1324 85.4795 75.1583C86.0241 75.1792 86.6743 75.3442 86.8359 75.5096L86.8436 75.5174C86.9999 75.6772 87.0664 75.7453 87.0397 75.992C87.0129 76.2378 86.4658 76.521 86.0156 76.754L85.9892 76.7677C85.5816 76.9788 84.875 77.1585 84.875 77.1585C84.875 77.1585 85.4882 77.3042 85.8821 77.2814Z" fill="#B32D2D"/>
<path d="M76.9259 77.4437C77.1706 77.0749 77.3673 76.8854 77.7581 76.6685C78.1191 76.4682 78.9273 76.4387 79.1543 76.436C79.3813 76.4333 80.2455 76.8857 80.4182 77.0443C80.6403 77.248 80.6688 77.6622 80.6058 77.9485C80.5533 78.187 80.2965 78.7416 80.1464 78.9031C79.9262 79.14 79.7672 79.2489 79.4745 79.3936C78.9861 79.6351 78.6367 79.7176 78.088 79.6383C77.6601 79.5765 77.377 79.513 77.06 79.219C76.7507 78.9321 76.5779 78.6756 76.578 78.2635C76.5781 77.9137 76.7334 77.7336 76.9259 77.4437Z" fill="#F8ECE1"/>
<path fill-rule="evenodd" clip-rule="evenodd" d="M77.758 76.6685C77.3671 76.8854 77.1705 77.0749 76.9257 77.4437C76.9023 77.4789 76.8795 77.5126 76.8574 77.5451C76.6978 77.7799 76.578 77.9563 76.5779 78.2635C76.5778 78.6756 76.7506 78.9321 77.0599 79.219C77.3769 79.513 77.66 79.5765 78.0879 79.6383C78.6365 79.7176 78.9859 79.6351 79.4743 79.3936C79.767 79.2489 79.926 79.14 80.1463 78.9031C80.2963 78.7416 80.5532 78.187 80.6057 77.9485C80.6687 77.6622 80.6402 77.248 80.4181 77.0443C80.2453 76.8857 79.3812 76.4333 79.1541 76.436C78.9271 76.4387 78.119 76.4682 77.758 76.6685ZM77.9093 76.69C77.5862 76.8306 77.4287 76.9626 77.241 77.2279C77.2231 77.2533 77.2055 77.2775 77.1885 77.3008C77.0658 77.4696 76.9736 77.5963 76.9928 77.8302C77.0186 78.1439 77.1835 78.35 77.468 78.5878C77.7595 78.8315 78.0073 78.8975 78.3798 78.9715C78.8573 79.0663 79.1531 79.0254 79.5587 78.8722C79.8017 78.7804 79.9319 78.7074 80.1067 78.5409C80.2259 78.4274 80.4123 78.0213 80.4426 77.843C80.4789 77.629 80.4284 77.312 80.2243 77.143C80.0655 77.0114 79.2927 76.6128 79.0974 76.6006C78.902 76.5884 78.2077 76.5602 77.9093 76.69Z" fill="#621706"/>
<path d="M78.0853 77.5136C78.167 77.3984 78.2356 77.3411 78.3766 77.2803C78.5068 77.2242 78.81 77.2372 78.8954 77.2427C78.9807 77.2482 79.3186 77.4224 79.3881 77.4798C79.4774 77.5535 79.4998 77.6915 79.4842 77.7846C79.4711 77.8621 79.3901 78.0386 79.3382 78.0878C79.262 78.1601 79.2053 78.1917 79.0992 78.2314C78.9223 78.2976 78.7931 78.3151 78.5844 78.2734C78.4217 78.2408 78.3134 78.2118 78.1858 78.1055C78.0614 78.0018 77.9891 77.9119 77.9775 77.7754C77.9677 77.6595 78.0211 77.6043 78.0853 77.5136Z" fill="#621706"/>
</g>
<path fill-rule="evenodd" clip-rule="evenodd" d="M74.7946 71.8042C75.3561 71.4469 76.0863 71.2502 76.8541 71.2502C77.622 71.2502 78.3522 71.4469 78.9138 71.8042C79.4665 72.1559 79.9465 72.7336 79.9465 73.4896V74.1295C79.9465 74.8855 79.4665 75.4632 78.9138 75.8149C78.3522 76.1722 77.622 76.3689 76.8541 76.3689C76.0863 76.3689 75.3561 76.1722 74.7946 75.8149C74.2419 75.4632 73.7617 74.8855 73.7617 74.1295V73.4896C73.7617 72.7336 74.2419 72.1559 74.7946 71.8042ZM76.8541 71.9968C75.5586 71.9968 74.5081 72.6652 74.5081 73.4896V74.1295C74.5081 74.9541 75.5586 75.6225 76.8541 75.6225C78.1498 75.6225 79.2001 74.9541 79.2001 74.1295V73.4896C79.2001 72.6652 78.1498 71.9968 76.8541 71.9968Z" fill="#633001"/>
<path d="M96 80.0001C96 88.8366 88.8366 96.0001 80.0001 96.0001C71.1634 96.0001 64 88.8366 64 80.0001C64 71.1636 71.1634 64 80.0001 64C88.8366 64 96 71.1636 96 80.0001Z" fill="#31D0AA"/>
<path fill-rule="evenodd" clip-rule="evenodd" d="M80.0001 94C87.732 94 94 87.732 94 80.0001C94 72.268 87.732 66.0001 80.0001 66.0001C72.268 66.0001 66 72.268 66 80.0001C66 87.732 72.268 94 80.0001 94ZM80.0001 96.0001C88.8366 96.0001 96 88.8366 96 80.0001C96 71.1636 88.8366 64 80.0001 64C71.1634 64 64 71.1636 64 80.0001C64 88.8366 71.1634 96.0001 80.0001 96.0001Z" fill="#191326"/>
<path d="M80.0002 74.0004V75.7904C80.0002 76.2404 80.5402 76.4604 80.8503 76.1405L83.6403 73.3505C83.8402 73.1504 83.8402 72.8405 83.6403 72.6404L80.8503 69.8504C80.5402 69.5405 80.0002 69.7604 80.0002 70.2104V72.0005C75.5803 72.0005 72.0002 75.5804 72.0002 80.0005C72.0002 81.0404 72.2002 82.0405 72.5702 82.9505C72.8402 83.6204 73.7002 83.8004 74.2102 83.2904C74.4802 83.0204 74.5903 82.6105 74.4403 82.2505C74.1502 81.5605 74.0002 80.7905 74.0002 80.0005C74.0002 76.6904 76.6903 74.0004 80.0002 74.0004ZM85.7902 76.7105C85.5202 76.9805 85.4103 77.4005 85.5603 77.7504C85.8403 78.4505 86.0002 79.2104 86.0002 80.0005C86.0002 83.3105 83.3103 86.0005 80.0002 86.0005V84.2105C80.0002 83.7605 79.4602 83.5405 79.1503 83.8604L76.3603 86.6504C76.1602 86.8505 76.1602 87.1606 76.3603 87.3605L79.1503 90.1505C79.4602 90.4604 80.0002 90.2405 80.0002 89.8004V88.0004C84.4203 88.0004 88.0003 84.4205 88.0003 80.0005C88.0003 78.9605 87.8002 77.9604 87.4303 77.0504C87.1603 76.3805 86.3002 76.2005 85.7902 76.7105Z" fill="#191326"/>
</g>
<defs>
<linearGradient id="paint0_linear" x1="48" y1="0" x2="48" y2="96" gradientUnits="userSpaceOnUse">
<stop stop-color="#54DADE"/>
<stop offset="0.762" stop-color="#24C7D6"/>
</linearGradient>
<clipPath id="clip0">
<rect width="96" height="96" fill="white"/>
</clipPath>
<clipPath id="clip1">
<rect width="57.322" height="55.0291" fill="white" transform="translate(27.8623 6) rotate(25.6982)"/>
</clipPath>
<clipPath id="clip2">
<rect width="19.7362" height="18.9468" fill="white" transform="translate(74.2159 66) rotate(25.6982)"/>
</clipPath>
</defs>
</svg>
