<svg width="61" height="62" viewBox="0 0 61 62" fill="none" xmlns="http://www.w3.org/2000/svg">
<path d="M57.2964 22.4651C57.8965 23.0794 57.9792 24.0461 57.4926 24.7578C48.5909 37.7805 37.5833 49.1515 24.9442 58.381L23.9461 59.1099C23.2142 59.6443 22.2122 59.559 21.5765 58.9081L17.0832 54.3074C19.7357 51.4952 19.7066 47.0135 16.9959 44.238C14.285 41.4624 9.9082 41.4326 7.16166 44.1485L3.02858 39.9166C2.24262 39.1118 2.35104 37.7769 3.25601 37.1161L4.25476 36.3868C16.5883 27.3803 27.3297 16.2842 36.0162 3.57644C36.6247 2.68638 37.8706 2.57459 38.6209 3.3429L42.8274 7.64997C40.1849 10.4629 40.2173 14.9368 42.9247 17.7089C45.6321 20.4809 50.0015 20.5142 52.7487 17.8085L57.2964 22.4651Z" fill="#48AF99"/>
<path d="M59.2883 23.74L43.2243 44.5674L22.4472 60.6711L18.4515 56.5503L17.0099 54.7608L18.4515 52.625L18.9567 50.4893L18.6785 48.2111L17.8442 46.0753L16.4536 44.3667L14.7849 43.2276L12.9771 42.658H10.7522L8.38814 43.5124L6.99754 44.7938L3.66016 40.6647L9.0892 39.8356C25.9284 37.2641 41.8388 30.3024 55.2925 19.6191L59.2883 23.74Z" fill="#279191"/>
<path fill-rule="evenodd" clip-rule="evenodd" d="M15.0561 54.511C15.0568 53.906 15.2924 53.326 15.7111 52.8991L15.7186 52.8915C17.5899 50.9755 17.5899 47.8689 15.7186 45.9529C13.8472 44.0368 10.8132 44.0368 8.94188 45.9529L8.93451 45.9604C8.51754 46.3891 7.95116 46.6304 7.36031 46.6311C6.76938 46.6317 6.20252 46.3916 5.7847 45.9638L1.45574 41.5314C-0.302905 39.7307 -0.0603721 36.7438 1.96452 35.2651L2.96327 34.5358L4.25517 36.3907L3.25642 37.12C2.35146 37.7808 2.24303 39.1157 3.029 39.9204L7.35795 44.3529L7.36863 44.3419C7.37203 44.3384 7.37543 44.3349 7.37892 44.3315C10.1199 41.5362 14.555 41.5396 17.2918 44.3419C20.0284 47.144 20.032 51.6847 17.3027 54.4913C17.2991 54.495 17.2954 54.4987 17.2918 54.5024L17.281 54.5134L21.5769 58.912C22.2126 59.5629 23.2146 59.6482 23.9465 59.1137L24.9446 58.3849C37.5838 49.1553 48.5913 37.7843 57.493 24.7617C57.9796 24.05 57.8969 23.0832 57.2968 22.469L52.7844 17.8486C52.7681 17.8657 52.7515 17.8827 52.735 17.8997C52.7184 17.9167 52.7017 17.9336 52.6849 17.9504C49.941 20.7053 45.5354 20.6885 42.8118 17.8997C40.0881 15.1109 40.0717 10.5999 42.7624 7.79029C42.7788 7.77318 42.7953 7.75616 42.8118 7.73923C42.8284 7.72221 42.8451 7.70539 42.8618 7.68856L38.6214 3.34678C37.8711 2.57847 36.6251 2.69026 36.0167 3.58032C27.3301 16.2881 16.5887 27.3842 4.25517 36.3907L2.96327 34.5358C15.0906 25.68 25.6525 14.7694 34.1939 2.27405C35.5957 0.223261 38.4661 -0.0341635 40.1947 1.7358L44.435 6.07768C44.8549 6.50762 45.0896 7.09161 45.0867 7.69968C45.0838 8.30775 44.8436 8.88942 44.4195 9.31521C44.408 9.32671 44.3966 9.33841 44.3851 9.35012C42.5138 11.2662 42.5138 14.3727 44.3851 16.2888C46.2564 18.2048 49.2904 18.2048 51.1617 16.2888C51.1731 16.2772 51.1844 16.2654 51.1958 16.2535C51.6116 15.8194 52.1797 15.5734 52.7735 15.5705C53.3674 15.5675 53.9377 15.8077 54.3577 16.2376L58.8702 20.858C60.2335 22.254 60.4215 24.4506 59.3159 26.0681C50.269 39.3031 39.0818 50.8596 26.2365 60.2396L25.2385 60.9685C23.6215 62.1492 21.408 61.9609 20.0037 60.5229L15.7078 56.1243C15.29 55.6964 15.0556 55.116 15.0561 54.511Z" fill="#125978"/>
<path fill-rule="evenodd" clip-rule="evenodd" d="M30.1667 11.2999L31.1499 12.3067C31.5844 12.7516 31.5844 13.4728 31.1499 13.9176C30.7155 14.3625 30.0111 14.3625 29.5767 13.9176L28.5934 12.9108C28.159 12.466 28.159 11.7448 28.5934 11.2999C29.0279 10.8551 29.7322 10.8551 30.1667 11.2999Z" fill="#125978"/>
<path fill-rule="evenodd" clip-rule="evenodd" d="M34.2975 15.5328L35.2809 16.5396C35.7153 16.9845 35.7153 17.7057 35.2809 18.1506C34.8464 18.5954 34.142 18.5954 33.7075 18.1506L32.7243 17.1437C32.2898 16.6989 32.2898 15.9777 32.7243 15.5328C33.1587 15.088 33.8631 15.088 34.2975 15.5328Z" fill="#125978"/>
<path fill-rule="evenodd" clip-rule="evenodd" d="M39.4092 22.3778C38.9747 22.8226 38.2703 22.8226 37.8359 22.3778L36.6559 21.1696C36.2215 20.7248 36.2215 20.0036 36.6559 19.5587C37.0904 19.1139 37.7947 19.1139 38.2292 19.5587L39.4092 20.7668C39.8436 21.2117 39.8436 21.933 39.4092 22.3778Z" fill="#125978"/>
<path fill-rule="evenodd" clip-rule="evenodd" d="M43.5401 26.6066C43.1055 27.0514 42.4011 27.0514 41.9667 26.6066L40.7868 25.3984C40.3523 24.9535 40.3524 24.2323 40.7868 23.7875C41.2213 23.3426 41.9256 23.3426 42.3601 23.7875L43.5401 24.9956C43.9745 25.4404 43.9745 26.1617 43.5401 26.6066Z" fill="#125978"/>
<path fill-rule="evenodd" clip-rule="evenodd" d="M46.489 28.0199L47.4723 29.0268C47.9067 29.4716 47.9067 30.1928 47.4723 30.6377C47.0378 31.0825 46.3335 31.0825 45.899 30.6377L44.9157 29.6309C44.4812 29.186 44.4812 28.4647 44.9157 28.0199C45.3501 27.5751 46.0546 27.5751 46.489 28.0199Z" fill="#125978"/>
<path fill-rule="evenodd" clip-rule="evenodd" d="M50.6198 32.2465L51.6031 33.2533C52.0375 33.6982 52.0376 34.4194 51.6031 34.8642C51.1686 35.3091 50.4642 35.3091 50.0298 34.8642L49.0465 33.8574C48.6121 33.4126 48.6121 32.6913 49.0465 32.2465C49.481 31.8016 50.1853 31.8016 50.6198 32.2465Z" fill="#125978"/>
<path d="M19.2125 34.2454L19.4001 29.0744C19.4001 29.0744 19.9221 27.9099 20.5025 27.3508C21.0497 26.8236 21.3296 26.6131 22.1755 26.3271C23.0215 26.0411 23.727 26.0313 24.7321 26.0411C26.0562 26.0539 27.0071 26.2067 28.086 26.5077C29.1649 26.8088 31.3028 27.4515 33.0661 28.5024C35.0959 29.712 36.3021 30.557 37.5146 32.5368C38.1003 33.4932 38.4085 34.0806 38.6248 35.1712C38.9844 36.9852 38.9688 38.8443 38.6248 40.3271C38.3977 41.3057 37.9974 41.5996 37.327 42.3669C36.6565 43.1342 33.9496 44.5873 32.5892 44.768C31.698 44.8863 28.4222 45.1895 26.585 44.5873C25.7015 44.2978 24.123 43.1777 23.2153 41.7346C22.6994 40.9142 22.2079 39.3973 21.4406 37.9561C20.6477 36.4665 19.2125 34.2454 19.2125 34.2454Z" fill="#F8ECE1"/>
<path d="M23.7013 35.8536C23.0602 35.1009 21.3949 33.0837 21.3949 33.0837V33.6934C21.3949 34.1827 21.7424 34.6474 21.9344 34.9579C22.5207 35.9063 22.8882 36.4633 23.0602 36.8095C23.2322 37.1558 24.0687 39.2257 24.0687 39.2257C24.0687 39.2257 24.1625 38.3827 24.2173 37.7354C24.272 37.088 24.1314 36.3586 23.7013 35.8536Z" fill="#691806"/>
<path d="M36.7637 39.4365C36.7637 39.4365 36.3867 40.001 35.677 40.558C34.9577 41.1225 34.8404 41.1075 33.8319 41.529C32.8234 41.9505 32.065 41.5742 31.5178 41.3333C30.9705 41.0924 31.8292 41.7173 32.2292 41.943C32.6266 42.1671 32.667 42.3871 32.667 42.3871C32.667 42.3871 32.7061 42.4774 32.5576 42.6279C32.409 42.7785 32.2292 42.9064 32.2292 42.9064C32.2292 42.9064 32.3543 43.2075 33.5114 42.7483C35.0362 42.1433 35.7834 41.4688 35.9819 41.2204C36.6797 40.3473 36.7637 39.4365 36.7637 39.4365Z" fill="#691806"/>
<path fill-rule="evenodd" clip-rule="evenodd" d="M19.4001 29.0744C19.2125 29.5388 18.9057 33.4377 19.2125 34.2454C19.3734 34.6687 19.7599 35.2585 20.2056 35.9385C20.6102 36.5558 21.0634 37.2473 21.4407 37.9561C21.8155 38.6602 22.1246 39.3824 22.4027 40.0326C22.694 40.7132 22.9514 41.3151 23.2154 41.7346C24.123 43.1777 25.7015 44.2978 26.585 44.5873C28.4222 45.1895 31.698 44.8863 32.5892 44.768C33.9496 44.5873 36.6565 43.1342 37.327 42.3669C37.4393 42.2383 37.544 42.1232 37.6416 42.0157C38.1267 41.4819 38.4358 41.1418 38.6248 40.3271C38.9688 38.8443 38.9844 36.9852 38.6248 35.1712C38.4085 34.0806 38.1003 33.4932 37.5146 32.5368C36.3021 30.557 35.0959 29.712 33.0661 28.5024C31.3028 27.4515 29.1649 26.8088 28.086 26.5077C27.0071 26.2067 26.0562 26.0539 24.7321 26.0411C23.727 26.0313 23.0215 26.0411 22.1756 26.3271C21.3296 26.6131 21.0498 26.8236 20.5025 27.3508C19.9221 27.9099 19.5878 28.61 19.4001 29.0744ZM21.8081 28.3518C21.4485 28.6457 21.1592 29.3363 21.1592 30.3088C21.1592 31.7195 22.4196 33.0899 23.2078 33.9469C23.4415 34.201 23.6338 34.41 23.7392 34.5615C24.2004 35.2239 24.6383 36.1873 24.7399 36.6615C24.8212 37.0409 24.9432 37.6776 24.9432 37.6776C24.9432 37.6776 24.3365 36.3454 24.2552 36.1948C23.6941 35.1561 22.2146 33.7561 22.2146 33.7561L21.1592 32.4841C21.1592 32.4841 20.9384 33.6033 21.1592 34.0873C21.2868 34.3668 21.5457 34.8019 21.8414 35.2986C22.0575 35.662 22.2934 36.0583 22.5117 36.4508C22.9794 37.2911 23.3167 38.1535 23.6285 38.9501C24.0336 39.9857 24.3953 40.9103 24.9432 41.5314C25.7683 42.4667 26.6463 42.8671 27.8828 43.1647C29.29 43.5034 32.5814 43.3153 34.0434 42.7357C35.4861 42.1638 36.4944 41.2356 36.77 40.1969C37.0455 39.1582 37.1394 38.3927 37.1394 38.3927C37.1394 38.3927 36.4748 39.6515 35.6226 40.3045C34.8565 40.8916 34.2732 41.1469 33.504 41.3432C32.7322 41.5401 31.4634 41.2529 31.4634 41.2529C31.4634 41.2529 32.8065 41.0613 33.504 40.7637C34.3068 40.421 34.5195 40.2875 35.1457 39.6948C36.074 38.8164 36.4748 38.1067 36.7094 37.497C36.9851 36.7803 37.0556 35.9735 36.8657 35.2314C36.5917 34.1604 36.1193 33.3958 35.3725 32.5594C34.7548 31.8676 33.5203 30.9579 32.3156 30.1508C31.0674 29.3144 29.8451 28.8426 29.2275 28.6077C27.9194 28.1103 26.1941 27.6879 25.4826 27.6142C24.5082 27.5132 23.6705 27.5598 23.3248 27.6142C22.5583 27.7348 22.2087 28.0225 21.8699 28.3012C21.8492 28.3181 21.8287 28.335 21.8081 28.3518Z" fill="#621706"/>
<path d="M34.8066 35.1614C35.0182 34.6703 35.0099 33.8141 35.0099 33.8141C35.0099 33.8141 34.7019 34.4293 34.4626 34.8001C34.2682 35.1014 33.9232 35.5453 33.9232 35.5453C33.9232 35.5453 33.3131 34.272 33.1336 33.4001C33.0125 32.812 32.9772 31.8722 32.9772 31.8722C32.9772 31.8722 32.808 32.8031 32.8521 33.4001C32.9082 34.159 33.0989 34.5693 33.3759 35.2819C33.559 35.7526 33.7102 35.9972 33.9232 36.456C34.1346 36.9114 34.3366 37.139 34.4626 37.6227C34.641 38.307 34.4626 39.4292 34.4626 39.4292C34.4626 39.4292 33.2875 40.269 32.4065 40.498C31.8251 40.6491 31.4756 40.6353 30.8742 40.6636C30.4076 40.6856 29.678 40.6636 29.678 40.6636C29.678 40.6636 29.7831 40.1578 29.9047 39.8507C30.1254 39.2934 30.2915 38.9664 30.7334 38.5485C30.9905 38.3055 31.4761 38.0216 31.4761 38.0216C31.4761 38.0216 31.199 38.0054 31.0227 38.0216C30.747 38.047 30.6111 38.2047 30.3347 38.1872C30.0598 38.1699 29.678 37.9388 29.678 37.9388L30.0767 38.5485C30.0767 38.5485 29.5797 39.0498 29.3496 39.4292C29.1141 39.8176 28.904 40.498 28.904 40.498C28.904 40.498 28.1537 40.3353 27.7157 40.1292C27.1988 39.8859 26.9052 39.7122 26.5195 39.3012C25.8904 38.631 25.9425 38.0045 25.6204 37.156C25.294 36.2961 25.3264 35.7272 24.8621 34.9281C24.4759 34.2634 23.6034 33.4001 23.6034 33.4001C23.6034 33.4001 24.6445 33.6159 25.2452 33.4001C25.5038 33.3072 25.8628 33.0689 25.8628 33.0689C25.8628 33.0689 25.5868 34.2524 25.8628 34.9281C26.0526 35.3928 26.2802 35.6106 26.644 35.9588L26.6602 35.9743C26.9785 36.279 27.5749 36.6442 27.5749 36.6442C27.5749 36.6442 27.0001 36.1625 26.7619 35.7636C26.5337 35.3816 26.46 35.1297 26.3866 34.6948C26.2805 34.0661 26.4244 33.6992 26.5195 33.0689C26.6238 32.378 26.9182 31.3227 26.9182 31.3227C26.9182 31.3227 27.408 31.2849 27.7157 31.2249C28.017 31.1661 28.474 31.0216 28.474 31.0216C28.474 31.0216 28.9969 31.3951 29.3496 31.6087C29.8688 31.9231 30.2562 31.9529 30.7334 32.3238C31.0594 32.5771 31.4761 33.0689 31.4761 33.0689C31.4761 33.0689 31.3108 32.4804 31.0774 32.1732C30.6959 31.671 30.1759 31.7194 29.678 31.3227C29.352 31.063 28.904 30.5926 28.904 30.5926C28.904 30.5926 29.2048 30.3109 29.3496 30.0958C29.5252 29.8351 29.678 29.3657 29.678 29.3657L30.0767 29.5313C30.0767 29.5313 32.0294 30.5631 33.1336 31.4206C34.1183 32.1853 34.7598 32.5811 35.4477 33.6034C35.8904 34.2612 36.2027 34.6497 36.3233 35.4249C36.4218 36.0578 36.3735 36.4451 36.1826 37.0582C35.9522 37.7985 35.1194 38.7517 35.1194 38.7517C35.1194 38.7517 34.9598 37.9321 34.8066 37.4195C34.6345 36.8431 34.2672 35.9743 34.2672 35.9743C34.2672 35.9743 34.6567 35.5094 34.8066 35.1614Z" fill="#B32D2D"/>
<path d="M26.1598 29.0796C25.6526 28.4846 24.4008 28.071 24.4008 28.071C24.4008 28.071 25.8573 28.1032 26.7618 28.2969C27.8153 28.5224 29.3496 29.2302 29.3496 29.2302C29.3496 29.2302 28.9245 29.9811 28.474 30.2764C27.9286 30.6339 26.8322 30.6603 26.8322 30.6603C26.8322 30.6603 26.5994 29.5953 26.1598 29.0796Z" fill="#B32D2D"/>
<path d="M22.8288 30.6601C22.3284 30.3842 21.7577 29.6816 21.7577 29.6816C21.7577 29.6816 21.6673 30.7924 21.9453 31.4203C22.2381 32.0814 22.5305 32.4956 23.2041 32.8053C23.7907 33.075 24.2368 33.1293 24.8615 32.9558C25.4174 32.8014 25.7984 32.6254 26.0733 32.1354C26.3321 31.6741 26.2822 31.3063 26.1593 30.7956C26.072 30.433 25.9569 30.2413 25.7449 29.93C25.3302 29.321 24.9495 29.0316 24.2595 28.7332C23.7024 28.4923 22.9695 28.3447 22.7272 28.4321L22.7157 28.4363C22.4815 28.5207 22.3818 28.5568 22.2893 28.816C22.1974 29.0744 22.61 29.6201 22.9497 30.0692L22.9695 30.0956C23.2769 30.5023 23.8999 31.0214 23.8999 31.0214C23.8999 31.0214 23.2134 30.8722 22.8288 30.6601Z" fill="#B32D2D"/>
<path d="M31.7466 35.1267C31.679 34.6408 31.5731 34.357 31.2853 33.9526C31.0195 33.579 30.2221 33.1611 29.9953 33.0493C29.7686 32.9375 28.6819 32.974 28.4317 33.0493C28.1102 33.1461 27.8814 33.546 27.8063 33.8622C27.7437 34.1257 27.7336 34.8031 27.8063 35.0364C27.913 35.3789 28.02 35.5641 28.2441 35.8493C28.6179 36.3253 28.929 36.5756 29.5184 36.7601C29.9781 36.904 30.2931 36.9766 30.7537 36.8354C31.203 36.6975 31.5006 36.5243 31.6997 36.1128C31.8687 35.7633 31.7997 35.5088 31.7466 35.1267Z" fill="#F8ECE1"/>
<path fill-rule="evenodd" clip-rule="evenodd" d="M31.2853 33.9526C31.5731 34.357 31.679 34.6408 31.7466 35.1267C31.753 35.1732 31.7597 35.2178 31.7662 35.2609C31.813 35.5721 31.8481 35.8058 31.6997 36.1128C31.5006 36.5243 31.203 36.6975 30.7537 36.8354C30.2931 36.9766 29.9781 36.904 29.5184 36.7601C28.929 36.5756 28.6179 36.3253 28.2441 35.8493C28.02 35.5641 27.913 35.3789 27.8063 35.0364C27.7336 34.8031 27.7437 34.1257 27.8063 33.8622C27.8814 33.546 28.1102 33.1461 28.4317 33.0493C28.6819 32.974 29.7686 32.9375 29.9953 33.0493C30.2221 33.1611 31.0195 33.579 31.2853 33.9526ZM31.1229 33.9013C31.3795 34.197 31.4739 34.4045 31.5342 34.7597C31.54 34.7937 31.5459 34.8263 31.5517 34.8578C31.5934 35.0853 31.6247 35.2562 31.4924 35.4806C31.3149 35.7815 31.0495 35.9081 30.6489 36.0088C30.2383 36.1121 29.9575 36.059 29.5476 35.9538C29.0221 35.8189 28.7448 35.6359 28.4114 35.288C28.2117 35.0795 28.1162 34.9441 28.0211 34.6937C27.9563 34.5231 27.9653 34.0279 28.0211 33.8353C28.088 33.6042 28.292 33.3118 28.5787 33.241C28.8018 33.186 29.7707 33.1593 29.9728 33.241C30.175 33.3228 30.8859 33.6283 31.1229 33.9013Z" fill="#621706"/>
<path d="M30.5489 34.6395C30.5225 34.4851 30.4812 34.3949 30.369 34.2665C30.2654 34.1478 29.9545 34.015 29.8662 33.9795C29.7778 33.944 29.3541 33.9556 29.2566 33.9795C29.1313 34.0103 29.0421 34.1373 29.0128 34.2378C28.9884 34.3215 28.9845 34.5367 29.0128 34.6108C29.0544 34.7196 29.0962 34.7784 29.1835 34.869C29.3292 35.0202 29.4505 35.0998 29.6803 35.1584C29.8595 35.2041 29.9823 35.2272 30.1618 35.1823C30.337 35.1385 30.453 35.0835 30.5306 34.9527C30.5965 34.8417 30.5696 34.7609 30.5489 34.6395Z" fill="#621706"/>
</svg>
